<?xml version="1.0" encoding="UTF-8"?>
<svg id="Layer_1" data-name="Layer 1" xmlns="http://www.w3.org/2000/svg" version="1.1" viewBox="0 0 3219.75 2328.09">
  <defs>
    <style>
      .cls-1 {
        fill: #fff;
        stroke-width: 0px;
      }
    </style>
  </defs>
  <path class="cls-1" d="M405.82,1951.54c-17.39,9.17-15.68,22.12,5.67,43.02-3.41-14.14-25.59-25.81-5.67-43.02Z"/>
  <path class="cls-1" d="M463.34,1937.13c-8.63-15.75-20.41-15.93-34.05-6.88,12.83-5.04,24.42-3.93,34.05,6.88Z"/>
  <path class="cls-1" d="M2767.64,2050.07c-10.83,15.01-21.66,30.01-32.49,45.02,12.93-13.49,24.58-27.91,32.49-45.02Z"/>
  <path class="cls-1" d="M2654.63,2161.51c12.53,13.55,27.55,11.28,35.87-5.43-10.37,12.28-22.34,13.99-35.87,5.43Z"/>
  <path class="cls-1" d="M2629.58,2113.09c-13.27,12.08-9.73,26.3,8.91,35.88-9.64-10.3-20.28-20.36-8.91-35.88Z"/>
  <path class="cls-1" d="M2654.64,2037.7c11.27,9.5,18.86,19.77,7.18,34.1,14.19-11.86,11.43-24.95-7.18-34.1Z"/>
  <path class="cls-1" d="M2812.41,1948.02c8.5,8.52,17.09,17.02,8.91,30.42,15.09-15.43,2.87-22.86-8.91-30.42Z"/>
  <path class="cls-1" d="M2701.1,1991.12c16.64,9.21,22.79-2.55,28.9-14.43-7.52,9.05-15.46,17.25-28.9,14.43Z"/>
  <path class="cls-1" d="M2758.75,1937.15c7.92-8.29,17.07-12.52,28.66-8.64-12.88-8.16-21.99-3.79-28.66,8.64Z"/>
  <path class="cls-1" d="M2539.78,1955.13c8.38,5.97,16.76,11.93,25.14,17.9t0,0c8.34,6,16.69,11.99,25.03,17.99-7.7-6.88-14.66-14.8-25.01-17.98-7.4-7.35-14.92-14.53-25.15-17.9Z"/>
  <path class="cls-1" d="M2616.91,2010.77c-7.16-5.37-14.31-10.73-21.47-16.1,6.07,6.81,12.56,13.06,21.47,16.1Z"/>
  <path class="cls-1" d="M3200.1,173.31c-19.38-32.11-41.72-62.42-62.74-93.54,0,0,0,0,0,0-16.82-26.68-39.09-48.11-65.04-65.6-17.46-11.76-37.23-18.95-57.75-10.48-55.94,23.09-101.02,62.83-148.17,99.29,3.59-1.8,7.17-3.6,10.76-5.4,10.74-7.9,21.49-15.8,32.23-23.7-10.74,7.9-21.49,15.8-32.23,23.7h0c-3.59,1.8-7.17,3.6-10.76,5.4-1.74,1.23-3.48,2.46-5.22,3.68-15.77,8.92-30.2,19.65-43.23,32.25-9.01,7.16-18.02,14.32-27.03,21.49-6.54,4.9-13.08,9.81-19.62,14.71-4.42,5.55-9.31,10.49-14.93,14.5,5.62-4.01,10.51-8.95,14.93-14.5-2.33,1.12-4.67,2.24-7.01,3.36-6.7,5.93-13.41,11.86-20.11,17.79h0c6.7-5.93,13.4-11.86,20.11-17.79-15.02,11.35-30.04,22.69-45.05,34.04-8.9,6.6-17.8,13.21-26.7,19.81-25.2,19.11-50.4,38.21-75.6,57.32-9.35,9.72-22.27,15.91-28.46,28.76-.67.68-1.34,1.36-2.01,2.04-10.83,8.75-18.22,20.21-25.13,32.03-8.56,9.83-13.02,21.71-18.07,33.55-13.8,32.33-9.47,68.45-21.9,101.01-.94,2.48.74,7.26,2.83,9.31,4.16,4.09,10.09,4.48,14.93,1.33,5.41-3.52,10.04-8.23,15.02-12.43-1.18.04-2.37.09-3.55.13,0,0-.16-.17-.16-.17-.92.5-1.82,1.02-2.73,1.54.91-.52,1.81-1.04,2.73-1.54,1.23-1.76,2.46-3.52,3.69-5.28-.75.11-1.48.34-2.22.65.73-.31,1.47-.53,2.22-.65,7.18-5.99,14.35-11.98,21.53-17.97,46.56-31.27,92.97-62.74,139.7-93.75,56.76-37.66,113.75-74.96,170.74-112.26,3.01-1.97,7.67-5.14,10.43-1.18,2.89,4.14-2.01,6.67-4.85,9.15-53.6,46.83-112.45,86.83-169.83,128.59-92.47,67.3-186.69,132.2-280.11,198.2-41.03,28.98-41.86,29.64-68.34-12.72-28.81-46.08-56.93-92.68-83.11-140.29-24.86-45.2-60.91-73.31-111.27-83.42-5-.59-9.99-1.71-14.99-1.71-369.28-.08-738.56-.08-1107.84,0-5,0-9.99,1.13-14.99,1.73-20.5,4.4-40.05,11.12-57.36,23.35-13.42,10.08-26.77,20.6-35.43,35.07-37.37,62.43-74.35,125.08-111.04,187.91-8.68,14.87-18.96,20.89-33.98,9.75-11.7-8.68-22.22-18.95-33.84-27.75-37.8-28.62-76.94-55.28-117.81-79.36-6.58-5.32-13.15-10.64-19.73-15.96,0,0,0,0,0,0-.59-1.29-1.17-2.58-1.76-3.87.01,0,.02.02.04.03h0s0,0,0,0c0,0,0,0-.01-.01-7.45-7.31-14.95-14.54-25.17-17.96-38.14-27.1-76.63-53.72-114.31-81.44-45.63-33.56-90.58-68.04-135.78-102.17-3.25-2.45-8.45-5.4-5.99-9.65,2.5-4.33,7.25-.44,10.16,1.43,46.67,30.01,93.45,59.85,139.7,90.5,38.04,25.21,75.42,51.43,113.05,77.26,2.68,1.84,5.02,4.18,7.51,6.29,9.62,10.48,25.14,13.74,32.74,26.7,4.66,3.53,9.32,7.05,13.97,10.58,5.4,4.22,10.28,9.52,16.32,12.41,10.2,4.89,19.9.35,17.12-10.54-10.63-41.67-10.22-85.83-31.67-125.18-31.12-57.08-84.5-90-133.71-127.33-76.57-58.08-154-115.02-231.37-172.02-22.81-16.8-45.86-33.53-70.17-47.97-52.04-30.92-85.08-7.15-125.72,36.2-33.96,36.24-61.31,77.69-87.88,119.72-30.9,48.89-24.66,97.12,21.37,132.19,48.9,37.25,98.41,73.75,148.39,109.56,74.51,53.38,148.75,107.23,224.91,158.18,39.53,26.45,85.09,40.25,133.61,34.55,23.53-2.76,46.16-11.52,70.56-10.87,8.71.23,16.16-6.84,9.03-16.64-8.29-11.38-18.87-20.81-32.75-25.49.63,1.18,1.27,2.36,1.9,3.54-15.55-10.77-31.1-21.53-46.66-32.3-58.03-45.45-116.06-90.9-174.08-136.34-17.94-15.58-35.96-31.07-53.76-46.8-4.43-3.91-14-8.77-10.13-13.38,4.89-5.83,11.96,2.16,17.36,5.71,22.78,15.01,45.4,30.26,68.08,45.43,34.41,25.22,68.48,50.94,103.31,75.57,94.62,66.92,181.94,143.55,277.97,208.57,9.61,6.51,12.66,13.92,10.18,22.6-.83,2.3-1.94,4.8-3.35,7.57-.39.67-.79,1.34-1.23,2.01-21.39,33.05-43,65.99-63.21,99.76-66.67,111.45-133.42,222.87-198.72,335.13-23.93,41.13-26.72,86.28-4.53,128.89,23.68,45.48,51.35,88.89,77.58,133.02,24.09,40.52,48.59,80.8,72.91,121.19,4.74,7.57,9.61,15.05,14.19,22.71,42.63,71.33,85.2,142.69,127.79,214.04,0,0,0,0,0,0,1.74,3.02,3.49,6.04,5.23,9.06,5.66,13.41-2.56,21.93-10.75,30.46-5.32,3.65-10.63,7.3-15.95,10.94,1.55-.52,3.15-.93,4.73-1.41-1.57.48-3.18.89-4.73,1.41-53.02,39.06-106.31,77.76-158.98,117.3-34.52,25.91-71.67,48.36-103.3,78.1,0,0,0,0,0,0-14.37,6.88-26.77,5.85-35.75-8.92h0c-10.88-15.32-19.8-32.66-33.06-45.52-22.63-21.94-33.15,6.96-47.78,15.37-11.58,6.66-6.89,16.54.05,25.92,42.12,56.85,83.81,114.02,125.64,171.09,6.81,12.37,15.66,14.79,26.89,5.48t0,0c4.76-3.55,9.35-7.37,14.31-10.61,10.72-7.01,22.34-15.45,13.34-29.08-11.01-16.7-25.43-31.15-38.37-46.57-1.81-1.97-3.29-3.95-4.45-5.92,1.16,1.98,2.64,3.96,4.45,5.92-12.65-20.77,2.07-30.83,16.1-41.16,0,0,0,0,0,0,39.48-28.73,78.96-57.45,118.43-86.18,9.59-7.15,19.19-14.29,28.78-21.44,38.72-26.76,77.18-53.87,113.11-84.38h0c26.65-14.11,36.54-9.66,39.74,20.7,2.22,21.01,1.08,42.38,1.44,63.59,0,56.83,0,113.66,0,170.48,0,53.85,0,107.69,0,161.54,0,13.76,0,27.51,0,41.27-5.15,31.25,3.18,38.02,33.18,27.03,3.36-1.23,6.79-2.47,10.3-3.08,89.14-15.53,178.31-30.86,267.44-46.47,116.25-20.36,232.45-41.02,348.71-61.35,18.03-3.15,26.81-12.07,22.36-31,0-41.28,0-82.56,0-123.83.56-6.78,5.43-9.88,10.77-12.56h59.22c18.58,8.14,11.98,25.42,14.33,39.45-2.84,19.77-2.82,39.54-.01,59.3-.56,7.19-1.12,14.38-1.68,21.57-1.28,16.42.1,30.27,22.78,24.14,4.26-1.15,8.64-1.85,12.96-2.75,17.4-2.7,34.85-5.1,52.19-8.16,92.63-16.34,185.25-32.7,277.82-49.36,33.68-6.06,67.2-12.98,100.79-19.51,3.55-.06,7.1-.12,10.65-.18,11.77-2,23.73-3.27,35.28-6.17,23.02-5.77,48.41-2.78,69.15-16.01,11.04-7.04,21.59-8.51,33.84-7.83,11.52.64,23.34.92,34.68-.85,38.64-6.05,77.29-12.34,115.63-20.04,21.71-4.36,44.45-4.1,65.1-13.56,1.81-1.81,3.62-3.62,5.43-5.43,6.04-6.73,1.36-14.35,1.79-21.55-.61-26.93-1.22-53.85-1.82-80.78-1.45-18.43-.5-34.28,25.23-23.4,40.66,30.48,81.33,60.97,121.99,91.45,14.73,10.71,29.3,21.64,44.22,32.07,15.87,11.09,16.66,22.97,4.09,37.4-10.16,11.66-19.18,24.32-28.7,36.53h0c-9.42,8.37-12.66,17.97-2.98,27.78,6.86,6.96,15.23,12.43,22.93,18.57,13.47,10.74,24.05,7.83,32.14-6.81l35.9-52.05c-12.6,17.33-25.21,34.66-37.81,51.99-6.71,7.99-12.52,10.33-17.82,9.69,5.3.65,11.11-1.7,17.82-9.69,12.61-17.33,25.21-34.66,37.82-51.99h0c19.6-20.62,34.68-44.57,50.27-68.16,1.21-1.81,2.43-3.62,3.64-5.42h0c13.4-16.74,27.08-33.27,40.07-50.31,4.77-6.26,3.43-13.48-2.55-18.58-9.08-7.74-18.46-15.2-28.19-22.1-9.51-6.74-18.44-4.26-25.14,4.56-10.67,14.03-22.02,27.78-30.81,42.96-12.7,21.95-25.98,18.44-42.93,5.36-36.15-27.9-73.04-54.85-109.62-82.18-26.39-19.54-52.22-39.89-79.34-58.36-19.45-13.24-32.01-27.71-28.88-53.43,2.62-21.54,1.54-43.52,2.14-65.31.2-7.07.32-14.89-7.13-17.98-22.94-9.52-17.1-22.58-6.53-38.08,31.47-46.15,58.64-94.9,85.4-143.87,0,0,0,0,0,0,3.66-6.51,7.32-13.02,10.99-19.53,0,0,0,0,0,0,5.96-10.16,11.93-20.33,17.89-30.49,9.18-15.35,18.43-30.65,27.52-46.05,33.32-56.43,66.6-112.89,99.89-169.34,21.62-31.56,21.65-95.22.05-127.43h0c-11.96-20.37-23.93-40.74-35.89-61.11-3.13-4.2-6.58-8.23-9.51-12.55,2.93,4.32,6.38,8.35,9.51,12.55-.59-1.76-1.19-3.53-1.78-5.29-4.79-7.78-9.59-15.55-14.38-23.33h0c-12.55-20.37-25.09-40.75-37.64-61.12,0,0,0,0,0-.01-4.55-9-8.53-18.34-13.75-26.93-53.3-87.82-101.48-178.73-159.15-263.92-7.17-10.59-7.69-21.71,3.34-29.38,56.67-39.41,110.28-82.78,165.07-124.66,85.15-65.08,172.7-127.03,259.23-190.3,20.95-17.76,43.82-32.67,67.94-45.69,1.84-.99,4.39-.67,6.6-.96-.8,2.41-.88,5.54-2.49,7.12-22.48,22.15-46.23,42.84-72.05,61.06-50.89,40.06-101.78,80.12-152.67,120.19-4.78,3-9.55,5.99-14.33,8.99-30.93,22.93-61.98,45.69-92.65,68.95-5.24,3.97-11.39,9.53-8.32,17.34,2.94,7.47,10.7,5.62,16.64,5.23,31.85-2.1,61.41,14.18,93.97,9.8,44.67-6.01,84.58-22.34,120.91-48.11,74.48-52.82,148.95-105.67,222.97-159.13,44.03-31.8,89.19-62.47,130.2-97.88,43.6-37.65,46.98-72.78,16.96-122.51ZM2654.63,264.49s0,0,0,0h0s0,0,0,0ZM2685.13,241.16s0,0,0,0h0s0,0,0,0ZM678.72,461.96c.69,1.12,1.48,2.28,2.22,3.46-.74-1.18-1.52-2.34-2.22-3.46-3.67-11.42-5.4-23.21-7.06-35.03,1.67,11.83,3.39,23.61,7.07,35.03ZM590.78,293.25h0c-13.66-10.54-27.28-21.15-40.93-31.71,13.66,10.56,27.27,21.16,40.94,31.71ZM36.27,156.89s0,0,0,0c19.14-26.92,38.29-53.85,57.43-80.77h0c-19.14,26.92-38.29,53.85-57.43,80.77-3.67,9.85-8.85,19.01-13.5,28.44,4.65-9.42,9.83-18.59,13.5-28.44ZM91.66,74.08c3.6-4.16,7.23-8.3,10.9-12.41h0c-2.96,4.84-5.92,9.68-8.89,14.52,0,0,0,0,0,0,2.96-4.84,5.92-9.68,8.89-14.52-3.67,4.12-7.3,8.25-10.9,12.41ZM18.32,268.1s0,0,0,0c10.77,11.36,21.54,22.73,32.32,34.09-10.77-11.36-21.54-22.73-32.32-34.09ZM73.91,320.13s0,0,0,0c-7.78-5.99-15.55-11.98-23.33-17.97,0,0,0,0,0,0,7.77,5.99,15.55,11.98,23.32,17.97,3.34,1.16,6.39,2.7,9.19,4.57-2.81-1.87-5.85-3.42-9.19-4.57ZM93.67,76.19h0c10.16-11.4,20.32-22.79,30.47-34.19-7.22,6.57-14.43,13.14-21.65,19.71,0,0,0,0,0,0,7.22-6.57,14.43-13.14,21.65-19.71-10.16,11.4-20.32,22.79-30.47,34.19ZM125.92,40.23s0,0,0,0c1.81-2.15,3.67-4.2,5.59-6.14-1.92,1.94-3.79,3.99-5.59,6.14ZM181.74,397.75c6.5,4.65,13.01,9.31,19.51,13.96h0c-6.5-4.65-13.01-9.31-19.51-13.96ZM195.97,411.64s0,.01-.01.02c0-.01.01-.02.01-.02h0ZM224.53,431.57c-9.56-6.58-19.12-13.16-28.67-19.74,9.56,6.58,19.12,13.16,28.68,19.74,8.84,6.75,17.51,13.74,26.41,20.4-8.9-6.66-17.57-13.65-26.41-20.4ZM224.68,431.4c19.14,12.58,38.27,25.16,57.41,37.75,5.66,4.09,11.33,8.19,16.99,12.28-5.66-4.09-11.33-8.19-16.99-12.28-19.14-12.58-38.27-25.16-57.41-37.75ZM371.88,533.71s0,0,0,0c0,0,0,0,0,0h0ZM353.74,523.1c9.01,6.94,17.93,14,26.98,20.88-9.05-6.89-17.97-13.95-26.98-20.88-23.47-16.13-47-32.17-70.42-48.36,23.43,16.19,46.96,32.23,70.42,48.36ZM437.87,1985.44c-.62-.86-1.23-1.76-1.82-2.69.59.93,1.2,1.83,1.82,2.69,1.37,1.9,2.75,3.8,4.14,5.69-1.39-1.89-2.77-3.78-4.14-5.69ZM452.58,1942.2c-.26-.36-.52-.7-.79-1.02.27.31.54.65.79,1.02,1.22,1.73,2.43,3.47,3.62,5.22-1.2-1.75-2.41-3.49-3.62-5.22ZM511.51,2001.97c.85-.11,1.71-.27,2.58-.5-.87.23-1.73.4-2.58.5ZM586.55,2127.45c.09-.29.15-.61.19-.94-.03.33-.09.65-.19.94-.31.97-.66,1.91-1.05,2.81.39-.9.74-1.83,1.05-2.81ZM554.25,2154.75c-.29.15-.58.29-.86.41.28-.12.57-.26.86-.41,2.6-1.35,5.32-2.65,8.04-4.01-2.72,1.36-5.44,2.66-8.04,4.01ZM563.63,2121.56c-.06,2.46-.37,5.02-1.54,6.89,1.17-1.87,1.47-4.42,1.52-6.87-.63-10.89-11.83-15.19-16.13-23.72,4.3,8.53,15.5,12.82,16.14,23.69ZM2632.99,2132.89c.29.6.61,1.19.98,1.76-.36-.58-.69-1.17-.98-1.76ZM2636.72,2113.14c-3.52,4.62-5.16,8.93-5.23,12.9.08-3.97,1.71-8.29,5.23-12.91,8.26-9.55,16.89-18.82,25.08-28.41-8.2,9.59-16.82,18.87-25.08,28.41ZM2758.7,1951.5h0c-5.02,7.84-10.26,15.57-15.28,23.42,5.02-7.85,10.25-15.57,15.27-23.42ZM2686.38,1992.75c1.14,1.38,2.29,2.65,3.46,3.82-1.17-1.17-2.32-2.44-3.46-3.82-.4-.49-.8-.98-1.2-1.48.4.5.8.99,1.2,1.48ZM2529.52,1870.02c-18.22-13.29-36.41-26.61-54.5-40.08,18.09,13.47,36.28,26.79,54.5,40.08ZM2478.17,1839.46c16.52,11.8,33.04,23.61,49.54,35.44-16.5-11.83-33.02-23.64-49.54-35.44-2-1.43-3.79-2.9-5.36-4.48,1.57,1.57,3.36,3.05,5.36,4.48ZM2469.85,1730.69c.02-.64.04-1.27.04-1.9,0,.62-.02,1.26-.04,1.9,0,.11,0,.22-.01.32,0-.11,0-.22.01-.32ZM2370.29,634.32c14.63,24.5,29.31,48.98,44.01,73.45-14.69-24.47-29.38-48.94-44.01-73.45-12.72-21.31-25.36-42.67-37.98-64.05,12.62,21.37,25.25,42.74,37.98,64.05ZM2359.6,622.35c-15.58-26.39-31-52.87-46.46-79.33,15.47,26.45,30.88,52.94,46.46,79.33ZM2351.75,625.89c-10.29-17.58-20.58-35.15-30.88-52.73,0,0,0,0,0,0,10.29,17.57,20.58,35.15,30.88,52.72ZM2320.89,573.19s.02.03.02.03c0,0,0,0,0,0l-.02-.03ZM2292.67,524.43c-16.29-26.83-32.64-53.62-48.96-80.43,0,0,0,0,0,0,16.32,26.81,32.67,53.6,48.96,80.43ZM2216.87,408s0,0,0,0c24.85,22.67,42.83,49.94,59.08,78.34-16.26-28.4-34.23-55.66-59.08-78.34ZM2231.84,425.63c-5.03-5.18-10.89-9.61-16.89-13.93-.62-1.73-1.24-3.46-1.86-5.18,0,0,0,0,0,0,.62,1.73,1.24,3.46,1.86,5.18,5.99,4.32,11.86,8.75,16.89,13.93ZM2241.83,388.43s.01-.02.02-.03l-.02.03h0ZM2257.32,444.12c3.81,6.3,7.6,12.6,11.39,18.92-3.79-6.31-7.58-12.62-11.39-18.92-14.72-24.33-33.07-41.55-56.06-51.5,22.99,9.95,41.35,27.17,56.06,51.5ZM2175.52,386.57c-1.41-.16-2.82-.37-4.23-.58,1.41.21,2.82.41,4.23.58ZM1613.81,359.76c2.65.28,5.29.69,7.94,1.03-2.65-.34-5.3-.75-7.94-1.03h0ZM2177.29,388.34c.48.06.97.14,1.45.22-.48-.08-.96-.16-1.45-.22-378.08.03-756.17.07-1134.25.1-.02.57-.05,1.13-.08,1.7.03-.57.05-1.13.08-1.7,378.08-.03,756.17-.07,1134.25-.1ZM1061.5,384.89c-4.99,0-9.97,1.09-14.96,1.68-1.18.01-2.35.03-3.53.04-.65.18-1.3.36-1.95.54.65-.18,1.3-.37,1.95-.54,1.18-.01,2.35-.03,3.53-.04,4.99-.58,9.97-1.67,14.96-1.68ZM1048.37,381.19c-1.79.6-3.58,1.2-5.36,1.8-3.51.74-6.91,1.63-10.2,2.66,3.29-1.03,6.69-1.92,10.2-2.66,1.79-.6,3.58-1.2,5.36-1.8,1.28-.18,2.56-.42,3.84-.65-1.28.24-2.56.47-3.84.65ZM1035.82,363.25c4.38-.74,8.77-1.89,13.15-2.65-4.38.76-8.77,1.9-13.15,2.65-5.58.98-11.07,2.24-16.41,3.79,5.34-1.55,10.83-2.8,16.41-3.79ZM1041.23,390.19c0,.61.01,1.21.02,1.82,0-.61-.01-1.21-.02-1.82-11.05,3.04-20.93,7.45-29.86,13.02,8.92-5.57,18.81-9.98,29.86-13.02ZM990.01,379.49c-1.71,1-3.38,2.05-5.03,3.14,1.64-1.09,3.32-2.13,5.03-3.14ZM960.52,445.85c2.54-3.8,5.15-7.5,7.84-11.1-2.69,3.59-5.3,7.3-7.84,11.1-.16.98-.36,1.94-.59,2.88.23-.94.43-1.9.59-2.88-7.2,13.15-14.4,26.29-21.6,39.44,1.28-2.3,2.7-4.53,4.18-6.72-1.48,2.19-2.9,4.42-4.18,6.72h0c7.2-13.15,14.4-26.29,21.6-39.44ZM897.5,557.14c3.51-5.95,6.99-11.92,10.46-17.9-3.46,5.98-6.95,11.95-10.46,17.9-3.15,5.34-6.31,10.68-9.47,16.03,3.16-5.34,6.31-10.68,9.47-16.03ZM893.25,568.51c3.29-5.59,6.59-11.17,9.9-16.74-3.31,5.58-6.61,11.16-9.9,16.74-3.18,5.39-6.33,10.79-9.48,16.2,3.15-5.41,6.31-10.81,9.48-16.2ZM818.62,698.82c18.63-32.59,37.01-65.34,55.75-97.86-18.74,32.53-37.12,65.27-55.75,97.86-1.45,2.43-2.89,4.86-4.34,7.29,1.45-2.43,2.89-4.86,4.34-7.29ZM879.69,608.98c33.33-56.18,67.11-112.1,100.78-168.08,14.38-23.91,37.8-35.56,62.49-45.36,2.36-.25,4.72-.59,7.09-.9-2.36.31-4.72.65-7.09.9,189.06,0,378.12,0,567.18,0-189.06,0-378.12,0-567.18,0-24.69,9.8-48.11,21.45-62.49,45.36-33.68,55.98-67.45,111.89-100.78,168.08-33.8,56.98-66.87,114.38-100.7,171.34-20.02,33.72-40.18,67.36-60.36,100.98,20.18-33.63,40.33-67.27,60.36-100.98,33.82-56.96,66.9-114.37,100.7-171.34ZM787.51,750.27c-15.08,24.84-30.14,49.68-45.08,74.61-19.37,32.33-38.72,64.68-58.08,97.03,19.36-32.35,38.7-64.7,58.08-97.03,14.93-24.92,30-49.77,45.08-74.61ZM716.39,860.39c8.04-13.34,16.1-26.66,24.15-39.99-8.06,13.33-16.11,26.65-24.15,39.99,0,0,0,0,0,0ZM578.19,1093.7c-1.3,2.22-2.59,4.45-3.88,6.69,1.28-2.24,2.58-4.47,3.88-6.69,46.07-77.77,92.13-155.54,138.2-233.3-46.07,77.77-92.13,155.54-138.2,233.3ZM508.25,1198.31c-.01,2.81.09,5.63.3,8.44-.21-2.81-.31-5.63-.3-8.44ZM532.06,1196.16c.08-2.67.28-5.33.59-7.99-.32,2.66-.52,5.32-.59,7.99ZM542.21,1102.63c-21.86,29.86-33.28,58.64-34.57,88.17,1.3-29.53,12.71-58.31,34.57-88.17,27.22-45.98,54.42-91.98,81.66-137.95-27.24,45.97-54.44,91.97-81.66,137.95h0ZM545.92,1148.36c1.96-3.63,4.1-7.23,6.42-10.8,1.15-1.78,2.29-3.57,3.41-5.37-1.12,1.8-2.25,3.59-3.41,5.37-2.31,3.57-4.46,7.17-6.42,10.8ZM549.21,1221.2c-.76-3.06-1.4-6.18-1.91-9.37.51,3.19,1.15,6.31,1.91,9.37ZM562.02,1266h0s0,0,0,0c0,0,0,0,0,0ZM562.02,1266c-7.05-6.49-12.72-15.07-16.92-24.82,4.2,9.74,9.87,18.33,16.92,24.82,0,0,0,0,0,0ZM550.77,1226.87c1.05,3.48,2.24,6.89,3.56,10.23-1.32-3.34-2.51-6.75-3.56-10.23ZM618.55,1369.03c-3.24-4.93-6.45-9.88-9.63-14.85,3.19,4.97,6.4,9.92,9.63,14.85,9.45,14.41,18.13,29.33,26.52,44.43-8.39-15.1-17.06-30.02-26.52-44.43ZM619.46,1362.9h0s0,0,0,0c.51.96,1,1.93,1.49,2.9-.49-.97-.98-1.94-1.49-2.9ZM663.32,1499.41c-2.44-4.11-4.86-8.23-7.28-12.35,2.42,4.12,4.85,8.24,7.28,12.35,1.39,2.34,2.22,5.01,3.01,7.71-.79-2.7-1.63-5.37-3.01-7.71ZM719.12,1528.29c2.09,2.99,4.24,5.94,6.46,8.83-2.23-2.89-4.38-5.84-6.46-8.83ZM728.45,1530.67c4.84,6.44,10.01,12.62,15.67,18.42-5.65-5.8-10.83-11.98-15.67-18.42ZM742.36,1582.9c-.88.54-1.65,1.17-2.3,1.88-.86.94-1.5,2.01-1.9,3.14.4-1.12,1.04-2.19,1.9-3.14.65-.71,1.41-1.35,2.3-1.88ZM758.58,1654.55c16.95,27.86,34.11,55.61,51.13,83.43-17.02-27.83-34.17-55.57-51.13-83.43ZM815.57,1752.15c1.18,1.04,2.17,2.19,2.99,3.44-.82-1.25-1.81-2.41-2.99-3.44ZM801.3,1693.09c-21.72-31.84-36.81-67.86-61.83-97.64-1.09-1.29-1.65-2.78-1.76-4.3.11,1.52.68,3,1.76,4.3,25.02,29.79,40.1,65.81,61.83,97.64,7.15,10.48,13.38,21.61,19.81,32.57-6.43-10.96-12.66-22.09-19.81-32.57ZM745.35,1586.06h0c.72.06,1.38.15,2,.26-.62-.12-1.28-.21-2-.26ZM747.86,1576.01c.14-.65.22-1.31.24-1.99-.02.68-.09,1.34-.24,1.99ZM756.8,1560.71c2.96,2.41,6.03,4.72,9.25,6.92,2.46,1.68,4.82,2.93,7.17,3.65-2.35-.72-4.71-1.97-7.17-3.65-3.22-2.2-6.3-4.51-9.25-6.92ZM827.32,1741.67c.1-1.19-.04-2.46-.36-3.77.32,1.31.47,2.58.36,3.77ZM799.6,1565.76c12.11-8.11,24.61-15.66,36.91-23.51,1.16-2.15,2.31-4.31,3.47-6.46-1.16,2.15-2.31,4.31-3.47,6.46.63.04,1.26.07,1.89.11-.63-.04-1.26-.07-1.89-.11-12.3,7.85-24.8,15.39-36.91,23.51ZM837.95,1570.28c8.15-4.86,16.08-9.69,24.42-13.76-8.33,4.07-16.27,8.9-24.42,13.76ZM872.58,2282.63c-.06-136.99.01-273.99-.22-410.98,0-2.21-.11-4.43-.3-6.65.19,2.22.29,4.44.3,6.65.23,136.99.15,273.99.22,410.98,0,.74,0,1.47,0,2.19,0-.72,0-1.44,0-2.19ZM876.14,2110.39c-.02-42.89-.03-85.78-.03-128.67,0,42.89.01,85.78.03,128.67,0,16.55.01,33.09.02,49.64,0-16.55-.01-33.09-.02-49.64ZM875.97,1847.24c.07,1.99.24,3.99.24,5.8,0-1.81-.17-3.81-.24-5.8ZM874.52,1551.35h0c1.82-.65,3.66-1.25,5.54-1.8-1.88.55-3.73,1.15-5.54,1.8ZM881.83,1835.82c1.03-.27,2.24-.42,3.64-.42-1.41,0-2.61.16-3.64.42ZM897.56,2209.69c0,5.6-.12,11.2-.29,16.79.16-5.6.28-11.2.29-16.79.03-29.57.06-59.13.07-88.7-.01,29.57-.04,59.13-.07,88.7ZM913.02,2316.73c17.87-3.16,35.75-6.26,53.63-9.34-17.88,3.08-35.76,6.19-53.63,9.34ZM922.21,2289.73c1.18-.21,2.34-.38,3.46-.48.48-.04.96-.09,1.44-.16-.48.06-.96.11-1.44.16-1.12.1-2.28.27-3.46.48ZM937.13,2287.17c14.33-3.19,28.69-6.3,43.01-9.53-14.32,3.23-28.68,6.34-43.01,9.53ZM984.37,2273.43c-18.16,3.66-36.26,7.61-54.41,11.33-1.9.39-3.69.68-5.39.86,1.7-.18,3.5-.47,5.39-.86,18.15-3.72,36.25-7.67,54.41-11.33,2.54-.51,4.84-1.2,6.92-2.04-2.08.84-4.38,1.52-6.92,2.04ZM1001.84,2158.64c-.02-.52-.05-1.07-.09-1.64.03.57.07,1.12.09,1.64.51,14.61,1.01,29.23,1.59,43.84-.58-14.61-1.08-29.23-1.59-43.84ZM1005.34,2199.21c.35,5.25.61,10.51.87,15.77-.26-5.26-.52-10.53-.87-15.77ZM1023.28,2206.4c-.63-2.53-1.01-5.16-1.85-7.61.84,2.44,1.21,5.08,1.85,7.61,1.5,5.6,3.47,11.13,5.25,16.67-1.78-5.54-3.76-11.06-5.25-16.67ZM1034.83,2237.12c-1.62-7.38-3.37-14.74-5.19-22.07,1.82,7.34,3.57,14.69,5.19,22.07.39,1.76.83,3.41,1.33,4.96-.5-1.54-.94-3.19-1.33-4.96ZM1080.7,2283.56s0,0,0,0c-7.91.77-15.83,1.53-23.74,2.36,7.91-.83,15.82-1.59,23.74-2.36,0,0,0,0,0,0h0ZM1080.7,2283.56h0s0,0,0,0h0ZM1083.09,2262.61c6.42-1.78,12.81-3.75,19.16-5.95h0c-6.35,2.2-12.74,4.16-19.16,5.95ZM1102.25,2256.67s0,0,0,0h0,0ZM1105.82,2251.29c-1.41.35-2.83.7-4.24,1.05,1.41-.35,2.83-.71,4.24-1.05h0c8.63,1.27,16.86-.17,24.99-2.38-8.13,2.21-16.36,3.66-24.99,2.38ZM1132.58,2217.24c8.44,19.81.51,28.19-19.63,29.8-10.93.87-21.9,3.4-32.44,6.55-25.68,7.66-36.51,1.97-43.4-24.29-7.06-26.89-13.75-53.88-21.03-80.7-1.66-6.13-4.01-14.48-12.46-12.46-7.77,1.85-7.16,10.08-6.83,16.67,1.52,29.82,3.26,59.63,4.71,89.45.18,3.81-.39,7.82-1.44,11.5-4.39,15.4-77.68,34.9-89.23,23.68-6.21-6.03-5.1-14.33-5.1-21.99-.14-128.87-.11-257.75-.35-386.62-.04-21.7,4.77-36.67,30.83-40.25,46.14-6.35,91.9-15.64,137.72-24.18,32.6-6.08,60,14.98,60.33,48.96.66,68.49.5,136.99,0,205.47-.12,16.41-6.15,31.04-21.43,40.09-15.3,9.06-16.27,20.32-9.12,36.44,9.64,21.73,15.91,44.95,23.63,67.54,1.75,4.79,3.5,9.57,5.26,14.36,2.16,2.55,5.17,4.79,7.34,7.39-2.18-2.6-5.18-4.85-7.34-7.39ZM909.29,1814.64c0,.46.04.94.11,1.45.04.27.08.54.14.79-.05-.25-.1-.52-.14-.79-.07-.51-.1-.99-.11-1.45ZM971.28,1510.08c6.28.01,12.54.08,18.8.21-6.26-.13-12.52-.2-18.8-.21ZM1002.15,1526.8c-4.85-.11-9.7-.17-14.55-.21,4.85.04,9.71.1,14.55.21ZM1067.24,1794.07c.93-.28,1.86-.54,2.8-.78-.94.24-1.87.5-2.8.78-46.62,14.24-95.78,14.15-142.42,27.66-.5.15-1.04.29-1.6.43.56-.14,1.09-.28,1.6-.43,46.64-13.51,95.79-13.42,142.42-27.66ZM1146.81,1547.85c3.5,1.11,7,2.21,10.51,3.31-3.5-1.1-7.01-2.19-10.51-3.3-33.44-10.6-67.27-16.18-101.36-18.92,34.09,2.75,67.92,8.32,101.36,18.92ZM1116.72,1528.45c7.22,1.74,14.41,3.6,21.58,5.57-7.17-1.97-14.36-3.83-21.58-5.57ZM1139.41,1898.38c-.09-16.8-.29-33.59-.64-50.38-.14-7.05-2.14-13.92-5.43-20.21,3.29,6.29,5.28,13.17,5.43,20.21.34,16.79.54,33.59.64,50.38ZM1122.2,1803.38c-1.14-.85-2.3-1.65-3.49-2.41,1.19.76,2.36,1.57,3.49,2.41ZM1091.65,1797.57c-3.13-.33-6.22-.26-9.22.26-13.54,2.32-27.06,4.72-40.57,7.18,13.51-2.46,27.03-4.86,40.57-7.18,3-.51,6.1-.58,9.22-.26ZM914.1,1527.66c-1.33.03-2.66.08-3.97.15,1.32-.06,2.64-.11,3.97-.15,7.36-.19,14.71-.38,22.06-.54-7.35.17-14.7.36-22.06.55ZM1131.22,2204.84c-.98-3.4-1.97-6.86-3.82-9.26-4.31-22.05-9.69-43.74-20.25-63.84-.52-.99-1-1.99-1.44-2.98.44.99.92,1.99,1.44,2.98,10.56,20.1,15.93,41.79,20.25,63.84,1.85,2.4,2.84,5.86,3.82,9.26ZM1138.16,2083.82c.91-1.95,1.7-3.95,2.39-5.99-.69,2.04-1.48,4.03-2.39,5.99ZM1147.1,1942.57c-.57,0-1.15,0-1.72,0,.57,0,1.15,0,1.72,0,0,4.06.04,8.13.11,12.2-.06-4.07-.11-8.14-.11-12.2ZM1183.08,2237.03c-1.27.79-2.63,2.07-3.91,2.96,1.29-.88,2.64-2.17,3.91-2.96,7.74-1.26,15.48-2.52,23.23-3.78,4.44-.28,8.39-.94,11.91-1.94-3.51,1.01-7.46,1.67-11.91,1.94-7.74,1.26-15.48,2.52-23.23,3.78ZM1214.23,2235.15c-2.14.64-4.29,1.26-6.45,1.81,2.16-.55,4.31-1.17,6.45-1.81,2.14-.64,4.29-1.28,6.44-1.87h0c-2.15.59-4.3,1.23-6.44,1.87ZM1280.86,2205.45c.48-.1,1-.16,1.56-.15-.57,0-1.09.05-1.56.15ZM1285.96,2221.31c-.79.12-1.52.18-2.2.18.68,0,1.41-.06,2.2-.18,2.98-.46,5.96-.91,8.95-1.35-2.98.44-5.97.89-8.95,1.35ZM1302.21,2203.4c.36,1.29.83,2.45,1.41,3.5-.57-1.05-1.04-2.21-1.41-3.5ZM1303.27,2181.24c-.58-3.09-1.26-6.16-2.28-8.92,1.01,2.75,1.7,5.82,2.28,8.92.12,4.73.69,8.93,1.74,12.56-1.05-3.63-1.62-7.83-1.74-12.56ZM1320.75,2214.03c-1.41.05-2.72.03-3.96-.05,1.24.09,2.56.1,3.96.05,1.69-.06,3.38-.15,5.07-.26-1.68.11-3.37.2-5.07.26ZM1373.53,2197.59c-15.22,2.89-30.33,6.37-41.24,8.69-20.49.81-23.4-10.35-24.74-22.72-1.35-12.42-1.95-26.69-18.49-26.93-19.85-.28-39.59,2.91-46.99,25.98-2.17,6.75-2.65,14.07-3.59,21.17-1.66,12.55-8.31,19.97-21.04,22.03-12.93,2.09-25.71,5.51-38.71,6.76-20.95,2.02-24.21-12.26-21.8-28,6.37-41.62,13.89-83.07,20.88-124.6,15.51-92.17,31.03-184.33,46.42-276.52,3.1-18.58,13.82-26.84,32.48-28.07,13.26-.88,26.46-4.15,39.46-7.27,15.11-3.63,25.02.95,27.87,16.53,17.74,96.95,35.36,193.92,52.73,290.93,5.63,31.46,10.15,63.12,15.67,94.61,2.78,15.86-3.31,24.45-18.91,27.42ZM1247.95,1595.36c-2.85-.64-5.8-1.22-8.79-1.78,3,.57,5.95,1.15,8.79,1.78,6.26,1.4,12.54,2.75,18.83,4.09-6.29-1.34-12.57-2.69-18.83-4.09ZM1265.5,1766.5c-6.1,1.2-12.22,2.28-18.37,3.09,6.15-.81,12.27-1.88,18.37-3.09ZM1209.92,1567.48c-11.77-3.66-23.54-7.28-35.31-10.93,11.77,3.65,23.55,7.28,35.31,10.93,25.23,7.55,50.61,14.48,76.27,20.18-25.65-5.7-51.04-12.63-76.27-20.18ZM1213.02,1786.72c.02.7-.01,1.42-.08,2.15.06-.73.1-1.45.08-2.15ZM1209.08,1810.44c1.1-5.74,2.17-11.49,3.21-17.23.13-.7.26-1.42.37-2.15-.11.73-.24,1.45-.37,2.15-1.04,5.75-2.12,11.49-3.21,17.23ZM1210.97,1849.49c-.95,5.9-1.84,11.82-2.82,17.71-1.8,10.16-3.6,20.33-5.41,30.49,1.8-10.16,3.6-20.33,5.41-30.49.98-5.9,1.88-11.81,2.82-17.71ZM1182.03,2000.81c2.95-17.93,5.96-35.86,9-53.78-3.04,17.92-6.05,35.84-9,53.78ZM1187.97,1996.15c-.38,2.17-.79,4.33-1.24,6.48.45-2.16.86-4.32,1.24-6.48ZM1179.7,1977.21c-.24,2.23-.5,4.46-.76,6.68.26-2.23.52-4.45.76-6.68,1.26-11.58,2.8-23.14,4.54-34.67-1.75,11.53-3.29,23.09-4.54,34.67ZM1190.74,1833.8c-.2,1.38-.44,2.75-.72,4.12.27-1.36.52-2.74.72-4.12.42-2.9.75-5.81,1.02-8.73-.27,2.92-.59,5.83-1.02,8.73ZM1351.68,1893.25c-6.96-39.13-13.87-78.27-20.66-117.43-1.08-6.22-3.15-10.77-6.19-13.75,3.04,2.99,5.11,7.53,6.19,13.75,6.79,39.16,13.71,78.3,20.66,117.43ZM1334.73,1613.66c6.1,1.32,12.2,2.66,18.27,4.05-6.08-1.39-12.17-2.73-18.27-4.05ZM1403.68,1833.56c-.16,6.21-.3,12.43-.42,18.64.12-6.21.26-12.43.42-18.64,0-11.77.05-23.53.05-35.3,0,11.77-.05,23.53-.05,35.3ZM1403.55,1770.81c.08,5.23.12,10.46.15,15.69-.03-5.23-.07-10.46-.15-15.69,0-.59,0-1.22.01-1.89-.01.66-.02,1.3-.01,1.89ZM1407.92,2159.03c2.58-4.9,3.31-10.16,3.34-15.48-.03,5.31-.76,10.58-3.34,15.48ZM1405.53,2038.43c1.29,31.02,3,62.03,5.1,93.03.09,1.28.18,2.56.28,3.86-.09-1.29-.19-2.58-.28-3.86-2.1-31-3.81-62.01-5.1-93.03ZM1397.72,1615.42c4.57-1.23,9.11-2.66,13.65-4.15-4.53,1.49-9.07,2.92-13.65,4.15ZM1412.11,1595.99c3.43-.67,6.86-1.41,10.27-2.23-3.42.82-6.84,1.56-10.27,2.23ZM1414.5,2170.98c-.31-10.24-.6-20.49-.89-30.73.29,10.24.58,20.49.89,30.73.05,1.78-.01,3.64-.06,5.51.04-1.86.11-3.72.06-5.51ZM1414.43,2179.9c.04,1.78.2,3.52.6,5.15-.4-1.63-.55-3.37-.6-5.15ZM1446.83,2197.44c-2.64-.28-5.27-.43-7.87-.46,2.61.03,5.23.18,7.87.46h.01s-.01,0-.01,0ZM1500.7,2184.89c-2.42-.01-4.84-.02-7.26-.04,2.42.01,4.84.02,7.26.04,0,0,0,0,0,0ZM1558.01,1998.17c-12.85.78-26.64-3.29-37.6,7.27-.47,12.05-.94,24.11-1.41,36.16.47-12.05.94-24.11,1.41-36.16,10.96-10.55,24.74-6.49,37.59-7.27,3.85-2.83,8.96-3.85,13.82-5.2-4.86,1.36-9.98,2.37-13.82,5.2ZM1546.43,1993.24c-25.23-.81-36.1,10.07-34.12,38.14,3.02,42.78.95,85.93.77,128.92-.05,11.29-7.02,16.98-17.58,19.39-14.48,3.3-28.87,7.02-43.3,10.56,0,0,.28.46.27.45h0l-.27-.45c-31.99,3.55-35.72,0-35.85-32.11-.53-127.83-1.03-255.65-2.03-383.47-.17-21.16,7.57-32.97,29.51-35.85,20.34-2.68,40.39-7.58,60.57-11.51-11.43,1.17-22.87,2.33-34.3,3.5-11.35,1.81-22.7,3.62-34.05,5.42,11.35-1.81,22.7-3.62,34.05-5.42,6.21-2.22,12.53-3.72,18.92-4.75-6.39,1.03-12.71,2.54-18.92,4.75,11.44-1.17,22.87-2.33,34.3-3.5,4.17-1.16,8.34-2.32,12.5-3.47,2.34-.08,4.69-.17,7.03-.25,0,0,0,0,0,0,14.98-2.52,29.89-5.64,44.96-7.4,14.39-1.68,24.25,3.61,26.06,19.84,1.85,16.59,5.29,33.01,7,49.61,1.37,13.31-6.04,20.49-19.06,22.27-16.86,2.3-33.7,4.73-50.55,7.1-12.89,1.81-20.2,9.66-20.38,22.2-.3,21.37.74,42.75,1.21,64.12,1.22,1.19,2.45,2.38,3.67,3.58h0c-1.22-1.19-2.45-2.38-3.67-3.58,5.71,17.85,18.34,13.55,29.58,8.02,29.29-14.41,42.15-6.96,42.19,25.48,0,5.97-.24,11.95.03,17.91,1.23,26.96-9.48,41.45-38.56,40.52ZM1493.48,1576.49h0c.15,1.73.43,3.31.79,4.79-.36-1.48-.63-3.06-.79-4.79ZM1534.77,1718.26c.35-.13.7-.26,1.05-.39-.35.13-.7.26-1.05.39h0ZM1592.44,1707.27h0c2.11.03,3.67.35,4.81.9-1.14-.55-2.69-.87-4.81-.9ZM1598.92,1722.85c0,.64.07,1.26.21,1.82.23.89.38,1.81.47,2.74-.09-.93-.24-1.84-.47-2.74-.14-.57-.21-1.18-.21-1.82ZM1529.42,1907.59c3.57.08,7.86-.82,12.65-2.64,2.35-1.22,4.7-2.44,7.05-3.65-2.35,1.22-4.7,2.44-7.05,3.65-4.21,3.54-8.42,5.31-12.62,5.3,4.2,0,8.41-1.77,12.62-5.3-4.79,1.82-9.08,2.72-12.65,2.64ZM1530.33,1819.56c4.94-1.14,10.33-1.16,15.14-2.63h0c-4.81,1.47-10.2,1.48-15.14,2.63ZM1563.51,1815.29h0c13.1-2.25,25.91-6.37,38.89-9.37-12.98,3.01-25.79,7.12-38.89,9.37ZM1625.24,2035.18c-2.14.73-4.4,1.35-6.14,2.51h0c1.75-1.16,4-1.78,6.15-2.51,1.07-.37,2.12-.76,3.06-1.27-.94.5-1.98.9-3.06,1.27ZM1637.05,1802.57s0,0,0,0c1.79,0,3.58.01,5.37.02-1.79,0-3.58-.01-5.37-.02ZM1676.54,2097.3c.01-40.96,0-81.92,0-122.88.58,0,1.16,0,1.75,0,0-54.68,0-109.35,0-164.03,0-20.68-10.98-25.51-28.88-19.8-6.92,2.21-13.66,5.34-20.2-.52-6.9-6.19-2.8-13.5-2.59-20.81,1.39-49.35,27.48-70.16,75.56-71.98,25.66-.97,51.05-9.16,76.57-13.99,11.72-2.22,20.44,2.34,24.01,13.55,4.89,15.34,9.03,30.98,12.54,46.7,1.98,8.87-3.69,17.56-11.32,17.81-40.73,1.34-42.39,26.57-41.66,58.7,2.05,91.42,1.05,182.91,2.27,274.36.34,25.37-6.73,41.53-34.92,41.51-3.58,0-7.17.35-10.73.72q-42.44,4.39-42.41-39.33ZM1703.52,1560.34c7.19-2.67,14.46-5.17,21.73-7.68-7.27,2.51-14.54,5.01-21.73,7.68-15.52,5.3-31.07,10.47-46.72,15.21,15.65-4.74,31.2-9.91,46.72-15.21ZM1698,1560.29c1.21-.51,2.41-1.03,3.61-1.56-1.2.52-2.4,1.05-3.61,1.56h0ZM1798.03,1675.49c4.52,2.35,7.91,6.55,10.07,12.87-2.16-6.32-5.55-10.52-10.07-12.87ZM1775.2,1887.71c.04,71.93.04,143.86-.04,215.78,0,3.64-1.04,7.28-1.66,10.93.62-3.64,1.65-7.28,1.66-10.93.07-71.93.07-143.86.04-215.78ZM1716.15,2149.4c13.11-2.52,26.22-5.07,39.34-7.57,0,0,0,0,0,0,8.02-.21,15.94,4.77,20.61,1.91-4.67,2.86-12.59-2.12-20.61-1.91-13.12,2.51-26.22,5.05-39.34,7.57ZM1755.45,2165.1s0,0,0,0c14.88-2.56,29.76-5.12,44.64-7.69-14.88,2.56-29.76,5.12-44.64,7.69ZM1794.58,1810.92c.07-.66.19-1.29.36-1.89-.17.6-.29,1.23-.36,1.89ZM1800.91,2130.41c1.3,1.28,2.99,2.04,5.22,2.38-2.22-.34-3.92-1.1-5.22-2.38ZM1811.79,1804.93c.82.51,1.47,1.13,1.98,1.83-.51-.7-1.16-1.33-1.98-1.83ZM1820.78,2103.82c-.94.02-1.77-.06-2.51-.24.74.18,1.57.26,2.51.24,1.07-.02,1.97-.23,2.73-.57-.76.35-1.66.55-2.73.57ZM1794.38,1772.16c-6.1.21-11.1,1.27-14.97,3.1,3.87-1.83,8.88-2.89,14.97-3.1,26.11-.9,34.5-13.13,26.58-38.12-2.64-8.35-5.36-16.72-7.71-25.16,2.35,8.44,5.07,16.81,7.71,25.16,7.91,24.99-.47,37.22-26.58,38.12ZM1827.14,2084.91c.17-68.64.17-137.28.16-205.93,0,68.64,0,137.28-.16,205.93ZM1827.24,1779.17c-.1-2.16-.74-3.54-1.78-4.41,1.04.87,1.68,2.25,1.78,4.41.16,3.39.22,6.79.24,10.18-.01-3.4-.07-6.79-.24-10.18ZM1830.56,1682.95c-.27-2.25-.81-4.45-1.75-6.27.94,1.82,1.48,4.01,1.75,6.26.32,2.63.6,5.25.86,7.87-.26-2.62-.54-5.25-.86-7.87ZM1836.28,1679.38h0c-.01-.9.04-1.75.15-2.57-.11.82-.16,1.67-.15,2.57ZM1923.2,2107.92c-4.28.86-8.56,1.74-12.84,2.62,4.28-.88,8.56-1.76,12.84-2.62,1.28-.26,2.47-.59,3.57-1-1.1.41-2.28.74-3.57,1ZM1909.05,2100.63c-14.41,2.52-28.68,5.86-42.95,9.06-13.08,2.93-20.56-3.26-20.55-15.47.13-112.09.9-224.19,1.22-336.28.06-21.79-1.02-43.58-1.52-65.38-.26-11.4,4.68-19.12,16.28-21.21,17.01-3.06,34.01-6.64,51.17-8.23,14.2-1.32,14.99,10.26,15.01,20.4.16,66.08.08,132.16.08,198.24.04,65.18-.21,130.37.24,195.55.1,14-5.49,20.96-18.97,23.32ZM2040.91,1398.98s0,0,0,0c.97-.44,1.94-.89,2.91-1.33-.97.44-1.94.89-2.91,1.33-38.78,19.06-77.59,38.08-116.33,57.21,38.75-19.13,77.55-38.14,116.33-57.21ZM1945.87,1441.56c15.64-7.52,31.47-14.64,47.35-21.64-15.89,7-31.72,14.12-47.35,21.64ZM1863.03,1484.87c1.32.05,2.63.09,3.95.14h0c-1.32-.05-2.63-.09-3.95-.14-5.05,1.8-10.36,3.1-15.31,5.08,4.95-1.98,10.26-3.29,15.31-5.08,21.12-11.11,42.01-22.68,63.24-33.55-21.23,10.87-42.12,22.45-63.23,33.55ZM1935.04,1848.28c0,59.91.01,119.82.09,179.73-.07-59.91-.09-119.82-.09-179.73ZM2034.36,2088.42c1.51-.28,2.91-.62,4.22-1.04-1.31.42-2.71.77-4.22,1.04ZM2048.25,1981.43c0-.24-.01-.48-.02-.72,0,.24.01.49.02.72.36,10.74.76,21.48,1.18,32.22-.42-10.74-.82-21.48-1.18-32.22ZM2112.17,2067.88c-14.1,2.69-22.84-3.77-26.33-17.8-8.57-34.48-17.25-68.93-26.13-103.32-1.45-5.62-2.96-13.46-10.11-12.99-7.82.51-6.46,8.6-7.19,14.36-4.64,36.19,1.27,72.18,2.15,108.26.41,16.74-6.42,25.76-23.92,26.6-8.55.41-17.51,1.76-25.39,4.9-21.14,8.44-29.81,1.14-29.75-20.63.17-65.18.06-130.36.06-195.54,0-65.18.23-130.36-.17-195.54-.1-16.38,5.23-26.44,22.79-27.74,6.22-.46,12.41-1.94,18.52-3.35,38.88-8.96,41.38-7.68,49,32.39,4.86,25.55,8.22,51.4,19.22,75.33,2.08,4.52,3.93,10.37,10.32,9.52,6.28-.84,6.73-6.82,7.66-11.79,5.19-27.58-.81-54.84-3.18-82.1-2.73-31.47,2.37-38.85,33.34-43.57,11.68-1.78,22.85-6.77,34.52-8.7,14.65-2.41,21.54,4.86,21.45,19.86-.67,118.07-1.14,236.15-1.68,354.22,0,1.79-.14,3.6.02,5.38,6.33,70.42-1.63,60.11-65.21,72.24ZM2058.2,1670.36l.76,6.45c2.86,8.42,5.6,16.88,8.53,25.28-2.93-8.39-5.66-16.86-8.53-25.28h0c-.25-2.15-.5-4.3-.76-6.45ZM2082.07,1640.95c1.02-12.32,8.34-19.17,21.24-21.68,4.08-.8,8.15-1.59,12.23-2.38-4.08.79-8.16,1.58-12.23,2.38-12.89,2.52-20.22,9.36-21.24,21.68ZM2088.54,1714.15c-.33-4.02-.72-8.05-1-12.07-.22-4.16-.42-8.32-.61-12.48.19,4.16.39,8.32.61,12.48.28,4.02.67,8.05,1,12.07ZM2159.71,1347.52s0,0,0,0h0s0,0,0,0ZM2185.24,2022.3c.45,8.19.94,16.39.93,24.58.01-8.19-.48-16.38-.93-24.58ZM2184.83,1919.43c.31-80.98.7-161.95,1.22-242.93,0,0,0,0,0,0-.52,80.97-.91,161.95-1.22,242.92ZM2186.19,1654.31c.06-8.93.11-17.87.17-26.8.06-7.72-1.65-12.97-4.97-16.13,3.32,3.16,5.02,8.41,4.97,16.13-.06,8.93-.11,17.87-.17,26.8,0,0,0,0,0,0ZM2186.21,1866.33c.16-39.37.72-78.75.71-118.11.01,39.36-.55,78.74-.71,118.11ZM2204.46,1992.99c-.75-104.22-.98-208.45-.88-312.68,0-6.32,0-12.65.26-18.9-.25,6.25-.25,12.59-.26,18.9-.1,104.23.13,208.45.88,312.68.01,2.01.18,4.02.46,6.03-.28-2.01-.44-4.02-.46-6.03ZM2207.75,1996.45c-.13-.93-.29-1.87-.46-2.8.17.93.33,1.86.46,2.8h0ZM2209.27,2017.1c.61,2.17,1.2,4.33,1.72,6.5-.52-2.17-1.11-4.33-1.72-6.5ZM2213.05,1632.07c-1.77,6.58-3.54,13.15-5.32,19.73-.44,3.08-1.17,6.15-1.51,9.23.34-3.08,1.07-6.15,1.51-9.23,1.77-6.58,3.54-13.15,5.32-19.73,1.26-6.79,4.11-12.35,8.5-16.72-4.39,4.37-7.24,9.93-8.49,16.72ZM2241.87,2050.25c-2.26-1.11-4.55-2.2-6.81-3.32,2.26,1.12,4.54,2.2,6.81,3.32,4.18.53,8.35,1.06,12.53,1.59-4.18-.53-8.35-1.06-12.53-1.59ZM2239.04,2044.34c2.62,1.13,5.23,2.04,7.84,2.74-2.61-.7-5.22-1.61-7.84-2.74ZM2272.85,2035.53c-37.11,6.79-55.67-10.44-55.98-52.75-.4-53.53-.1-107.06-.1-160.59-.04-51.44-.07-102.87-.02-154.31.04-38.59,18.82-60.25,57.06-66.86,30.82-5.33,62.52-5.86,92.14-17.94,10.37-4.23,17.35,1.51,19.64,12.17,3.01,13.95,5.97,27.92,8.38,41.98,2.06,12.02-4.58,19.2-15.52,21.33-16.68,3.26-33.55,5.84-50.45,7.57-21.99,2.24-34.51,11.52-34.33,35.72.56,75.06.26,150.12.22,225.18,0,14.77,2.71,27.33,21.07,28.14,19.43.86,33.98-6.21,34.22-27.52.48-42.42-.27-84.87-1.29-127.29-.38-15.68,4.06-25.96,20.74-29.14,11.41-2.17,22.5-5.93,33.84-8.55,16.94-3.93,23.88,1.97,23.64,20.37-.85,67.24-.71,134.51-.17,201.76.11,13.74-3.38,22.77-17.61,25.43-45.15,8.46-90.29,17.02-135.48,25.28ZM2237.59,1322.75c2.12-2.02,4.21-4.11,6.26-6.26-2.05,2.14-4.14,4.23-6.26,6.26ZM2263.37,1592.59c6.68-1.97,13.41-3.74,20.16-5.34-6.75,1.6-13.48,3.36-20.16,5.34-1.91.49-3.81.99-5.7,1.52,1.89-.53,3.79-1.03,5.7-1.52ZM2260.68,1307.21c3.25.89,6.56,2.77,9.96,5.71-3.4-2.94-6.71-4.82-9.96-5.71ZM2323.5,1316.36c3.29-.4,6.64-.93,10.03-1.57-3.4.64-6.74,1.18-10.03,1.57ZM2371.26,1570.72c-3.37.79-7.02,2.1-10.97,3.93,0,0,0,0,0,0,3.94-1.84,7.6-3.15,10.96-3.93ZM2360.31,1574.64h0s0,0,0,0h0ZM2378.8,1326.74c-5.09-.32-10.2-.41-15.33-.35,5.13-.05,10.25.03,15.33.35ZM2367.79,1312.92c3.16.24,6.3.59,9.42,1.03-3.11-.45-6.25-.79-9.42-1.03ZM2384.26,1556.38c-.13-.83-.38-1.51-.73-2.08.35.57.6,1.25.73,2.08.6,3.8-1.83,5.33-4.56,6.5,2.73-1.17,5.16-2.7,4.56-6.5ZM2396.21,1754.14c.83-.34,1.63-.64,2.43-.94-.8.3-1.6.61-2.43.94-2.01.32-4.03.67-6.04,1.02,2.01-.35,4.02-.7,6.04-1.02ZM2384.88,1692.86c-1.14.09-2.27.16-3.34.24,1.07-.08,2.2-.16,3.34-.24ZM2336.88,1708.21c6.17-14.02,22.57-14.05,38.1-14.73-15.53.68-31.94.71-38.1,14.73ZM2337.91,1784.66c-.16,1.66-.22,3.4-.2,5.22-.02-1.82.04-3.56.2-5.22ZM2337.23,1924.65c.25,7.91-3.16,13.83-11.33,15.49,8.17-1.67,11.58-7.58,11.33-15.49ZM2334.5,1718.2c.08-.95.18-1.86.32-2.73-.13.87-.24,1.78-.32,2.73ZM2311.95,1942.74c.87.63,1.74,1.13,2.62,1.53-.88-.4-1.75-.9-2.62-1.53-.48-.34-.92-.7-1.34-1.06.42.36.86.72,1.34,1.06ZM2311.81,1837.72c.64-16.55,1.24-33.11,1.82-49.66-.58,16.55-1.18,33.11-1.82,49.66ZM2305.6,1703.29c-.34-5.68.4-10.54,2.3-14.49-1.9,3.95-2.64,8.82-2.3,14.49,4.37,72.52,4.48,145.03-.35,217.53-.1,1.56-.2,3.11-.24,4.64.04-1.53.14-3.08.24-4.64,4.84-72.5,4.72-145.01.35-217.53ZM2401.35,1619.69c.09,1.15.17,2.29.27,3.44,1.17,3.11,2.18,6.02,3.02,8.73-.83-2.71-1.84-5.62-3.02-8.73-.09-1.15-.18-2.29-.27-3.44ZM2299.31,2041.31h0c-2.65.91-5.3,1.78-7.95,2.6,2.65-.82,5.3-1.69,7.95-2.6ZM2345.95,2035.89c-15.55,1.81-31.1,3.62-46.64,5.43h0c15.55-1.81,31.1-3.62,46.64-5.43,0,0,0,0,0,0ZM2409.12,2023.49c-21.21,3.06-42.13,8.19-63.17,12.41,21.05-4.22,41.96-9.35,63.17-12.41,16.69-2.41,25.99-8.08,28.47-22.77-2.48,14.7-11.78,20.37-28.47,22.77ZM2442.5,1724.88c-.17,2.13-.31,4.26-.44,6.4.13-2.13.27-4.27.44-6.4.04-.5.1-.99.18-1.46-.08.48-.14.96-.18,1.46ZM2456.33,1713.31c-4.12-.63-7.51.45-9.9,2.68,2.4-2.23,5.78-3.31,9.9-2.68ZM2458.55,1637.2c2.56-3.7,5.02-7.46,7.4-11.27-2.38,3.81-4.84,7.57-7.4,11.27ZM2434.69,1331.61c14.92,6.42,29.65,13.63,44.49,20.23,13.75,6.11,27.47,12.31,41.2,18.47-13.73-6.16-27.45-12.36-41.2-18.47-14.85-6.6-29.57-13.81-44.49-20.23ZM2488.49,1363.23c11.74,5.48,23.44,11.07,35.16,16.57-11.73-5.51-23.42-11.09-35.16-16.57ZM2556.11,1412.81c.48-.32,1.02-.76,1.56-1.21-.54.45-1.08.89-1.56,1.21ZM2560.27,1409.87c.14-.02.27-.01.38.03-.11-.05-.23-.06-.38-.03ZM2580.28,1394.76c1.07-1.09,2.08-2.43,3.02-4.06,4.56-7.93,9.22-15.8,13.93-23.64-4.71,7.84-9.37,15.71-13.93,23.64-.94,1.63-1.95,2.97-3.02,4.06ZM2672.69,1298.42c-28,43.96-54.88,88.63-82.02,133.13-2.23,3.65-4.45,7.3-6.68,10.95,2.23-3.65,4.45-7.3,6.68-10.95,27.14-44.5,54.02-89.17,82.02-133.13,2.91-4.57,5.76-9.16,8.5-13.77-2.74,4.62-5.59,9.2-8.5,13.77ZM2661.38,1277.91c-18.71,29.38-35.07,60.33-52.99,90.27,17.92-29.94,34.28-60.9,52.99-90.27ZM2611.5,1343.6c7.17-11.71,14.37-23.4,21.44-35.17-7.07,11.76-14.26,23.46-21.44,35.17ZM2679.74,1221.06c-10.79,24.25-23.38,47.49-36.7,70.32,13.32-22.83,25.91-46.07,36.7-70.32.58-1.87,1.11-3.73,1.59-5.6-.47,1.87-1.01,3.73-1.59,5.6ZM2673.27,1168.74c1,2.94,1.88,5.91,2.61,8.92-.73-3.01-1.61-5.98-2.61-8.92ZM2635.82,1038.42c24.19,44.01,58.72,82.89,70.61,133,.71,2.98,1.29,5.93,1.76,8.85-.47-2.92-1.05-5.87-1.76-8.85-11.89-50.12-46.42-89-70.61-133-2.44-4.43-4.9-8.85-7.38-13.26,2.48,4.41,4.94,8.83,7.38,13.26ZM2653.84,1130.6c-8.61-13.57-18.11-26.87-26.09-40.56h0s0,0,0,0c7.98,13.69,17.48,26.98,26.08,40.56ZM2627.8,1090.09h0c-1.12-1.52-2.24-3.04-3.34-4.57,1.1,1.53,2.22,3.05,3.34,4.57-15.55-25.72-31.11-51.45-46.66-77.17,0,0,0,0,0,0l46.66,77.17ZM2648.81,1136.61c27.39,42.08,27.24,81.87.83,123.66-20.53,32.48-40.43,65.43-58.81,99.15-13.44,24.66-29.9,29.18-52.8,14.19-17.75-7.23-35.66-14.06-53.2-21.76-37.31-16.38-72.82-37.69-114.51-41.87-8.86-.89-18.04-1.29-26.8,0-26.81,3.96-45.4,7.88-69.26-11.89-4.01-3.32-20.61-11.97-20.61-11.97,0,0-1.87,4.71-6.41,8.48-7.12,5.91-57.37,51.97-93.07,34.81-5.21-2.5-18.25-7.22-18.25-7.22,0,0-6.1,7.01-12.28,14.02-8.61,7.78-17.36,15.37-26.37,22.63-3.01,2.43-6.05,4.81-9.12,7.16-3.07,2.34-6.18,4.65-9.32,6.9-7.46,5.35-15.14,10.41-23.09,15.13-21.57,9.88-44.61,17.12-70.27,28.64-54.76,24.58-107.17,54.33-161.42,80.1-58.11,27.61-117.62,51.28-180.43,67.34-33.54,8.58-67.28,13.66-101.15,18.62-8.17,1.2-29.39-.84-39.38-9.66-9.16-8.09-45.21-36.63-45.21-36.63,0,0-9.82,15.18-30.69,22.3-36.8,12.55-99.13,19.14-139.49,9.77-51.93-12.06-102.82-28.38-154.05-43.17-76.9-22.2-156.26-19.96-236.3-16.78-48.36,1.92-69.65,40.49-107.15,54.63-10.12,3.81-16.77,3.68-25.42-1.95-30.67-20-46.13-51.89-63.98-81.61-40.68-67.73-79.53-136.57-120.79-203.94-20.68-33.77-38.41-68.24-24.02-107.57,9.59-26.21,26.71-49.73,40.94-74.18,21.43-36.83,43.19-73.48,64.97-110.11,32.46-54.58,65.16-109.01,97.58-163.61,39.44-66.43,78.53-133.08,118.08-199.45,36.79-61.73,72.06-124.5,111.77-184.31,22.22-33.47,58.29-44.87,98.84-36.91,119,.23,238.01.59,357.01.62,80.89.02,161.77-.54,242.66-.63,159.94-.18,319.9-1.71,479.8.7,40.9.62,65.78,32.63,84.66,67.74,18.48,34.37,38.99,67.66,58.87,101.26,20.92,35.37,42.24,70.51,63.24,105.83,34.09,57.31,68.16,114.64,102.07,172.06,28.61,48.45,56.82,97.13,85.53,145.53,28.59,48.19,56.24,97.02,86.79,143.96ZM2453.7,795.74s0,0,0,0c20.84,34.92,41.69,69.83,62.52,104.76-20.84-34.92-41.68-69.84-62.52-104.76ZM2473.48,833.5c-3.95-6.67-7.9-13.34-11.82-20.02-.37-.63-.72-1.28-1.07-1.92.34.65.7,1.29,1.07,1.92,3.92,6.68,7.86,13.36,11.82,20.02ZM2437.54,770.58h0c5.39,8.39,10.79,16.79,16.18,25.19-5.39-8.4-10.79-16.79-16.18-25.19ZM2518.3,837.03c1.82,2.68,3.61,5.37,5.4,8.07-1.79-2.7-3.58-5.39-5.4-8.07h0ZM2498.52,847.82c1.83,3.23,3.66,6.47,5.48,9.72-1.82-3.24-3.65-6.48-5.48-9.72,0,0,0,0,0,0ZM2498.52,847.81s0,0,0,0c0,0,0,0,0,0,0,0,0,0,0,0h0ZM2508.78,880.33c13.37,22.44,26.74,44.88,40.1,67.33-13.36-22.44-26.73-44.88-40.1-67.33-48.02-80.61-95.64-161.45-143.94-241.89,48.29,80.44,95.92,161.28,143.94,241.89ZM2938,52.68s0,0,0,0l4.64-3.07c-1.55,1.02-3.09,2.05-4.64,3.07Z"/>
  <path class="cls-1" d="M2563.3,501.52c-26.71,14.47-52.88,29.75-75.54,50.29,25.18-16.76,50.36-33.53,75.54-50.29Z"/>
  <path class="cls-1" d="M878.76,1322.45c11.76,2.69,19.12-6.33,20.54-18.11-.02-10.38-4.88-17.2-14.55-17.85-52.1-3.53-104.22-6.82-156.38-9.28-8.47-.4-22.02-.89-22.76,10.54-.73,11.16,12.09,12.78,21.25,15.28,1.15.31,2.35.41,3.53.6,49.19,8.17,99.45,7.66,148.36,18.82Z"/>
  <path class="cls-1" d="M881.32,1348.16c-46.77,1.8-93.85.33-139.92,11.05-5.12,1.19-12.47,1.64-12.63,7.86-.18,7.08,7.56,7.31,12.87,8.51,45.55,10.25,92.18,6.63,140.04,10.6,9.05-.81,21.74-.67,22.17-15.42.41-13.91-8.51-23.14-22.52-22.6Z"/>
  <path class="cls-1" d="M772.65,1069.14c13.46,8.19,26.61,17.33,41.01,23.46,43.79,18.63,88.13,35.99,132.21,53.96,11.29,4.6,19.3,1.5,21.69-10.41,3.45-17.21-5.59-25.31-21.82-29.67-23.85-6.41-47.66-13.58-70.61-22.62-30.93-12.19-62.45-21.34-93.13-26.54-6.18,1.06-11.42-.54-12.95,4.59-.58,1.95,1.57,6,3.6,7.23Z"/>
  <path class="cls-1" d="M800.88,998.95c45.42,32.53,96.97,54.18,146.07,79.99,13.55,7.13,26.06,19.15,40.25,20.3,13.64-.44,22.26-5.57,22.76-16.51.75-16.32-11.4-23.45-24.95-28.71-21.44-8.33-42.97-16.49-64.04-25.7-37.65-16.46-74.2-35.71-115.02-43.68-4.12-.8-10.53-4.78-12.72,1.25-1.97,5.42,3.33,9.97,7.65,13.06Z"/>
  <path class="cls-1" d="M1891.98,843.76c-.19,13.37,3.03,20.46,11.67,22.74,10.92,2.88,16.66-5.25,21.13-13.01,26.55-46.15,53.41-92.14,78.82-138.91,18.49-34.04,35.01-69.15,52.14-103.92,1.92-3.9,2.94-9.39-1.69-12.23-4.34-2.67-7.22,1.7-9.41,4.65-14.18,19.15-29.2,37.78-41.95,57.85-28.73,45.2-57.75,90.33-83.55,137.2-9.14,16.6-24.59,30.19-27.16,45.62Z"/>
  <path class="cls-1" d="M900.4,1224.98c-50.37-7.56-100.86-14.27-154.05-11.16,9.51,3.78,17.47,6.55,25.1,10.04,39.54,18.08,82.29,24.78,124.09,34.69,9.46,2.24,21.05,1.33,23.04-12.13,1.95-13.15-7.19-19.79-18.17-21.44Z"/>
  <path class="cls-1" d="M946.61,1171.9c-29.66-11.08-61.51-12.75-91.79-22.43-22.82-7.29-48.85-4.92-67.52-14.51-9.43.06-14.82.2-16.8,5.43-2.18,5.78,2.8,9.4,6.87,11.03,23.73,9.47,47.45,19.11,71.68,27.19,29.46,9.82,59.25,18.76,89.25,26.8,11.24,3.01,23.61.2,26.49-13.24,2.74-12.81-8.25-16.56-18.18-20.27Z"/>
  <path class="cls-1" d="M2022.94,756.41c.07,4.71.96,9.23,5.83,11.16,8.7,3.44,16.05-1.11,20.73-6.97,25.41-31.86,45.09-67.52,65.83-102.43,2.4-4.03,2.83-14.15,1.89-14.45-6.5-2.12-11.22,3.16-14.82,7.43-21.07,25.05-41.9,50.33-62.31,75.92-7.06,8.85-17.55,16.02-17.15,29.34Z"/>
  <path class="cls-1" d="M844.82,931.55c51.04,44.71,112.31,74.07,168.13,111.64,11.65,7.84,24.79,13.44,37.25,20.07,0,0-.06-.03-.06-.03,24.36,15.25,47.22,33.23,75.39,41.58,10.1,6.48,20.19,12.96,30.29,19.44,0,0,0,0,0,0,.59,3.46,1.17,6.93,1.75,10.39l-12.24-1.46c-3.61-2.4-7.21-4.79-10.82-7.19-9.76-4.62-20.13-7.39-26.62,3.8-4.73,8.16-2.98,16.81,6.88,21.6,1.7,1.15,3.4,2.29,5.09,3.44,3.87,5.67,13.98,9.86,10.05,17.49-9.6,18.63-.78,29.64,12.87,40.17,5.64,4.35,10.29,11.15,18.57,6.48,1.89-1.06,3.36-2.32,4.51-3.71,5.84-1.88,10.64-7.45,10.29-13.82-.62-11.31.39-22.34,2.51-33.21,1.4-3.95,2.92-7.88,4.5-11.75,5.46-13.4,11.33-29.53,21-39.95,10.68-11.51,23.4-20.86,33.95-32.57,11.26-12.5,20.11-26.55,30.17-39.95,1.38-1.84,3.86-4.8,5.98-7.03,1.23-1.3,2.51-2.55,3.83-3.75.54-.49,1.09-.95,1.63-1.44.35-.29.7-.58,1.05-.88,2.53-1.86,5.19-3.55,7.94-5.06,1.27-.7,2.58-1.32,3.87-1.99.18-.09,1.11-.52,1.3-.62.64-.25,1.28-.5,1.92-.73,2.96-1.08,5.98-1.98,9.04-2.71,1.65-.39,3.32-.69,4.99-1.01.03,0,.46-.07.84-.12.52-.05,1.64-.16,1.79-.17,3.14-.26,6.29-.34,9.43-.23,1.69.06,3.38.19,5.06.36.06,0,.1.01.15.01,1.06.17,2.11.35,3.16.57,3.08.63,6.11,1.45,9.08,2.48.42.15,2.42.94,2.51.94,1.57.71,3.12,1.49,4.63,2.32,6.8,3.75,9.08,5.59,14.25,10.93,1.01,1.04,1.99,2.11,2.94,3.21.48.55.94,1.11,1.4,1.67.09.1.15.19.22.26.05.07.11.15.18.25,1.99,2.75,3.82,5.61,5.46,8.58,3.02,5.5,4.37,8.87,6.08,16.12.39,1.68.72,3.38.99,5.08-.1-.32.29,3.45.31,3.96.19,3.95.09,7.95-.42,11.87-1.05,8.06-3.77,17.52-5.57,26.09-3.6,17.13-4.81,35.3,2.67,51.35,1.34,5.13,5.12,9.72,11.02,11.51,2.3.7,4.68.71,6.93.17,4.97,4.03,10.73,5.66,18.36,2.11,13.15-6.12,13.71-18.15,10.41-30.7-.01.85-.03,1.69-.04,2.54.01-.85.03-1.69.04-2.54.01-13.69-1.97-27.75.41-41.02,7.33-40.75,8.32-85.39,58.28-102.8,11.82-4.12,16.48-16.63,15.83-29.01-1.15-21.76,11.31-39.09,20.81-55.9,2.6-4.6,6.78-9.09,11.7-12.95,1.46-.82,2.77-1.8,4-2.88,6.74-4.46,14.34-7.63,21.06-8.34,15.69-1.68,31.66-5.4,50.29,1.97,36.52,14.45,61.75,46.32,55.34,85.41-1.4,8.54-4.27,16.85-5.44,25.4-1.74,12.75,2.98,23.14,15.95,26.35,4.66,1.15,8.39.6,11.38-1.07,5.21-2.9,8.21-9.15,10.05-15.64,3.66-12.87,6.72-26.03,8.51-39.28,2.42-17.87,10.02-31.14,26.2-40.17,15.56-8.67,27.51-21.51,31.48-39.49,8.67-39.34,16.64-78.84,24.9-118.28,17.2-28.46,17.46-62.08,27.57-92.83,13.85-42.11,20.58-86.59,29.65-130.21,2.34-11.26,2.35-23.06,2.72-34.64.09-2.7-2.74-5.49-4.23-8.24-2.82,1.84-6.89,3.03-8.25,5.63-9.54,18.27-17.35,37.1-22.58,57.29-7.87,30.41-18.09,60.21-27.05,90.34-9.74,32.74-21.44,65.13-28.09,98.5-1.56,7.82-3.29,20.63-5.51,35.51,7.57-27.63,15.13-55.26,22.84-82.85-7.71,27.59-15.27,55.23-22.84,82.86,0,0,0,0,0,0-3.1,11.34-6.21,22.67-9.32,34.01-4.87,11.84-5.36,25.17-10.23,36.97-1.37,3.3-3.08,6.49-5.32,9.48-1.89,2.53-5.52,3.75-8.35,5.58-.95-2.97-3.06-6.11-2.66-8.9,3.26-22.93,5.84-46.04,10.36-68.73,3.31-10.55,6.1-19.29,7.35-24.54,15.46-40.34,12.34-83.99,22.82-125.64,10.33-41.04,10.47-84.67,14.65-127.21.46-4.69-.15-11.43-5.89-12.87-5.57-1.4-8.13,4.62-10.1,8.62-17.67,36.01-20.21,76.22-29.42,114.39-14.73,61.04-22.31,123.8-33.54,185.72-.55,3.03-1.64,12.87-3.14,24.39-1.12,3.88-2.34,7.75-3.69,11.59-1.17,3.34-8.05,29.96-9.75,29.74-5.24-.67-1.04-27.49-.91-31.38.25-7.79.26-15.63.33-23.46.86-7.23,1.69-12.87,2.08-15.2,11.99-71.2,15.35-143,17.15-214.99.83-33.37,3.07-66.71,3.85-100.08.14-6.01,2.7-17.04-5.97-17.31-8.49-.26-10.83,10.65-11.62,18.02-10.77,99.69-33.1,198.13-32.91,299.02h0c-.04,1.78-.08,3.55-.13,5.33-1.15,15.58-2.29,31.15-3.44,46.73-.42,4.67.33,10.94-6.1,11.17-6.61.23-7.65-6.32-7.85-11.17-1.04-24.73-2.02-49.47-2.18-74.22-.45-70.39,4.81-295.46-14.57-294.88-18.67-.31-10.62,159.88-12.54,197.1-.15,2.93-1.09,5.81-1.66,8.71-.61,48.37-1.13,96.75-1.93,145.12-.1,5.89,1.17,15.25-6.52,15.36-7.25.1-7.06-9.33-7.5-15.28-1.1-14.87-1.42-29.79-2.05-44.69-3.59-29.78-7.13-59.56-10.71-89.34,3.58,29.78,7.13,59.56,10.71,89.34.02-4.22.04-8.45.06-12.67l-14.39-123.77c-3.52-32.59-6.5-65.26-10.87-97.73-1.34-9.94-7.38-66.68-16.84-65.66-11.16,1.21-6.64,57.96-6.15,67.83,2.44,48.89,5.36,97.77,8.88,146.6,2.23,30.9.16,62.24,8.82,92.54,1.12,16.36,2.46,32.72,3.14,49.1.11,2.71-2.68,5.54-4.13,8.31-2.21-1.62-5.74-2.83-6.41-4.94-4.44-13.89-10.16-27.73-11.98-42.02-11.11-87.48-31.97-172.96-51.92-258.62-1.5-6.44-11.27-51.13-19.66-49-7.39,1.88.92,46.34,1.94,53.37,9.57,65.46,19.12,130.92,29.16,196.31,5.78,37.67,19.09,74.21,16.8,113.06-.18,3.04.65,7.63-3.93,7.57-1.68-.02-4.1-3.96-4.85-6.51-13.07-44.34-28.25-88.23-38-133.3-6.35-29.33-17.11-57.1-24.95-85.78-8.42-30.79-32.75-130.27-49.55-127.32-13.91,2.45,12.9,73.68,15.86,90.91,5.97,34.74,14.33,69.11,22.59,103.41,6.61,27.44,14.52,54.56,21.85,81.82,6.48,25.45,13.11,50.86,19.21,76.39l7.17,47.45c-7.03.17-9.26-9.81-11.86-16.42-3.47-8.84-6.95-17.68-10.43-26.53-9.73-28.61-18.66-59.15-23.36-72.04-29.66-81.29-58.08-162.97-97.13-240.44-2.34-4.65-3.84-12.32-10.07-10.47-6.04,1.79-4.33,9.29-2.83,14.27,16.48,54.68,32.05,109.68,50.18,163.81,12.88,37.34,48.24,122,66.59,173,.53,1.47,1.05,2.94,1.58,4.42,5.47,15.48,9.13,27.36,9.73,33.07-.24,1.23-.5,2.47-.62,3.66h0c-1.06-.59-2.27-1.07-3.42-1.59-12.24-12-44.54-83.43-52.3-100.32-17.4-37.87-33.01-76.57-53.75-112.85-20.42-52.23-47.99-100.77-77.1-148.47-3.42-5.61-6.35-17.58-13.23-14.02-7.14,3.69-3.12,15.16-1.09,23.11,1.32,5.16,3.89,10.01,5.92,14.99,7.41,18.18,14.54,36.48,22.3,54.51,16.4,38.14,31.4,76.95,52.41,112.96-.04,14.41,9.25,24.62,16.16,35.9,2.57,11.66,6.85,22.42,16.01,30.65-9.2-21.05-18.51-42.05-27.66-63.12,9.14,21.07,18.46,42.07,27.66,63.12,3.33,17.85,14.77,32.03,21.8,48.2,1.74,3.67,3.48,7.34,5.22,11.01,14.73,17.41,17.29,40.74,28.89,59.7.84,1.38-.79,4.27-1.27,6.46-2.36-.63-5.52-.5-6.95-2.01-17.71-18.69-30.91-40.3-40.52-64.14-14.85-25.21-29.71-50.42-44.56-75.63-2.45-2.94-4.9-5.87-7.34-8.81h0c2.45,2.94,4.9,5.87,7.34,8.81-2.28-5.13-4.11-10.52-6.91-15.35-11.97-20.66-24.22-41.15-36.36-61.71-.88-2.51-1.28-5.35-2.73-7.47-29.54-43.17-53.04-90.37-86.94-130.63-3.68-4.37-5.91-14.21-13.24-9.77-6.38,3.87-.89,11.56,1.71,16.93,16.03,33.14,31.01,66.89,49,98.95,14.51,25.86,25.36,54.01,45.05,76.86,1.72,12.68,7.53,22.97,17.87,30.62,7.32,17.04,15.53,33.59,26.81,48.43,1.27.56,2.54,1.13,3.8,1.69h0c-1.27-.56-2.54-1.13-3.8-1.69.68,2.35,1.36,4.71,2.03,7.06,10.69,18.94,21.57,37.78,31.9,56.92,1.72,3.19,21.3,27.43,24.61,36.75-.04,1.16-.12,2.33-.06,3.43-.58-.04-1.2-.03-1.83,0-7.64-2.74-28.76-32.17-31.39-35.85-43.47-60.76-86.53-121.83-130.06-182.55-30.39-42.38-59.9-85.5-96.9-122.67-2.9-2.91-6.16-6.91-10.69-3.62-4.28,3.1-2.52,7.77-.47,11.41,9.07,16.13,17.76,32.54,27.78,48.07,31.15,48.26,62.28,96.56,94.51,144.11,26.19,38.64,54.03,76.16,80.86,114.38,1.17,1.66,8.07,11.03,13.91,19.57-.96,0-1.92,0-2.87.04-2.24.07-4.44.23-6.62.47-5.61-5.96-10.76-11.46-12.46-11.48,1.01,1.22,2.02,2.44,3.04,3.65-1.02-1.21-2.03-2.43-3.04-3.65-4.23-4.15-8.46-8.3-12.69-12.44-17.35-20.31-34.7-40.62-52.06-60.92-12.5-15.61-25-31.22-37.5-46.83-8.72-14.99-20.3-27.38-34.15-37.73-.59-.59-1.17-1.18-1.76-1.77-32.06-42.49-67.06-82.26-108.04-116.45-1.99-1.66-5.88-1.04-8.89-1.48.12,3.41-1.05,7.67.56,10.09,11.39,17.09,22.67,34.34,35.28,50.53,28.01,35.96,53.04,74.37,86.37,106,11.77,15.73,22.76,32.13,35.48,47.05,21.38,25.06,40.7,52.07,66.49,73.14,1.34,1.72,2.67,3.44,4.01,5.16,1.52,3.24,3.03,6.47,4.55,9.71-3.61,2.35-7.06,5-10.36,7.9-4.08-3.45-8.17-6.89-12.25-10.34-26.99-26.88-53.98-53.75-80.97-80.63-6.53-5.94-13.06-11.88-19.58-17.82-9.02-8.45-18.04-16.9-27.07-25.36,9.02,8.45,18.05,16.9,27.07,25.35,6.53,5.94,13.06,11.88,19.58,17.82-2.19-11.09-13.2-14.28-19.45-21.73-4.17-3.59-8.35-7.17-12.52-10.76-19.73-19.71-39.03-39.88-59.31-59.02-26.89-25.37-53.01-51.71-83.77-72.61-2.86-1.94-8.43-3.8-10.39-2.4-4.48,3.2-.74,8,1.51,10.96,11.02,14.47,21.62,29.42,34.03,42.64,34.05,36.28,68.94,71.79,103.49,107.6.51.52,1.03,1.05,1.54,1.57,12.64,16.16,26.7,30.9,43.31,43.08-2.35-3-4.7-6.01-7.05-9.01-1.37-1.81-2.67-3.68-4.01-5.51,1.34,1.83,2.64,3.7,4.01,5.51,2.35,3,4.7,6.01,7.05,9.01,21.63,21.47,43.25,42.93,64.88,64.4,1.13,5.98,3.34,10.61,6.51,14.03-1.15,1.45-2.32,2.9-3.5,4.34-4.16-2.45-8.9-4.26-14.16-5.41-27.36-22.94-54.72-45.87-82.08-68.81,0,0,0,0,0,0-2.17-3.06-3.79-6.79-6.58-9.09-30.59-25.15-61.12-50.38-92.15-74.97-31.53-24.99-62.28-51.13-97.45-71.15-3.47-1.98-7.75-5.67-11.27-1.69-3.48,3.93.39,7.96,2.99,10.99,6.62,7.67,13.12,15.56,20.57,22.38,44.64,40.86,89.12,81.94,134.69,121.74,9.93,8.68,18.24,20.89,32.83,23.57,29.76,25.2,59.53,50.41,89.29,75.62-1.53,1.45-3.05,2.91-4.53,4.42-2.21,2.26-4.32,4.59-6.36,6.98-32.75-22.98-65.5-45.96-98.26-68.94-3-2.83-5.67-6.17-9.06-8.42-22.26-14.73-45.33-28.34-66.9-44-37.62-27.33-76.89-51.95-117.02-75.29-5.91-3.44-15.41-9.19-19.35-2.79-4.47,7.25,4.64,13.38,10.62,18.19,28.48,22.9,56.18,46.88,85.82,68.18,22.04,15.84,42.1,34.85,67.39,46,6.63,7.49,12.59,15.84,23.36,17.94,7.52,5.86,12.93,14.69,23.32,16.48,24.45,17.25,48.89,34.5,73.34,51.75h0c2.81,3.14,5.42,5.91,7.89,8.38-1.46,2.61-2.86,5.26-4.21,7.93-3.28-1.93-7.35-3.79-12.4-5.67-3.39-.96-7.19-1.23-10.09-2.99-18.88-11.38-37.56-23.07-56.31-34.67-10.24-4.24-16.28-15.92-28.75-16.21,1.25.44,2.43,1,3.58,1.63-1.14-.63-2.33-1.19-3.58-1.63-1.77-.58-3.55-1.16-5.32-1.74-9.56-10.93-23.44-14.72-35.34-21.82-56.35-33.63-114.39-63.87-174.16-90.86-4.08-1.84-9.41-4.25-12.29.18-3.07,4.73,2.72,7.02,5.64,9.57ZM1743.34,822.56c3.99-13.13,7.98-26.26,11.98-39.39,3.24-21.48,9.43-42.16,15.94-62.75-6.51,20.59-12.71,41.27-15.94,62.75-3.99,13.13-7.99,26.26-11.98,39.39,0,0,0,0,0,0ZM1741.19,834.66c.01.83.02,1.67.03,2.5,0,0,0,0,0,0-.01-.83-.02-1.67-.03-2.5,0,0,0,0,0,0ZM1741.11,919.57h0s-.02,0-.02,0c0,0,.02,0,.02,0ZM1719.64,793.98h0c.76,7.14.58,14.14-.18,21.06,0,0,0,0,0,0,.75-6.92.94-13.92.18-21.07ZM1714.18,829.81h0c-.22,1.81-.5,3.61-.81,5.4,0,0,0,0,0,0,.31-1.79.59-3.6.81-5.41ZM1683.61,1023.54s0,0,0,0c-1.58,4.41-4.42,6.51-7.78,7.12,3.36-.61,6.2-2.7,7.78-7.12ZM1666.52,823.41c-.27,3.35-.48,6.7-.73,10.05.2,10.13.36,20.26.57,30.38-.2-10.13-.36-20.26-.57-30.38.26-3.35.46-6.7.73-10.05ZM1608.02,708.85c.66,1.36,1.55,2.69,2.31,4.04-.76-1.35-1.65-2.68-2.31-4.04h0ZM1507.96,925.1c2.21-5.3,3.59-11.65,8.11-14.95-4.51,3.3-5.9,9.64-8.1,14.95-4.48,12.61-10.29,24.78-14.08,37.61,3.79-12.83,9.6-25,14.08-37.61ZM1486.27,982.35s0,0,0,0c-.5,2.55-.99,5.1-1.49,7.65.5-2.55.99-5.1,1.49-7.65ZM1484.51,991.36h0c.41-.67.93-1.38,1.48-2.08-.55.71-1.07,1.41-1.48,2.08-6.57,4.17-13.66,7.78-20.24,11.94,6.58-4.16,13.67-7.77,20.24-11.94ZM1380.3,772.18c-1.86-7.03-3.43-14.15-5.29-21.18-10.89-23.22-18.69-47.41-25.27-71.99,6.58,24.57,14.39,48.77,25.27,71.99,1.86,7.02,3.44,14.15,5.29,21.18.74,2.81,1.53,5.6,2.41,8.37-.87-2.76-1.66-5.56-2.41-8.37ZM1391.22,738.37c-1.22-3.11-2.41-6.23-3.6-9.36,1.19,3.12,2.39,6.24,3.6,9.36.89,2.69,1.78,5.39,2.67,8.08-.89-2.69-1.78-5.39-2.67-8.08ZM1318.93,973.86h0c-5.34-7.9-10.68-15.79-16.02-23.68,5.34,7.89,10.68,15.79,16.02,23.68ZM1299.61,946.85c-10.79-15.55-21.58-31.1-32.37-46.65-30.07-42.14-59.74-84.55-87.09-128.5,27.35,43.95,57.01,86.36,87.09,128.5,10.79,15.55,21.58,31.1,32.37,46.65,3.77,9.58,8.32,18.54,13.73,26.8h0c-5.42-8.26-9.96-17.22-13.73-26.8ZM1258.21,966.57s0,0,0,0c.06-1.01.11-2.01.17-3.02-.05,1.01-.11,2.02-.16,3.02ZM1258.43,962.63h0s.01,0,.01,0c0,0,0,0-.01,0ZM1272.58,984.13s0,0,0,0c-.65-.51-1.3-1.02-1.95-1.53,0,0,0,0,0,0,.65.51,1.3,1.02,1.95,1.53ZM1116.54,858.98c-16.08-14.17-32.12-28.39-48.24-42.52,16.12,14.13,32.16,28.35,48.24,42.52.29.28.59.56.88.84-.29-.28-.59-.56-.88-.84ZM1237.96,1017.15c-.38-.23-.76-.45-1.14-.67h0c.38.22.76.44,1.15.67ZM1085.8,914.24c-7.19-1.86-12.81-6.07-18.2-10.62,5.4,4.55,11.01,8.76,18.2,10.62,7.71,5.86,15.41,11.73,23.12,17.59-7.71-5.86-15.41-11.73-23.12-17.59Z"/>
  <path class="cls-1" d="M1961.62,840.72c-16.04,18.69-33.1,36.71-47.1,56.85-6.67,9.6-6.28,23.49,5.38,32.17,6.69,4.98,14.4,3.07,19.24-3.15,17.81-22.89,21.05-51.89,33.35-76.28-1.96-5.04-2.85-8.43-4.69-11.19-.42-.63-4.98.19-6.18,1.59Z"/>
  <path class="cls-1" d="M2581.65,1113.3c.73-4.67-1.62-7.66-9.91-12.4,4.12,7.08,6.03,10.37,7.94,13.66.69-.42,1.9-.75,1.98-1.26Z"/>
  <path class="cls-1" d="M1789.52,824.21c-.39,7.02.82,13.45,8.07,16.47,6.99,2.91,11.96-1.29,16.62-5.76,21.87-20.98,23.79-51.13,34.2-77.13,15.29-38.19,25.35-78.46,39.82-117.02,10.76-28.68,18.79-57.84,24.61-87.75.73-3.77,1.27-8.7-3.14-10.22-5.15-1.77-5.75,3.86-7.77,6.85-21.7,32.13-33.85,68.68-47.81,104.34-16.97,43.36-34.44,86.58-49.6,130.58-4.62,13.43-16.34,24.16-15.01,39.65Z"/>
  <path class="cls-1" d="M1852.07,805.47c-5.02,9.66-12.27,19.35-.82,27.5,11.8,8.39,23.7,2.77,29.53-8.66,14.3-28.07,27.2-56.86,40.07-85.63,14.97-33.46,29.81-67,43.75-100.9,8.02-19.49,14.15-39.76,21.46-60.61-1.45-2.86-2.96-5.82-4.46-8.79-2.84,1.86-6.57,3.09-8.38,5.67-31.78,45.14-53.79,95.58-78.09,144.77-14.28,28.92-28.18,58.03-43.05,86.65Z"/>
  <path class="cls-1" d="M2108.97,792.56c3.87,8.5-1.4,23.52-9.5,34.05-1.29,1.68-1.02,4.11.69,5.38,1.25.93,2.46,1.97,3.6,3.19,2.8,2.98,6,5.58,9.67,7.36.75.36,1.33.81,1.85,1.28,1.67.79,3.27,1.73,4.66,2.54,40.99,23.94,81.5,48.73,122.64,72.4,13.76,7.92,30.66,9.7,42.09,22.7,8.27,9.4,16.52,17.67,13.46,32.04-1.52,7.15,13.43,17.48,15.5,17.81-.13-.09-.27-.19-.41-.29,1.26.77,2.45,1.02,3.89,1,4.13-.06,9.08-3.08,12.24-9.43-2.25,4.52-4.68,7.86-7.38,9.43,2.23-.04,4.48-.23,6.71-.47-.02.03-.03.06-.04.09.05,0,.09-.02.14-.03,1.18-.37,4.6-6.24,5.57-9.04,5.71-16.6,1.89-31.42-7.3-45.99-6.47-10.26-11.65-21.45-16.41-32.65-13.19-31.03-29.83-59.83-52.68-84.83,1.92,3.43,3.46,7.18,5.5,10.5-2.04-3.32-3.58-7.06-5.5-10.49-12.18-14.33-24.89-27.03-45.8-28.02-7.38-.35-11.47-7.78-11.67-15.98-.27-10.74,0-21.58-1.4-32.2-4.71-35.95-32.93-49.12-64.19-30.4-32.06,19.2-41.03,46.88-25.95,80.02ZM2276.69,930.4c2.3,1.44,4.41,2.99,6.35,4.64-1.94-1.65-4.05-3.2-6.35-4.64ZM2274.59,849.71c.92,1.23,1.87,2.42,2.85,3.57.47.55.93,1.12,1.39,1.68-.46-.56-.92-1.13-1.39-1.68-.98-1.15-1.93-2.34-2.85-3.57ZM2315.54,926.77c-4.58-6.8-8.17-14.12-11.44-21.61,3.27,7.49,6.86,14.81,11.44,21.61h0ZM2330.31,954.4c-3.77-9.5-10.54-18.26-14.78-27.65,0,0,0,0,0,0,4.25,9.39,11.01,18.15,14.78,27.66ZM2315.51,926.7s0,0,0,0c-10.84-31.78-24.33-62.13-45.37-88.55,21.04,26.42,34.53,56.76,45.37,88.55ZM2213.79,898.44c1.74,1.46,3.53,2.82,5.36,4.1-1.83-1.28-3.62-2.64-5.36-4.1-.46-.39-.94-.77-1.42-1.15.48.37.95.75,1.42,1.15ZM2206.03,892.65s0,0,0,0c0,0-.04-.04-.04-.04l.05.04ZM2196.38,752.46c.04-.89.06-1.78.08-2.68-.01.9-.04,1.79-.08,2.68-.1,2.41-.15,4.74-.15,6.97,0-2.24.05-4.56.15-6.97ZM2193.51,728.02c-.38-1.07-.81-2.11-1.29-3.12.48,1.01.9,2.05,1.29,3.12ZM2169.75,708.59c1.56.26,3.03.6,4.42,1-1.39-.4-2.86-.74-4.42-1-5.06-.85-9.8-.9-14.25-.27,4.45-.63,9.19-.59,14.25.27ZM2132.99,718.21c-1.11.86-2.2,1.75-3.27,2.69,1.07-.93,2.16-1.83,3.27-2.69ZM2121.4,843.18c-1.22-.37-2.4-.75-3.51-1.16,1.11.41,2.29.79,3.51,1.16ZM2114.09,840.46c1.1.51,2.27,1,3.51,1.46-1.24-.46-2.41-.95-3.51-1.46Z"/>
  <path class="cls-1" d="M2350.95,1013.44c-.41.27-.84.51-1.28.72-.09.05-.19.09-.29.14-.24-.06-4.19,1.18-4.42,1.12-3.73.19-7.46.49-11.22.93-8.93,1.05-73.23-62.48-84.84-69.62-45.89-28.22-91.34-57.16-136.87-85.97-2.67-1.69-6.07-3.52-8.21-5.89-3.96-2.88-7.69-6.05-11.52-9.12-4.15-3.32-9.01-5.15-13.78-7.32-8.81.57-13.2,7.36-19.59,11.47-2.3,3.56-4.61,7.12-6.92,10.68-2.1,2.86-4.05,5.84-6.31,8.57-6.24,7.51-12.72,18.21-23.6,8.33-10.18-9.25-3.9-19.8,3.67-27.35,7.69-7.67,17.2-13.52,25.91-20.16h0c9.48-2.55,14.08-8.93,13.36-18.54-.73-9.72-5.99-16.35-15.89-17.91-11.03-1.74-18.23,3.61-24.48,12.68-26.15,37.92-32.47,83.81-50.73,124.88-3.55,7.99-2.65,17.3,4.8,24.04,7.37,6.67,15.74,5.72,24.44,2.89,18.23-5.93,33-17.6,48.67-28.02,15.02-10,24.35-3.8,24.57,13.39.24,18.16-1.32,36.22,1.5,54.45,1.58,10.18-4.06,16.51-16.22,15.75-51.61-3.23-95.87-25.86-138.81-51.95-20.44-12.42-39.77-24.79-36.79-54.6,2.49-24.93-13-42-34.17-43.08-29.13-1.49-58.16,17.36-57.96,40.81.19,21.42-10.44,32.77-27.86,38.8-15.46,5.36-25.19,14.03-31.2,25.16-10.53,11.09-8.6,25.63-8.8,39.22-.04,1.14-.08,2.28-.11,3.43-.21,9.57-2.45,14.95,2.27,20.56,1.31,1.55,35.39-30.43,44.91-43.93,5.24-7.43,13.41-12.39,23.08-11.32,5.41.6,7.34,5.81,7.45,10.93.21,10.58-5.27,17.1-14.85,21.17-6.01,2.55-11.95,5.72-17.15,9.64-29.05,21.85-57.89,43.98-86.74,66.09-4.37,3.35-8.69,7.12-14.5,4.27-6.01-2.96-4.48-8.54-3.31-13.46,1.78-7.55-2.41-12.51-6.87-17.48-21.19-11.24-40.17-23.63-32.34-52.87,2.46-9.19,3.63-18.76,4.91-28.22,3.89-28.76-14.51-49.87-43.39-50.03-35.61-.2-60.39,24.48-61.89,61.63-.59,14.46-2.83,27.58-17.74,35.43-48.67,25.64-75.09,101.06-53.62,152.32,4.34,10.35,11.3,16.46,23.1,9.19-.35-.02-.7-.05-1.05-.07.35.02.7.04,1.05.07,15.19-12,27.82-31.43,48.08-31.37,26.28.08,47.66-7.27,66.61-24.33,10.07-2.2,14.05-11.44,20.64-17.69,4.83-4.58,10.82-7.62,16.68-2.13,6.33,5.92,2.5,11.56-2.34,16.12-9.1,8.56-18.52,16.79-27.81,25.16,4.1-3.23,8.26-6.39,12.41-9.57-4.15,3.18-8.31,6.34-12.41,9.57-5.42,4.8-10.85,9.6-16.27,14.4-11.3,4.61-18.95,13.14-24.96,23.39-20.99,23.83-29.47,58.48-58.49,74.62-28.68,15.95-39.38,35.25-28.6,67.22,3.01,8.94-6.39,16.64-16.42,17.46-21.97,1.8-44.02,3.43-66.04,3.53-12.95.06-26.67-6.07-26.91-19.98-.41-24.03-4.86-50.24,16.96-69.27t0,0c.55-.63,1.11-1.25,1.66-1.88-.54-.57-1.07-1.14-1.61-1.71-.62.19-1.25.37-1.87.55.62-.19,1.25-.37,1.87-.56,13.9-9.96,28.39-18.39,45.53-22.04,8.25-1.76,15.59-6.51,16.99-16.32.86-6.07-.46-11.53-6.21-14.65-8.4-4.57-16.8-3.45-24.65,1.47-7.55,4.75-14.43,10.75-22.36,14.66-8.08,3.98-16.78,3.82-18.15-7.85-2.68-22.92-12.85-41.73-28.3-58.48-7.65-8.3-9.36-19.01-.92-27.58,17.03-17.3,18.42-38.83,18.09-60.81-.36-23.85-16.29-32.76-36.91-32.08-31.74,1.04-53.1,26.11-48.45,57.36,3.82,25.63-7.37,31.26-29.23,27.19-14.7-2.74-24.44,2.54-28.84,17.05-1.5,33.2-16.91,64.58-12.64,98.58,1.01,8.01-1.17,15.31-8.62,20.27q-29.41,19.58-.27,39.11c2.18,8.38,4.3,18.47-4.99,22.33-18.16,7.54-37.28,12.75-56.01,18.92-20.06-14.06-31.62,2.37-44.93,12.52t0,0c-25.11,17.36-50.21,34.72-75.32,52.09h0c-11.99,1.97-19.55,9.62-25.26,19.66-1.15,1.22-2.31,2.45-3.46,3.67-6.37,6.29-5.96,18.56-17.71,20.11l-.26-.41c-11.56,5.2-16.08,14.43-14.64,26.63,1,8.49,7.3,10.77,14.73,11.21,12.51-1.79,19.29-11.37,26.92-19.8,9.55-1.21,19.11-2.42,28.66-3.63,31.43-7.45,64.29-7.35,95.13-17.94,7.17-1.79,14.35-3.57,21.52-5.36,3.56-.04,7.12-.08,10.68-.11,6.82-4.2,13.99-5.97,21.31-6.71-7.32.74-14.49,2.51-21.31,6.71,6.75-1.07,13.53-1.97,20.25-3.24,13.53-2.57,28.71,6.71,40.86-5.66,7.76-1.84,15.51-3.68,23.27-5.52.02-1.14.05-2.29.07-3.43,29.66-5.41,59.28-11.05,88.99-16.19,46.74-8.08,94.11-13.38,140.19-24.24,88.24-20.8,175.78-44.6,263.57-67.31,46.48-12.03,92.37-25.98,137.31-42.96,73.2-29.51,137.54-74.16,198.06-123.24,63.65-51.61,130.48-93.65,212.78-106.49,6.6-.93,13.31-1.39,19.77-2.9-6.46,1.52-13.17,1.97-19.77,2.9,7.15,0,14.33-.37,21.45.06,7.89.48,18.75-3.65,21.92,6.79,3.32,10.94-9.92,9.42-14.69,14.62,3.06-.68,6.25-1.22,9.24-1.86-2.99.65-6.18,1.19-9.24,1.86-46.82,10.55-92.02,25.97-132.1,52.58-73.21,48.61-142.43,103.1-217.91,148.41-5.36,3.27-10.46,7.07-16.11,9.71-58.01,27.17-119.15,45.02-180.73,62-68.86,18.98-138.29,35.39-207.8,51.67-108.25,25.36-217.67,44.54-327.06,63.83-34.93,6.16-70.54,8.41-105.73,13.24-6.49.89-18.02,1.15-17.58,8.82.47,8.11,11.75,6.88,18.81,7.85,39.34,5.41,79.29,4.9,118.37,13.42,57.31,12.5,114,12.66,167.38-11.07,6.38-2.84,29.13-20.14,29.13-20.14,0,0,6.3,4.13,12.05,9.45,7.66,7.08,20.73,11.84,21.21,12.03,3.22,1.5,6.32,3.97,9.67,4.36,60.73,7.11,118.34-7.3,175.32-25.83,0,0,0,0,0,0,7.73-1.8,15.46-3.61,23.19-5.42,21.21-3.18,41.29-10.18,61.16-17.92,28.72-9.1,57.2-18.8,84.21-32.34,0,0,0,0,0,0,5.38-1.22,10.76-2.44,16.14-3.66,0,.61.02,1.23.03,1.84,26.17-11.42,52.26-23,78.51-34.21,50.97-21.75,101.81-43.82,153.11-64.75,39.99-16.31,79.67-33.32,120.68-47.27,35.77-12.16,76.51-13.4,97.89-49.98,2.92-4.99,7.55-16.48,7.55-16.48,0,0,9.55,2.02,14.46,5.16,25.66,16.42,53.75,26.86,83.56,32.71,11.43,2.24,21.31-.87,26.66-11.6,9.57-19.19,23.48-37.49,24.8-59.09,1.26-20.64,16.15-40.64,4.31-61.87-21.94-39.35-53.93-66.31-96.86-79.78ZM2051.65,828.13c0,.61.02,1.23.02,1.84-.49-.88-.36-.65-.85-1.51.28-.11.55-.23.83-.33ZM1997.78,878.33c-1.64,6.44-3.56,12.78-5.75,19,2.19-6.23,4.11-12.56,5.75-19,3.59-11.37,7.18-22.73,10.77-34.1-3.59,11.37-7.18,22.73-10.77,34.1ZM2037.41,882.31c.88-.66,1.77-1.4,2.67-2.25-.89.84-1.78,1.59-2.67,2.25ZM1620.95,1016.62c.04-.63.08-1.26.12-1.9-.04.63-.08,1.27-.12,1.9.16,3.95.86,7.47,1.99,10.67-1.13-3.2-1.83-6.73-1.99-10.67ZM1178.82,1427.46c1.94-.06,3.89-.08,5.84-.09-1.95,0-3.9.03-5.84.09ZM1414.51,1380.97c-29.7,5.17-59.4,10.35-89.1,15.52,29.7-5.17,59.4-10.35,89.1-15.52,2.41.18,4.79.25,7.16.23-2.36.02-4.75-.05-7.16-.23ZM1425.26,1357.43h0c-14.34.61-28.68,1.22-43.03,1.83h0c-3.45-1.43-6.87-2.9-10.1-4.6,3.23,1.71,6.65,3.18,10.1,4.6,14.34-.61,28.68-1.22,43.03-1.83,6.49-.56,12.98-1.12,19.47-1.67-6.49.56-12.98,1.12-19.47,1.67ZM1445.03,1355.73c2.92.07,5.86.21,8.76.22-2.9,0-5.84-.15-8.76-.22ZM1673.91,1132.52c-1.18.43-2.21.97-3.13,1.58.92-.61,1.95-1.15,3.13-1.58ZM1759.9,1231.56c-6.75,4.47-14.68,3.23-19.71-2.54-11.27-12.93-25.47-17.1-41.86-18.92-16.28-1.81-29.68-33.46-23.27-56.94,6.03-22.08,24.71-16.61,40.23-14.29,19.15,2.85,45.62,35.98,45.43,60.43.24,1.42,1.16,7.87,2.46,14.25,1.33,6.54,3.38,13.6-3.28,18.02ZM1845.23,1269.55h0l2.54-.52c-.85.17-1.69.35-2.54.52ZM1922.43,1233.73c-7.81,4.74-15.61,9.48-23.42,14.22-2.97,1.23-5.93,2.46-8.9,3.7-9.01,4.75-18.02,9.51-27.03,14.26,9.01-4.75,18.02-9.51,27.03-14.26,2.97-1.23,5.93-2.46,8.9-3.7,0,0,0,0,0,0,7.81-4.74,15.61-9.48,23.42-14.22,21.87-12.77,43.55-25.84,64.73-39.63-21.19,13.79-42.86,26.85-64.73,39.63ZM2072.37,1108.88c-30.3,25.08-61.99,48.5-93.51,72.06-4.43,3.31-11.11,3.61-13.05,4.2-24.01.56-23.33-16.14-25.85-28.25-4.04-19.46-10.46-50.63-10.97-55.81-1.81-18.22,3.54-36.98-4.32-54.76-4.07-9.2-10.56-20-1.11-28.13,9.44-8.12,21.36-2.11,30.21,3.02,32.53,18.89,67.87,26.66,104.74,29.49,10.5.81,20.78,2.26,24.21,14.43,4.63,16.4,2.67,32.96-10.35,43.74ZM2222.11,933.99c-18.94-13.08-38.94-24.53-58.76-36.28,19.81,11.75,39.82,23.21,58.76,36.28,3.34,1.71,6.65,3.42,9.87,5.19-3.22-1.77-6.53-3.48-9.87-5.19ZM2239.32,943.44c1.64,1.02,3.23,2.07,4.78,3.15-1.55-1.08-3.14-2.14-4.78-3.15ZM1452.29,1461.26s0,0,0,0h0c2.07,2.9,4.31,5.38,6.7,7.49-2.39-2.11-4.63-4.59-6.7-7.49ZM2247.22,1220.95c0,.64.02,1.28.02,1.92,0-.64-.02-1.28-.02-1.92h0ZM2247.24,1222.9c-5.35,2.23-10.66,4.59-15.98,6.93,5.32-2.33,10.63-4.69,15.98-6.93h0ZM2277.92,1196.95c-.51.85-1.03,1.69-1.56,2.51.53-.82,1.05-1.65,1.56-2.51.49-.83.99-1.62,1.5-2.36-.5.74-1,1.53-1.5,2.36ZM2301.94,1185.64c2.74.99,5.61,2.54,8.65,4.6-3.03-2.06-5.91-3.61-8.65-4.6ZM2321.36,1024.04c1.97-2.01,5.93-2.89,9.25-3.27-3.31.38-7.28,1.26-9.25,3.27ZM2390.91,1039.78c17.09,6.8,30.4,21.18,38.88,39.3-8.48-18.11-21.8-32.5-38.88-39.3-9.5-8.92-20.23-14.37-31.8-17.13,11.57,2.76,22.3,8.21,31.8,17.13ZM2429.26,1178.43c-1.78,3.75-3.41,7.56-5.01,11.4,1.59-3.84,3.23-7.65,5.01-11.4ZM2419.69,1201.52c-3.57,16.86-14.06,24.36-30.7,20.28-9.05-2.22-18.03-4.64-26.87-7.46,8.83,2.82,17.82,5.24,26.87,7.46,16.64,4.08,27.13-3.42,30.7-20.28h0c13.42-17.21,20.51-36.71,23.65-56.76-3.13,20.06-10.22,39.55-23.65,56.76Z"/>
  <path class="cls-1" d="M959.28,1436.66c10.05-13.1,8.05-27.74,2.62-40.95-8.33-20.26-5.73-39.79-.11-59.45,1.83-6.4,4.11-15.93,12.9-14.79,7.9,1.02,6.76,10.15,7.53,16.42.87,7.08,1,14.25,1.45,21.38,2.27-7.07,2.58-14.12,1.9-21.09.69,6.97.37,14.02-1.9,21.09-.56,3-1.13,5.99-1.69,8.99.66,7.14-2.32,15.51,6.09,20.13,5.03,2.76,9.44,0,13.05-3.19,4.67-4.13,8.8-8.86,13.17-13.34h0s0,0,0,0c3.13-1.69,6.3-3.31,9.39-5.07,41.84-23.88,78.02-57.68,125.61-71.55,5.1-1.49,7.26-6.75,6.18-11.71-2.8-12.8-7.25-25.03-15.63-35.44-1.78-2.39-3.57-4.79-5.35-7.18,0-1.77-.02-3.54-.03-5.3-3.11-4.09-6.22-8.17-9.32-12.26-8.85-7.25-17.7-14.49-26.55-21.74-13.88-4.92-15.49-15.18-13.36-28.15,5.39-32.87-14.22-69.48-37.07-70.31-32.95-1.19-62.24,38.71-48.05,68.51,11.1,23.31,4.97,35.69-17.42,43.91-4.69,1.72-8.86,4.87-13.27,7.36-1.2,0-2.39,0-3.59-.01-11.01,8.96-17.87,20.53-21.57,34.11-8.17,8.99-11.25,19.82-12.64,31.69-5.13,43.81-3.79,87.84-5.13,131.78,1.18,7.69,2.36,15.38,3.53,23.06,10.94,2.8,21.3,3.46,29.23-6.89ZM960.57,1235.56h0s-.07-.05-.13-.09l.13.09Z"/>
  <path class="cls-1" d="M536.88,1976.68c-12.89,8.29-24.78,24.29-41.23,5.39,9.23,18.05,24.1,16.11,41.23-5.39Z"/>
  <path class="cls-1" d="M529.81,2155.93c10.38,16.33,22.53,20.76,37.61,5.62-14.44,10.89-26.28,4.34-37.61-5.62Z"/>
  <path class="cls-1" d="M578.23,2152.57c11.9-7.52,27.3-12.91,19.69-32.31,2.6,16.36-10.53,23.12-19.69,32.31Z"/>
  <path class="cls-1" d="M558.45,2069.98c-6.21-9.42-6.27-18.43,1.79-26.89-12.95,8.14-11.56,17.24-1.79,26.89Z"/>
  <path class="cls-1" d="M714.65,1922.93c-9.59,7.15-19.19,14.29-28.78,21.44,10.66-5.72,21.67-10.95,28.78-21.44Z"/>
  <path class="cls-1" d="M1274.21,1988.28c-5.54.21-7.33,5.1-7.93,9.48-3.38,24.74-6.99,49.48-9.27,74.33-.87,9.49,3.23,18.13,15.27,17.63,13.31-.55,19.71-8.24,20.32-19.75-3.22-25.09-6.09-48.7-9.39-72.25-.66-4.74-3.01-9.67-9-9.44Z"/>
  <path class="cls-1" d="M1033.25,1904.12c-5.94-4.04-12.49-3.83-18.75-.75-7.7,3.78-9.83,10.5-9.34,18.67,1.05,17.54,1.84,35.1,2.77,53.28-.88,15.19-1.27,30.99-2.94,46.64-.8,7.47-2.51,14.6,5.19,19.02,7.78,4.47,14.39.41,20.36-4.46,9.4-7.67,7.05-18.08,6.45-28.2-1.68-28.27-2.94-56.56.79-84.76.97-7.29,2.79-14.47-4.52-19.45Z"/>
<!-- Code injected by live-server -->
<script>
	// <![CDATA[  <-- For SVG support
	if ('WebSocket' in window) {
		(function () {
			function refreshCSS() {
				var sheets = [].slice.call(document.getElementsByTagName("link"));
				var head = document.getElementsByTagName("head")[0];
				for (var i = 0; i < sheets.length; ++i) {
					var elem = sheets[i];
					var parent = elem.parentElement || head;
					parent.removeChild(elem);
					var rel = elem.rel;
					if (elem.href && typeof rel != "string" || rel.length == 0 || rel.toLowerCase() == "stylesheet") {
						var url = elem.href.replace(/(&|\?)_cacheOverride=\d+/, '');
						elem.href = url + (url.indexOf('?') >= 0 ? '&' : '?') + '_cacheOverride=' + (new Date().valueOf());
					}
					parent.appendChild(elem);
				}
			}
			var protocol = window.location.protocol === 'http:' ? 'ws://' : 'wss://';
			var address = protocol + window.location.host + window.location.pathname + '/ws';
			var socket = new WebSocket(address);
			socket.onmessage = function (msg) {
				if (msg.data == 'reload') window.location.reload();
				else if (msg.data == 'refreshcss') refreshCSS();
			};
			if (sessionStorage && !sessionStorage.getItem('IsThisFirstTime_Log_From_LiveServer')) {
				console.log('Live reload enabled.');
				sessionStorage.setItem('IsThisFirstTime_Log_From_LiveServer', true);
			}
		})();
	}
	else {
		console.error('Upgrade your browser. This Browser is NOT supported WebSocket for Live-Reloading.');
	}
	// ]]>
</script>
</svg>