<?xml version="1.0" encoding="UTF-8"?>
<svg id="Layer_1" data-name="Layer 1" xmlns="http://www.w3.org/2000/svg" version="1.1" viewBox="0 0 3443.41 2492.16">
  <defs>
    <style>
      .cls-1 {
        fill: #5a5a5a;
        stroke-width: 0px;
      }
    </style>
  </defs>
  <path class="cls-1" d="M466.56,453.19c8.71,14.69,21.74,22.03,32.92,31.07,43.95,35.53,88.08,70.84,132.65,105.59,10.46,8.16,22.74,13.93,31.6,24.3,4.22,4.93,8.51,9.55,6.66,16.56-4.2,6.33-10.95,8.08-16.93,7.54-24.07-2.18-46.45,6.62-69.64,9.89-12.77,1.8-24.96,1.94-37.79.21-49.86-6.74-93.52-27.24-133.67-56.74-24.53-18.02-49.95-34.83-74.67-52.59-30.89-22.19-61.34-44.97-92.22-67.18-21.63-15.55-44.02-30.05-65.41-45.91-51.44-38.15-106.68-71.45-151.76-117.76-23.79-24.44-31.73-51.91-18.89-85.39,16.39-42.75,41.79-79.75,69.15-115.66,18.11-23.77,37.01-46.95,59.2-67.21,9.47-8.64,19.69-15.93,30.89-22.21,22.37-12.54,44.88-11.71,67.88-2.35,20.21,8.23,37.92,20.73,55.41,33.29,50.52,36.29,100.72,73.04,150.75,110.01,20.92,15.46,40.85,32.26,61.66,47.89,28.42,21.34,57.65,41.62,85.8,63.31,29.64,22.84,60.97,43.63,86.77,71.27,35.13,37.62,55.56,81.62,59.39,133.07.86,11.56,4.47,22.4,7.5,33.42,1.35,4.89,3.28,9.79,3.59,14.76.7,11.05-7.54,16.89-17.42,11.77-8.98-4.65-17.64-10.37-25.38-16.88-32.69-27.44-70.37-47.6-104.75-72.51-23.22-16.83-48.56-30.16-72.18-46.26-3.99-2.72-7.73-6.49-14.94-5.25,9.51,12.38,21.88,19.93,33.15,28.44,42.05,31.76,84.15,63.5,126.93,94.26,28.34,20.38,57.83,39.19,86.91,58.54,32.25,21.47,64.24,43.31,93.41,68.89,16.87,14.8,25.24,14.24,36.09-4.39,15.67-26.92,29.98-54.67,46.59-80.99,24.72-39.15,44.58-81.49,72.91-118.14,31.37-40.59,72.75-64.4,125.92-64.38,388.37.12,776.74-.02,1165.11.15,65.61.03,111.18,33.82,143.56,88.3,15.89,26.74,31.15,53.84,47.02,80.6,17.81,30.03,36.85,59.33,52.78,90.46,1.16,2.27,2.2,4.6,3.49,6.79,8.51,14.4,18.79,17.21,30.95,5.79,17.73-16.65,37.71-30.14,57.1-44.49,28.1-20.8,57.63-39.5,86.68-58.91,23.77-15.88,46.88-32.76,69.87-49.75,37.8-27.93,75.3-56.26,112.85-84.54,4.36-3.29,8.18-7.3,10.48-13.79-9.16,4.77-18.81,8.79-27.39,14.43-30.16,19.81-59.92,40.23-89.92,60.29-10.04,6.71-20.59,12.67-30.46,19.6-18.19,12.78-36.1,25.94-53.99,39.14-4.13,3.04-7.86,6.32-13.38,6.61-10.39.54-16.05-5.63-12.2-15.35,6.44-16.23,7.54-33.14,10.01-50.14,7.09-48.8,25.72-92.53,60.7-128.82,26.24-27.22,57.01-48.56,86.7-71.35,38.25-29.36,76.55-58.65,115.29-87.35,26-19.26,52.1-38.37,78.03-57.73,42.75-31.92,86.19-62.97,130.24-93.06,19.24-13.14,39.59-25.3,65.02-23.97,12.53.66,23.78,3.24,34.33,9.73,20.77,12.76,39.38,28.24,54.99,46.82,31.9,37.97,62.12,77.24,87.08,120.29,10.95,18.89,19.37,38.99,22.55,60.4,3.49,23.59-7.84,43.18-22.58,60.58-20.79,24.54-47.82,41.72-73.28,60.69-33.56,25-67.14,49.97-101.1,74.42-28.83,20.76-58.49,40.38-87.28,61.21-40.62,29.38-82.73,56.67-122.4,87.39-42.14,32.63-89.94,51.96-142.5,59.77-17.37,2.58-34.26-1.47-50.89-5.36-14.96-3.5-29.76-6.44-45.22-5.66-8.99.45-17.93-.24-24.34-9.47.62-10.99,8.2-18.06,16.66-23.47,40.79-26.11,76.84-58.41,115.25-87.61,25.62-19.48,49.4-41.37,73.94-62.14-2.57-4.85-5.68-3.22-8.06-1.51-51.57,36.97-103.09,74.01-154.58,111.09-36.09,25.98-69.55,55.33-104.94,82.18-28.82,21.87-58.59,42.49-87.87,63.76-15.41,11.2-15.53,16.88-5.36,32.86,20.47,32.16,40.2,64.8,59.85,97.47,18.33,30.46,36.13,61.25,54.23,91.84,22.31,37.7,44.66,75.38,67.08,113.02,23.07,38.72,46.94,76.98,69.1,116.22,11.25,19.92,24.73,38.51,34.34,59.42,6.23,13.57,10.01,27.4,10.03,42.28,0,5.09-.51,10.26.17,15.26,4.36,32.32-8.27,60.05-24.04,86.54-39.98,67.15-80.81,133.79-120.77,200.95-28.6,48.07-55.65,97.07-84.72,144.85-16.49,27.1-31.28,55.31-50.59,80.72-9.12,12-7.73,19.15,5.77,25.75,12.88,6.3,15.3,16.07,13.33,28.32-4.49,27.86-1.26,55.89-2.36,83.82-.3,7.67,3.67,13.05,8.67,18.33,14.56,15.38,32.95,25.85,49.39,38.8,22.91,18.05,47.05,34.49,70.06,52.5,20.93,16.38,43.66,30.44,65.18,46.08,12.3,8.94,24.02,18.71,35.56,28.62,16.22,13.93,24.96,13.32,37.52-3.78,10.54-14.34,20.9-28.82,31.31-43.26,12.48-17.31,22.83-19.38,39.92-6.91,9.73,7.1,19.19,14.74,27.9,23.05,10.63,10.13,11.21,14.39,2.87,26.38-11.96,17.2-25.05,33.61-37.37,50.57-23.15,31.84-46.02,63.88-69.17,95.72-11.58,15.93-23.23,31.82-35.39,47.31-10.36,13.2-20.84,14.56-34.65,4.76-9.31-6.61-18.39-13.65-26.91-21.23-13.56-12.07-14.29-19.85-3.43-34.19,11.12-14.69,22.65-29.07,34.21-43.41,10-12.4,10.08-20.33-2.44-30.96-11.59-9.85-24.33-18.34-36.64-27.34-38.95-28.46-77.98-56.8-116.86-85.35-10.49-7.71-17.76-20.7-33.58-19.72-7.85,3.94-6.74,11.57-6.36,18.3,1.82,32.35-2.21,64.82,2.9,97.16,2.63,16.59-7.69,28.22-26.06,31.53-29.37,5.29-58.94,9.54-88.24,15.16-32.44,6.22-65.1,10.98-97.66,16.4-9.6,1.6-18.58,2.17-28.21.19-11.95-2.46-24.06-3.03-33.8,7.22-3.51,3.69-8.52,5.53-13.64,6.43-51.29,9.05-102.75,17.21-153.82,27.39-44.22,8.82-88.95,14.45-133.17,23.49-40.94,8.37-82.42,14.75-123.7,21.79-38.82,6.62-77.61,13.29-116.31,20.6-22.41,4.23-45.13,5.99-67.22,12.86-18.07,5.61-28.58-4.74-25.71-26.09,4.28-31.78,1.62-63.53,2.73-95.27.16-4.45.23-8.93-.15-13.36-1.46-17.07-8.39-23.62-25.46-24.05-8.27-.21-16.56-.18-24.83-.02-21.31.41-25.93,4.82-25.98,25.83-.1,38.19.11,76.38.2,114.57,0,3.82.29,7.65.12,11.45-.74,16.34-5.68,23.66-21.59,26.95-22.36,4.63-45.07,7.57-67.57,11.55-21.89,3.87-43.68,8.31-65.57,12.19-49.99,8.85-100.03,17.45-150.03,26.25-23.77,4.18-47.35,10.2-71.29,12.56-45.58,4.5-89.28,18.84-135.06,22.95-26.88,2.41-53.45,10.68-80.43,15.03-37.62,6.06-75.4,11.34-112.29,21.37-4.81,1.31-10.11,1.17-15.18,1.07-16.7-.32-21.74-5.13-22.17-21.61-.3-11.45.13-22.91.13-34.37.05-145.13.1-290.26.09-435.39,0-7.61.77-15.32-1.62-22.75-4.35-13.52-12.73-16.92-24.53-8.67-15.61,10.92-30.41,22.99-45.76,34.3-31.15,22.96-62.48,45.66-93.63,68.62-32.19,23.73-64.14,47.78-96.39,71.41-16.38,12-33.23,23.35-49.78,35.11-4.12,2.92-8.56,5.75-11.74,9.56-5.44,6.51-6.69,13.96.06,20.54,15.61,15.23,25.87,34.56,39.6,51.25,10.14,12.33,9.6,18.61-2.06,29.57-8.76,8.24-18.43,15.59-28.17,22.69-14.52,10.59-24.88,9.08-36.01-5.2-11.71-15.03-23.06-30.35-34.35-45.7-34.22-46.54-68.29-93.18-102.5-139.73-13.64-18.56-13.57-22.66,3.33-38.36,7.9-7.34,16.22-14.35,25-20.6,13.38-9.54,24.73-7.49,34.54,5.79,12.46,16.87,24.32,34.19,36.91,50.96,9,11.98,17.51,12.79,28.73,2.97,21.06-18.42,44.48-33.71,67.02-50.1,24.16-17.57,47.81-35.77,71.73-53.65,28.95-21.63,58.48-42.51,88.19-63.09,21.93-15.18,42.44-32.28,65-46.63,13.29-8.45,14.84-19.1,6.06-32.61-23.22-35.73-43.77-73.06-65.92-109.41-37.68-61.86-73.87-124.57-110.44-187.07-21.81-37.27-45.62-73.39-66.82-110.99-24.03-42.61-52.08-82.87-73.48-127.01-5.98-12.34-9.92-24.65-9.24-38.4.31-6.35.35-12.76-.15-19.09-2.03-25.57,3.55-49.16,16.76-71.21,22.22-37.07,44.08-74.36,66.04-111.59,24.19-41.02,47.42-82.64,72.76-122.93,22.67-36.04,41.8-74.12,65.46-109.58,15.12-22.67,28.17-46.75,41.63-70.5,10.04-17.71,21.33-34.59,32.88-51.29,10.2-14.74,9.32-20.29-5.57-31.04-36.06-26.04-72.38-51.74-107.86-78.56-20.23-15.29-38.65-32.96-58.55-48.72-17.42-13.8-35.52-26.78-53.75-39.51-38.47-26.87-74.99-56.53-115.26-80.82-6.27-3.78-9.49-12.38-21.36-11.75ZM1717.82,425.5c-194.8,0-389.59.03-584.39-.07-11.59,0-22.89.61-33.47,5.89-28.11,14.01-49.56,34.5-65.34,62-31.6,55.07-64.42,109.43-96.69,164.11-14.21,24.08-28.26,48.26-42.45,72.35-21.28,36.12-42.46,72.3-63.97,108.29-22.15,37.06-44.85,73.79-66.93,110.89-23.7,39.84-46.89,79.98-70.44,119.91-13.86,23.5-28.09,46.79-41.97,70.27-16.15,27.32-31.36,55.22-48.34,82.02-23.19,36.61-24.11,82.03-1.53,118.79,17.94,29.21,35.2,58.84,52.67,88.33,13.59,22.94,26.91,46.05,40.59,68.93,21.81,36.48,45.77,71.85,65.1,109.59,13.6,26.55,33.47,45.87,55.13,64.51,8.52,7.33,17.96,9.09,28.08,2.64,19.78-12.6,39.41-25.38,57.73-40.1,12.44-10,24.7-20.93,42.8-13.66,1.61.65,3.84.24,5.65-.19,34.43-8.1,69.49-6.73,104.42-6.85,18.45-.06,37.16-1.16,55.29,1.44,45.87,6.57,91.83,13.38,135.46,30.26,3.54,1.37,7.47,1.71,11.01,3.07,37.54,14.36,77.28,20.6,115.83,31.26,49.82,13.78,100.44,14.24,151.12,4.78,13.72-2.56,27.06-6.43,38.91-14.86,8.25-5.87,18.1-10.2,28.57-8.88,9.86,1.25,10.44,11.82,15.24,18.18,9.12,12.1,22.09,19.05,36.35,17.25,30.19-3.81,60.89-6.61,89.98-15.64,32.75-10.16,66.24-17.45,98.69-29.07,39.61-14.18,78.07-30.88,115.44-49.56,30.58-15.28,61.4-30.29,91.8-46.03,39.95-20.68,81.01-39.38,121.76-58.54,37.37-17.57,69.94-41.14,100.12-68.64,13.62-12.41,21.41-13.84,37.29-3.91,6.86,4.29,13.61,6.05,21.46,6.3,26.19.84,46.29-11.39,63.85-29.13,15.57-15.73,20.51-16.52,39.53-5.13,3.27,1.96,6.25,4.4,9.5,6.38,10.09,6.13,20.36,8.57,32.68,6.29,25.6-4.73,51.49-7.48,77.51-1.85,18.69,4.04,37.04,8.78,54.35,17.31,20.45,10.08,40.84,20.47,61.97,28.92,22.46,8.98,44.16,19.48,66,29.73,11.54,5.41,17.09,5.18,24.72-4.98,7.62-10.14,14.33-21.01,20.85-31.92,22.14-37.05,43.62-74.49,66.12-111.32,17.14-28.05,19.33-71.21,3.4-100.19-6.73-12.25-14.03-24.19-21.19-36.19-17.56-29.44-35.24-58.81-52.76-88.28-14.29-24.03-28.41-48.16-42.62-72.23-23.26-39.39-46.45-78.82-69.84-118.13-22.08-37.1-43.99-74.31-66.71-111.01-15.38-24.83-29.58-50.34-44.9-75.21-29.63-48.12-57.3-97.45-85.97-146.16-17.08-29.02-35.29-57.4-51.59-86.84-14.4-26.01-29.85-49.52-58.46-62.9-14.12-6.61-27.04-12.45-43.03-12.43-194.8.3-389.59.2-584.39.19ZM2180.64,2056.92c7.99.77,12.27,4.85,13.81,10.52,6.67,24.5,16.13,48.33,19.84,73.51,2.43,16.46,6.45,32.42,11.25,48.2,4.35,14.3,10.96,17.9,25.98,15.52,14.43-2.28,28.85-4.72,43.14-7.77,19.89-4.25,28.1-15.26,25.24-35.71-1.6-11.47-1.64-22.82-1.65-34.23-.1-117.1-.08-234.21-.05-351.31,0-6.99-.04-14.03.75-20.96,2.7-23.73-7.26-32.88-29.46-25.15-13.3,4.63-26.48,8.45-40.49,10.25-12.33,1.58-19.05,9.45-19.11,22.26-.08,15.85-.66,31.72,2.12,47.57,3.43,19.51,1.93,39.35,1.25,59.04-.26,7.6-2.42,15.04-11.16,18.85-11.25-5.02-14.66-15.74-17.71-25.77-5.91-19.42-11.2-39.03-12.93-59.49-1.02-12.02-4.45-23.79-8.93-35.03-6.06-15.2-12.33-17.83-28.23-13.4-10.4,2.89-20.81,6.04-31.42,7.86-23.81,4.09-26.33,6.55-26.34,30.58-.02,134.92,0,269.85.01,404.77,0,4.45-.21,8.96.4,13.34,2.19,15.84,9.73,21.04,25.21,16.17,11.04-3.48,22.02-5.53,33.58-6.24,15.47-.95,20.58-6.44,20.85-21.36.27-15.26,1.2-30.77-.97-45.76-3.4-23.51-1.94-46.98-2.51-70.46-.22-8.97.68-17.71,7.53-25.8ZM972.82,2195.73c0,69.96-.06,139.92.04,209.88.03,18.93,5.06,24.3,22.12,21.14,18.06-3.34,35.84-8.31,53.6-13.11,8.1-2.19,13.1-7.91,12.7-16.83-1.48-32.32,2.48-64.83-3.37-97.01-1.26-6.92-1.81-14.06-.02-20.85,3.24-12.36,13.87-14.79,23.16-5.95,4.96,4.72,6.18,10.77,7.83,16.96,8.02,30.07,15.75,60.25,24.76,90.03,5.32,17.56,14.95,23.45,31.46,19.76,14.88-3.32,29.48-7.08,44.83-8.28,11.24-.87,16.84-8.68,13.86-18.36-9.51-30.91-16.3-62.75-30.56-92.08-10.52-21.64-8.44-31.75,10.8-45.43,11.69-8.32,18.77-18.55,18.75-33.31-.1-76.96-.1-153.91-.09-230.87,0-10.75-3.4-20.09-11.39-27.31-12.56-11.34-27.08-15.89-44.03-12.44-31.7,6.45-63.39,12.98-95.23,18.69-18.08,3.24-36.51,4.46-54.65,7.41-18.38,2.99-23.62,9.51-24.48,28.09-.18,3.81-.08,7.63-.08,11.45,0,66.14,0,132.29-.01,198.43ZM2359.96,1947.53c0,53.43-.03,106.85.04,160.28,0,6.98-.18,14.07.91,20.93,5.91,37.25,27.96,52.61,64.94,44.78,16.15-3.42,32.04-9.14,48.5-9.69,32.79-1.09,63.28-13.42,95.38-17.82,13.47-1.85,19.93-11.34,17.92-24.74-3.9-26.01-2.16-52.07-1.84-78.05.61-48.26-3.11-96.58,2.24-144.79,1.52-13.74-8.99-22.07-23.29-19.16-12.44,2.53-24.67,6.13-37.11,8.66-22.48,4.58-26.58,9.14-26.54,31.68.09,42.61.28,85.23.41,127.84.01,3.81.22,7.66-.21,11.44-1.88,16.6-19.29,29.61-35.54,26.73-9.76-1.73-16.82-9.12-18.02-19.44-.51-4.4-.28-8.89-.29-13.34-.05-78.23-.07-156.46-.15-234.69-.03-25.6,9.43-36.01,35.05-36.76,18.61-.55,36.46-5.25,54.39-9.1,15.57-3.35,21.37-14.12,15.49-28.75-4.63-11.52-5.29-23.49-7.86-35.21-3.99-18.16-9.71-23.1-27.42-17.81-32.44,9.69-65.95,12.89-99.11,18.15-28.21,4.48-48.07,22.44-55.31,50.24-2.29,8.8-2.58,17.56-2.59,26.45-.01,54.06,0,108.13,0,162.19ZM1236.73,2347.77c-.32,28.13,8.39,35.23,30,28.95,6.16-1.79,12.32-2.86,18.72-3.25,25.38-1.52,32.36-8.24,35.08-33.16,2.71-24.84,9.98-33.31,33.83-39.43,29.93-7.68,38.2-2.3,42.46,27.59,2.82,19.78,7.94,24.39,27.3,22.09,15.09-1.8,29.53-7.1,44.55-9.87,12.23-2.26,16.82-11.69,14.27-24.9-6.25-32.4-12.39-64.82-16.55-97.57-3.05-23.96-11.64-46.77-14.27-70.89-1.16-10.68-1.15-21.48-3.91-32.12-11.03-42.48-16.47-86.05-24.01-129.21-4.37-24.98-10.95-49.49-13.3-74.97-1.92-20.86-11.71-25.68-31.81-19.7-9.21,2.74-18.38,4.63-28.06,4.92-32.26.96-38.63,6.49-44.66,37.55-.36,1.87-.58,3.77-.83,5.66-8,59.76-19.48,118.97-29.57,178.37-9.98,58.79-19.18,117.76-30.74,176.31-3.81,19.29-6.2,38.85-8.51,53.62ZM1515.64,2098.35h.4c0,66.78-.01,133.57.03,200.35,0,5.71-.28,11.54.7,17.12,2.09,11.9,7.57,15.87,19.9,15.79,5.85-.04,11.4-1.21,16.51-4.03,9.68-5.35,19.98-7.33,31.05-7.9,16-.81,22.57-8.17,22.87-24.38.33-17.17.31-34.35-.13-51.51-.7-27.27,1.32-54.5-2.6-81.83-3.59-25.02,7.77-37.11,33.98-40.27,9.43-1.14,19.03-.59,28.2-4.04,7.95-3,13.11-8.13,13.3-16.73.35-15.89.93-31.84-.08-47.67-.85-13.29-10.32-18.35-23.08-13.6-5.35,1.99-10.21,5.32-15.61,7.11-23.78,7.9-39.96-4.6-36.61-29.44,2.15-15.93,2.56-31.29.04-47.27-3.61-22.83,5.71-34.73,28.37-39.17,15.56-3.05,31.23-5.6,46.86-8.28,15.35-2.63,19.2-7.26,19.3-22.96.07-12.14-3.92-23.7-4.2-35.91-.45-20.26-12-29.39-31.58-23.58-37.36,11.07-75.81,15.39-114.08,21-26.89,3.95-33.5,11.6-33.51,38.75-.03,66.15,0,132.29,0,198.44ZM1790.81,2095.29c-.12,0-.24,0-.36,0,0,45.78,0,91.57,0,137.35,0,11.45-.48,22.92.17,34.33.65,11.53,4.53,15.57,15.42,14.54,17.64-1.67,35.16-4.62,52.71-7.23,11.96-1.78,17.03-10.34,18.89-21.05.97-5.58.59-11.41.59-17.12,0-95.38-.02-190.77-.08-286.15,0-10.14-.14-20.16-2.12-30.32-3.5-18,8.13-34.14,26.25-38.09,4.32-.94,8.92-.53,13.25-1.44,13.35-2.82,18.65-9.86,15.97-23.28-2.86-14.3-6.98-28.36-10.88-42.44-2.74-9.9-9.68-14.64-19.91-14.13-5.68.28-11.51.41-16.98,1.76-34.57,8.52-69.5,14.8-104.96,18.11-14.48,1.36-24.55,8.06-30.42,22.15-6.2,14.9-6.47,31.25-12.17,45.92-7.31,18.82,3.85,27.78,22.97,21.14,1.8-.62,3.47-1.64,5.28-2.19,13.18-4.03,24.17,2.83,26.11,16.48.53,3.75.26,7.62.26,11.43.01,53.41,0,106.83,0,160.24ZM2054.39,2006.71c0-67.47.02-134.94-.03-202.41,0-5.72.22-11.55-.79-17.12-1.38-7.57-6.35-14.29-14.27-12.08-17.89,4.99-36.55,4.87-54.32,9.58-14.65,3.88-17.94,9.02-18.54,24.78-.19,5.08.03,10.18.1,15.27.19,15.25,5.77,30.33,3.03,45.55-5.37,29.75-2.87,59.66-3,89.49-.37,89.11-.25,178.22-.11,267.33.03,21.39,7.82,27.34,28.63,22.58,11.15-2.55,22.19-5.28,33.59-6.86,21.44-2.96,25.71-8.52,25.71-29.89,0-68.74,0-137.48,0-206.23Z"/>
  <path class="cls-1" d="M1130.91,1575.79c2.83-10.34,11.91-12.83,20.98-15.93,23.79-8.14,48.84-7.84,73.32-11.05,41.49-5.44,82.98-10.5,124.38-16.93,42.03-6.52,83.29-16.89,125.52-22.29,32.06-4.1,63.65-12.17,95.3-19.11,45.25-9.92,90.41-20.28,135.56-30.59,36.53-8.34,72.96-17.08,109.27-26.24,36.94-9.32,74.11-17.81,110.18-30.57,19.06-6.74,38.8-11.53,58.05-18.06,22.33-7.58,44.27-15.84,65.59-25.62,17.29-7.93,34.51-16.64,50.12-27.38,13.63-9.37,27.89-17.68,41.51-27.04,34.51-23.74,68.86-47.63,102.58-72.5,40.85-30.13,81.89-60.73,129.77-78.86,21.26-8.05,42.66-16.54,64.93-22.13,7.11-1.79,15.37-2.14,19.79-9.59-.28-7.13-5.31-8.43-10.57-8.61-23.57-.79-46.71-.67-69.33,8.98-25.03,10.68-51.32,18.37-75.54,31.1-23.63,12.43-45.93,26.85-66.87,43.48-42.71,33.92-84.79,68.66-132.06,96.42-23.51,13.81-45.77,29.82-69.6,43.01-18.8,10.4-38.41,19.8-59.34,25.62-24.5,6.81-48.08,16.34-72.54,23.5-32.34,9.47-64.74,18.9-97.3,27.45-39.3,10.32-78.27,22.23-118.44,29.11-4.38.75-8.77,1.73-12.97,3.16-23.55,8.01-48.93,9.63-72.05,17.6-38.84,13.38-79.41,15.94-118.76,24.93-40.9,9.34-82.9,12.41-123.32,23.98-10.83,3.1-22.78,2.06-33.93,4.3-55.95,11.21-112.69,17.01-169.03,25.54-30.09,4.56-59.69,12.41-89.52,18.71-5.37,1.13-8.63,5.06-12.36,8.51-3.72,3.44-7.33,7.24-11.64,9.75-16.38,9.52-26.51,3.92-27.46-14.79-.19-3.78-.48-7.56-.67-10.42-2.76-4.67-6.89-4.49-10.4-5.78-10.71-3.92-16.08-10.43-14.22-21.6,4.34-26.03,1.7-52.13,1.8-78.13.09-23.63.72-47.48,5.32-70.2,7-34.57,19.67-67.02,56.18-83.35,20.53-9.19,22.14-15.45,13.09-36.16-15.06-34.48.52-56.86,25.12-70.4,4.46-2.46,8.97-4.88,13.67-6.82,15.82-6.53,31.84-2.44,39.69,12.36,10.33,19.44,22.04,38.91,15.86,62.97-2.79,10.87,1.51,19.73,10.92,26.37,22.61,15.94,41.52,35.39,55.11,59.73,3.08,5.52,6.02,11.34,13.78,14.16,9.81-5.19,18.98-13.15,30.04-17.86,8.6-3.66,8.39-11.74,8.58-19.56.43-17.76-1.35-35.61,3.08-53.2,4.34-17.23,7.65-34.72,12.25-51.87,4.84-18.07,17.03-25.4,36.13-22.98,20.78,2.63,24.6-.82,24.43-22.06-.03-4.45-.62-8.97-.09-13.35,2.47-20.71,10.39-37.41,31.04-46.69,19.56-8.79,37.66-10.1,55.77,3.11,7.23,5.27,11.93,11.8,12.53,20.41,1.78,25.6,2.18,50.78-15.11,72.82-10.49,13.37-9.58,19.35.76,32.1,12.87,15.87,24.18,32.24,27.06,53.42,1.57,11.51,8.58,13.97,19.64,8.83,5.83-2.71,10.71-6.75,15.64-10.83,7.79-6.44,16.81-9.14,26.76-6.05,8.2,2.55,15.4,6.6,16.56,16.35,1.14,9.64-5.19,20.94-14.17,24.43-7.1,2.76-14.42,5.16-21.84,6.85-16.17,3.68-28.87,13.58-40.62,24-9.54,8.46-15.41,19.99-14.39,34.01.65,8.85-.39,17.81-.3,26.72.19,18.37,13.96,32.27,31.77,29.31,20.33-3.38,40.61-2.03,60.9-2.9,19.35-.83,26.06-8.95,22.92-27.93-.42-2.51-.71-5.04-1.18-7.55-5.49-29.32-4.87-28.43,20.61-45.77,19.94-13.56,37.31-30.19,49.02-52.23,10.72-20.19,23.15-39.53,40.7-54.75,16.79-14.55,33.97-28.66,50.9-43.07,3.85-3.28,7.97-6.5,10.01-11.36,2.15-5.12,1.94-10.22-2.62-13.89-4.22-3.4-8.71-1.18-12.3,1.41-3,2.17-5.38,5.29-7.74,8.24-12.19,15.23-29.19,24.32-45.13,34.53-8.55,5.48-19.06,6.85-29.51,6.1-22.4-1.62-38.8,9.9-53.09,25.15-3.95,4.22-7.28,8.73-12.84,10.94-11.92,4.74-19.45,1.91-24.67-9.93-9.71-22-5.68-45.01-4.73-67.81.92-21.86,8.39-42.04,15.35-62.38,3.02-8.83,8.51-15.66,16.24-20.56,8.05-5.1,15.94-10.97,24.73-14.3,17.92-6.79,23.38-20.2,22.82-37.57-.31-9.79,2.68-18.55,5.99-27.65,8.39-23.07,24.78-36.2,47.93-42.16,33.48-8.61,66.85,20.37,62.68,54.74-1.6,13.23-3.84,26.39-5.91,39.56-2.16,13.81,1.7,25.11,13.44,33.29,1.03.72,1.79,1.83,2.81,2.58,7.66,5.65,15.84,10.71,22.9,17.02,7.25,6.47-.29,17.68,8.01,26.62,16.36-8.21,33.53-16.23,46.39-30.3,14.79-16.18,33.79-26.85,50.16-40.92,6.64-5.7,14.35-10.57,23.11-13.15,2.39-.7,4.73-1.95,6.77-3.4,9.11-6.44,12.2-16.51,7.16-22.77-4.37-5.42-13.8-4.91-21.82,3.52-11.34,11.91-20.85,25.48-35.09,34.55-9.64,6.14-10.87,6.87-24.71,5.75-4.34-4.01-3.78-9.31-3.27-14.28,1.12-10.72,1.73-21.64,4.36-32.01,4.17-16.47,16.36-26.87,30.73-34.58,10.08-5.41,20.46-10.2,30.02-16.64,7.56-5.1,11.72-11.46,11.04-20.66-2.73-36.54,27.06-51.01,58.08-55.04,25.98-3.37,46.9,16.19,44.83,42.5-2.31,29.37,10.24,47.89,34.65,59.5,24.77,11.78,46.67,28.4,71.44,40.08,12.87,6.06,25.76,10.91,40.24,10.01,11.63-.72,22.61,1.99,33.69,5.37,13.86,4.24,18.86.36,19.15-14.35.34-17.17.24-34.37-.29-51.54-.62-20.12-10.26-25.5-26.81-14.4-12.67,8.5-24.6,18.03-39,23.63-3.55,1.38-6.89,3.46-10.54,4.44-24.57,6.65-41.15-8.58-32.28-32.19,11.84-31.51,18.92-64.69,33.55-95.11,6.6-13.72,14.24-26.99,22.09-40.05,6.1-10.14,20.46-14.47,32.13-10.78,8.3,2.63,13.86,12.65,12.96,23.11-.81,9.38-6.3,14.77-14.59,18.26-11.97,5.04-21.91,12.77-29.63,23.31-2.69,3.67-4.95,7.37-5.08,12.08-.15,5.38.78,10.37,6.23,12.82,4.69,2.1,8.76.08,12.06-3.28,9.33-9.49,20.15-17.74,25.94-30.27,3.24-7.02,8.54-9.86,16.37-10.93,22.2-3.05,36.32-29.91,27.01-50.1-10.14-21.99-5.04-48.73,11.54-66.4,13.14-14.01,27.85-23.88,47.67-24.79,23.91-1.1,38.85,9.74,43.88,33.23,2.65,12.41,4.16,24.98,3.9,37.85-.35,17.1.85,18.75,17.1,21.23,15.16,2.32,26.11,10.97,34.33,22.27,19.77,27.17,42.83,52.39,55.3,84.23,8.37,21.38,17.34,42.19,30.41,61.31,7.66,11.21,5.11,24.27,1.86,36.95-6.7,26.15-6.49,27.57,19.22,35.13,47.06,13.85,78.34,45.54,102.02,86.59,2.32,4.03,4.65,8.4,2.75,12.59-8.62,19.06-5.17,40.14-10.7,59.82-5.61,19.96-17.76,36.51-26.1,54.99-4.41,9.78-16.22,12.45-26.79,9.55-29.96-8.25-59.87-16.77-86.13-34.47-13.69-9.22-24.97-7.72-32.14,5.96-12.26,23.38-34.03,34.04-56.28,43.04-37.04,14.98-75.23,27.11-112.38,41.86-37.78,15-74.6,32.43-112.4,47.37-18.92,7.48-37.16,16.59-56.2,23.47-21.02,7.59-40.9,17.57-61.33,26.34-34.45,14.8-67.61,32.76-102.5,46.35-22.37,8.71-45.21,16.82-67.83,25.04-36.02,13.08-73.57,20.13-109.82,31.96-7.86,2.57-15.88,4.22-24.12,5.45-13.79,2.05-27.58,4.55-40.67,9.91-14.26,5.84-29.22,8.56-44.64,8.59-17.19.04-34.4-.41-51.57.2-16.99.6-30.88-5.02-42.97-16.88-12.77-12.52-14.13-13.06-29.37-3.26-27.11,17.43-57.99,22.47-88.58,27.44-40.36,6.55-80.75,7.86-120.75-5.27-13.61-4.47-28.8-4.63-43.34-5.65-38.05-2.67-76.12-5.19-114.32-4.36-6.67.14-14.35,1.85-19.33-6.67ZM2065.58,1156.72c.36,22.9-2.39,40.8,9.4,56.52,2.64,3.52,1.53,9.81,2.23,14.81.79,5.63,1.09,11.42,2.65,16.84,3.97,13.85,15.8,18.19,27.91,10.22,5.79-3.81,11.01-8.51,16.32-13,23.68-20.01,50-36.53,74.01-56.19,11.68-9.57,14.94-20.32,11.91-33.42-2.89-12.45-13.97-14.39-24.87-17.1-36-8.96-73.72-12.91-105.62-34.52-1.03-.7-2.27-1.15-3.47-1.55-5.01-1.71-10-2.31-14.28,1.66-3.86,3.57-3.47,8.16-1.63,12.34,6.91,15.73,5.56,32.31,5.45,43.39ZM1812.27,1212.31c-5.36,1.1-12.19,2.4-18.98,3.92-6.38,1.42-9.78,5.66-10.22,12.07-1.16,17.17-1.68,34.23,6.53,50.27,5.57,10.89,12.66,18.74,26.28,18.12,12.79-.58,23.33,5.15,32.39,13.71,4.64,4.38,9.15,8.83,15.43,10.8,11.63,3.66,18.21-1.03,19.01-13.37.46-7.14-3.98-14.12-2.96-20.51,4.41-27.68-10.28-44.26-29.79-60.44-11.17-9.27-22.76-12.81-37.7-14.56ZM2243.42,909.57c.53,4.51,2.33,6.26,4.51,7.63,45.09,28.42,90.02,57.1,135.39,85.08,20.72,12.78,39.32,26.16,38.18,54.17-.14,3.52,1.84,7.41,3.66,10.68,4.56,8.17,15.59,12.99,24.47,11.11,6.63-1.4,11.77-6.39,8.26-12.04-7.99-12.87-10.45-26.76-12.35-41.19-.38-2.86-2.85-5.65-4.84-8.07-9.02-10.92-19.12-20.19-33.44-24.08-16.09-4.37-30.22-12.93-44.37-21.61-32.45-19.92-65.2-39.34-98.04-58.6-6.21-3.64-12.93-8.91-21.41-3.09ZM1040.17,1416.43c-4.4-.38-6.7,1.07-7.87,3.28-10.27,19.25-13.94,40.49-7.43,60.64,4.04,12.49,5.38,24.31,5.94,36.84.24,5.41-2.22,11.24,2.68,17.46,11.71-11.58,23.01-22.71,27.22-38.86q-18.82-12.46-14.91-34.01c.8-4.36,2.38-8.66,2.58-13.03.54-11.87.1-23.63-8.21-32.32ZM1188.48,1409.67c14.05,11.42,27.45,17.52,43.13,4.73,4.2-3.43,9.47-3.12,14.48-3.9,5.61-.88,11.21-2.22,16.58-4.02,7.24-2.43,9.15-8.32,8.21-15.29-1.04-7.67-6.33-10.44-13.4-10.91-5.91-.39-11.31.51-15.87,4.83-3.63,3.44-6.63,7.86-13.15,9.16-16.42-6.03-29.67-.8-39.98,15.4ZM1165.71,1425.27c-19.5,5.34-35.42,16.33-51.44,27.35-15.54,10.7-34.21,17.49-44.85,34.73,5.56,4.5,9.86,4.23,12.7,1.86,26.93-22.52,59.58-37.44,83.59-63.95ZM1289.43,1482.44c-.47-3.98-2.43-6.11-6.14-5.7-4.14.45-7.11,2.79-6.8,7.2.24,3.35,2.64,5.7,6.22,5.52,4.44-.23,6.35-3.23,6.72-7.02Z"/>
  <path class="cls-1" d="M1646.09,931.97c8.7-13.09,7.84-25.93,6.16-38.28-6.24-45.97-10.47-91.93-11.7-138.45-1.22-46.26-7.76-92.39-6.56-138.85.17-6.79-1.76-14,2.92-20.6,7.64-.4,8.87,6.05,11.05,10.87,5.85,12.96,6.46,27.2,8.32,40.94,3.65,27.01,5.27,54.29,8.44,81.37,4.42,37.81,9.65,75.52,14.2,113.31,2.43,20.18-.03,40.72,4.42,60.81,1.36,6.14,1.01,12.74,8.22,17.41,8.17-6.11,7.3-15.21,7.34-23.74.23-53.46-.63-106.95.73-160.39,1.11-43.75,4.76-87.43,7.39-131.14.38-6.37,2.76-12.12,5.79-17.11,6.15-.42,8.15,3.21,8.28,7.01.49,15.26,3.75,30.18,5,45.39,6.77,82.6,2.37,165.3,3.55,247.94.17,12.21,3.71,23.84,4.29,35.92.16,3.3,2.31,5.83,6.15,7.35,7.43-2.07,7.76-8.79,8.23-14.97,2.79-36.72,4.74-73.51,8.23-110.16,3.24-34.07,5.59-68.23,12.64-101.93,5.97-28.52,14.65-107.46,16.83-118.43,1.05-5.3,3.47-6.82,4.74-7.29,1.43-.18,3.76.26,4.36,5.64,1.59,14.29-.57,44.51-.56,48.21,0,35.64-.45,71.29.06,106.93.47,32.61-4.87,64.57-9.43,96.61-3.77,26.48-6.83,52.93-5.79,79.72.25,6.35.3,12.68,4.48,17.71,6.12.28,6.07-4.35,7.09-7.65,11.74-37.73,20.3-76.1,22.68-115.68.19-3.17-.11-6.57.92-9.47,14.12-39.84,16.27-82.17,25.67-122.99,4.42-19.21,15.08-36.41,17.21-56.43.73-6.92,1.74-13.82,2.1-20.8.26-5.1.42-10.35,6.12-13.02,5.76-.52,7.81,3.21,8.57,7.97.91,5.73.35,11.41-1.48,16.95-5.26,15.94-5.98,32.34-5.59,48.98.48,20.35-.45,40.35-7.05,60.25-6.17,18.62-8.65,38.41-8.25,58.29.17,8.33-.87,16.48-3.31,24.48-9.14,29.93-13.13,60.74-16.12,91.77-.78,8.16-2.9,16.29-5.24,24.18-2.79,9.4-2.55,18.64-1.73,29.24,10.3-3.1,14.32-10,15.93-18.15,7.74-39.31,25.22-76.1,29.84-116.23,1.47-12.79,9.88-23.24,12.57-35.88,5.4-25.46,10.97-50.96,22.74-74.56,4.64-9.31,1.41-20.19,5.67-29.8,8.47-19.07,18.73-37.46,22.04-58.54.65-4.15,3.1-8.45,9.41-10.07,6.62,8.01,4.18,17.83,2.74,26.46-3.55,21.22-5.37,42.81-13.34,63.25-3.4,8.71-5.42,18.29-4.99,28.03.41,9.12-2.32,17.7-5.97,25.84-5.24,11.71-8.63,23.82-10.75,36.46-5.99,35.74-19.07,69.73-26.13,105.23-4.34,21.81-9.51,43.45-14.04,65.23-3.98,19.14-13.97,33.85-31.25,43.22-18.88,10.24-28.98,25.77-30.53,47.31-.96,13.32-3.53,26.51-8.06,39.13-4.71,13.12-13.02,18.94-22.09,16.33-10.56-3.04-17.29-15.22-13.07-27.9,5.78-17.38,5.55-35.01,5.83-52.82.23-14.61-5.44-25.86-17.27-34.18-2.08-1.46-4.85-2.43-6.19-4.39-9.74-14.27-19.66-26.89-40.06-26.08-7.06.28-11.01-9.71-17.07-16.07-11.71,8.69-23.27,19.62-37.4,8.07-6.53,1.46-8.07,5.94-10.05,9.82-3.46,6.77-8.85,11.04-16.25,11.89-10.54,1.21-15.33,7.57-17.82,17.1-2.75,10.51-6.59,20.7-13.3,29.39-4.71,6.1-4.87,12.93-4.49,19.96,1.01,18.74-6.89,30.45-24.56,38.45-20.76,9.41-35.58,24.96-41.87,48.69-6.22,23.45-10.63,47.02-13.13,71.03-.99,9.47-1.59,19.06,1.38,28.42.58,1.81.99,3.7,1.21,5.59,1.59,13.63-3.32,24.64-12.12,27.36-8.95,2.77-16.21-1.4-24.98-13.27-11.22-15.18-13.15-29.4-3.8-47.51,12.55-24.29,15.59-51.18,5.74-77.73-6.62-17.86-17.96-31.9-36.8-38.83-17.42-6.41-29.72-19.06-39.46-34.49-20.03-31.72-40.39-63.18-64.1-92.39-7.16-8.83-12.27-19.29-18.66-28.78-24.42-36.24-49.21-72.23-73.39-108.63-13.67-20.57-26.94-41.44-39.36-62.77-6.82-11.71-11.51-24.65-15.86-38,9.66,2.84,14.63,10.95,20.53,17.34,11.6,12.56,22.57,25.79,32.87,39.44,25.95,34.39,52.22,68.53,77.34,103.58,32.18,44.89,64.2,89.86,95.42,135.42,7.68,11.21,15.73,22.22,31.49,29.72-2.96-12.65-6.95-21.53-11.89-30.27-22.48-39.8-45.78-79.15-68.8-118.6-21.71-37.21-42.38-74.95-63.15-112.64-14.98-27.17-28.46-55.19-42.08-83.08-2.27-4.64-5.87-10.23-1.33-16.76,8.48.9,12.79,7.83,16.92,13.63,21.35,29.98,41.57,60.69,60.63,92.22,11.09,18.35,21.98,36.82,34.06,54.65,17.05,25.16,30.32,52.84,45.77,79.12,17.68,30.08,33.81,61.13,54.75,89.21,1.87,2.51,3.41,5.38,8.44,6.57,1.14-10.36-2.19-19.45-6.27-28.13-15.13-32.12-32-63.51-45.38-96.32-7.89-19.36-18.03-37.59-25.96-56.94-8.1-19.76-15.06-40.29-26.41-58.88-8.21-13.45-13.13-28.96-18.87-43.53-10.43-26.49-23.28-52.35-28.88-80.64-.49-2.46-1.59-4.88,1.24-8.17,7.27.7,10.61,6.69,13.94,12.5,29.38,51.23,57.3,103.28,82.49,156.67,15.95,33.81,32.35,67.42,47.5,101.65,10.86,24.55,20.26,50.55,40.37,72.1,4.44-9.98,1.72-18.22-1.38-26.22-15.14-39.06-28.88-78.67-43.06-118.03-9.36-25.98-22.29-51.27-26.06-79.34-.82-6.08-4.27-11.9-6.98-17.61-3.83-8.06-7.25-16.01-8.57-25.1-1.35-9.3-5.07-18.13-8.49-27.07-8.35-21.81-11.54-45.08-16.92-70.47,12.08,3.5,17.98,10.78,20.3,19.63,6.16,23.47,23.37,42.45,26.61,66.98,17.56,21.95,19.16,50.78,32.38,74.88,9.03,16.44,13.21,35.66,19.37,53.6,8.66,25.2,19.53,49.62,26.87,75.29,5.26,18.39,15.79,34.21,24.93,52.47,6.12-5.66,5.14-10.74,4.17-15.44-7.63-37.32-16.81-74.25-28.74-110.45-3.4-10.3-6.14-20.72-7.87-31.41-.2-1.25.05-2.63-.37-3.79-12.44-34.67-14.17-72.06-27.02-106.64-1.53-4.13-3.27-8.5-3.35-12.79-.37-18.64-4.85-36.5-9.56-54.31-1.97-7.46-3.26-14.61.76-23.75,11.95,6.12,19.02,14.74,19.27,26.81.27,12.69,4.82,23.43,10.24,34.32,6.54,13.14,11.05,26.97,13.63,41.53,2.66,15.05,6.51,29.84,13.8,43.48,1.2,2.24,2.78,4.58,3,6.99,2.73,30.09,17.13,57.21,22.05,86.69,5.59,33.47,20.18,64.23,28.62,96.83.42,1.62,2.31,2.86,3.52,4.27,6.76-1.3,4.95-6.63,5.19-10.59,1.63-26.97-2.9-53.6-9.39-79.29-8.46-33.47-9.24-68.09-17.61-101.25-8.64-34.24-11.68-68.57-12.05-103.68-.16-14.92-6.13-29.75-9.16-44.69-1.48-7.34-3.25-15.13,5.8-19.66,8.32,2.91,9.94,9.97,11.44,16.66,2.22,9.9,3.62,19.97,5.58,29.93,3.82,19.34,8.81,38.36,14.85,57.17,5.81,18.13,9.38,36.7,11.26,55.89,2.1,21.38,7.66,42.49,12.6,63.51,4.81,20.47,7.84,41.06,9.89,62,2.02,20.56,7.16,40.74,19.43,59.73Z"/>
  <path class="cls-1" d="M1136.26,762.58c16.32,16.5,32.74,32.3,48.23,48.97,15.96,17.18,30.18,36.02,46.64,52.67,31.29,31.66,58.64,66.63,87.47,100.37,21.42,25.07,43.03,49.97,64.55,74.96,3.31,3.84,7.13,7.38,9.73,11.66,4.06,6.71,6.9,14.02.18,20.95-6.02,6.21-14.14,6.62-22.46.12-5.95-4.65-11.99-9.92-16-16.19-14.85-23.2-35.76-41.19-52.54-62.72-21.82-27.97-44.4-55.35-66.68-82.96-21.09-26.14-42.59-51.97-63.19-78.48-13.95-17.96-26.74-36.82-39.88-55.39-2.82-3.98-3.18-8.26,3.97-13.96Z"/>
  <path class="cls-1" d="M1019.83,877.09c14.51,2.92,23.65,9.96,32.85,16.62,40.64,29.41,78.59,62.29,118.35,92.74,49.45,37.88,94.57,80.92,144.63,117.93,7.11,5.26,11.9,11.49,12.66,20.26.75,8.63-3.18,15.01-11.38,17.76-7.07,2.38-14.51,2.07-18.41-5.46-11.38-21.96-33.33-32.68-50.74-48.09-37.96-33.61-77.26-65.65-115.32-99.18-33.91-29.87-66.74-60.72-98.54-92.73-5.11-5.15-11.69-9.54-14.09-19.85Z"/>
  <path class="cls-1" d="M978.34,944.24c6.2-2.89,11.25-.37,15.14,2.12,28.73,18.39,59.39,33.81,86.52,54.56,14.17,10.84,30.51,17.98,44.42,29.12,24.19,19.37,52.1,33.27,76.67,52.33,25.98,20.15,53.67,38.12,80.81,56.75,4.09,2.8,9.42,3.71,13.96,5.96,5.45,2.7,9.52,6.91,8.4,13.51-1.23,7.23-4.51,13.59-12.61,14.92-8.94,1.47-17.32.87-25.05-5.55-40.03-33.28-85.25-59.44-126.49-90.92-30.13-23-61.76-43.97-91.03-68.27-20.88-17.33-42.54-33.83-63.18-51.55-3.81-3.27-8.95-5.29-7.58-12.97Z"/>
  <path class="cls-1" d="M1071.27,815.57c14.13,2.88,22.47,13.1,31.43,21.01,74.7,66.04,145.82,135.86,215.66,207,9.79,9.97,19.85,19.68,29.71,29.58,4.68,4.69,8.66,9.86,4.5,16.77-4.15,6.9-10.87,8.3-18.28,7.25-7.24-1.03-13.18-4.67-17.75-10.25-27.44-33.52-60.42-61.66-90.09-93.01-33.16-35.05-67.65-68.9-99.96-104.7-18.2-20.16-38.2-39.07-52.5-62.6-1.61-2.66-4.15-4.91-2.72-11.05Z"/>
  <path class="cls-1" d="M1249.51,1215.07c-10.77-11.52-24.82-19.8-38.91-28.3-9.28-5.6-17.78-11.61-28.63-14.18-11.36-2.69-18.68-12.67-28.9-18.03-16.74-8.78-31.97-20.39-48.47-29.68-15.99-9-31.42-18.83-47.04-28.41-17.13-10.5-33.93-21.55-51.17-31.78-15.77-9.35-30.11-20.6-45.58-30.22-7.71-4.79-14.06-10.42-21.25-19.85,14.39.88,26.17,2.99,36.12,8.87,20.74,12.24,43.97,19.71,64.01,32.66,15.45,9.98,32.71,16.12,47.91,26.65,13.32,9.22,28.51,16.08,42.85,24.02,20.4,11.29,40.64,22.97,61.17,33.88,16.76,8.91,30.93,22.21,49.34,28.21,7.97,2.6,13.87,8.96,19.39,15.11,12.31,13.74,9.3,23.28-10.85,31.05Z"/>
  <path class="cls-1" d="M2024.15,614.36c1.17,1.39,1.93,1.86,1.94,2.36.24,7.25-10.6,55.86-13.55,62.25-2.39,5.16-5.47,10.32-6.36,15.78-5.63,34.61-23.03,65.4-31.92,98.69-6.73,25.23-20.19,47.8-25,73.56-3.03,16.18-13.63,26.56-29.35,31.1-11.66-10.39-14.5-15.3-8.19-26.08,12.35-21.11,18.4-44.7,26.32-67.17,9.25-26.22,22.41-50.78,29.98-77.81,6.43-22.94,18.19-44.5,28.78-66.1,5.57-11.36,12.99-21.76,15.71-34.44,1.26-5.85,4.1-10.59,11.64-12.15Z"/>
  <path class="cls-1" d="M2169.58,674.45c4.18,8.57.32,15.2-2.57,20.88-12.95,25.38-23.99,51.65-38.83,76.19-15.67,25.92-28.5,53.55-42.96,80.21-9.98,18.4-20.52,36.51-31.08,54.59-2.53,4.34-5.92,8.25-9.3,12.01-4.9,5.47-10.74,9.66-18.39,5.85-7.68-3.82-6.97-11.39-6.8-18.4.1-4.54,1.38-8.76,4.21-12.43,21.79-28.19,36.4-60.78,55.44-90.66,20.76-32.58,40.15-66.07,61.98-97.9,7.38-10.77,15.26-22.83,28.29-30.35Z"/>
  <path class="cls-1" d="M2095.72,640.09c5.7,13.91,1.27,25.41-2.85,35.82-16.24,41.11-32.33,82.37-50.87,122.46-11.95,25.84-23.18,52.03-35.44,77.73-2.21,4.63-4.71,9.11-8.92,12.17-6.32,4.59-12.95,8.66-20.85,3.39-6.62-4.42-8.65-13.6-4.28-22.23,6.02-11.87,12.23-23.69,19.12-35.07,10.83-17.88,17.83-37.59,27.73-55.97,12.55-23.3,23.64-47.43,35.96-70.95,9.41-17.96,19.91-35.24,29.6-52.99,2.38-4.36,3.93-9.34,10.8-14.34Z"/>
  <path class="cls-1" d="M910.07,1085.37c6.35-4.67,12.64-3.22,18.64.87,7.01,4.78,14.62,7.15,23.03,8.18,6.89.84,13.55,3.26,19.49,7.21,2.63,1.75,5.26,4.3,8.16,4.75,24.26,3.77,43.17,21.16,67.04,25.98,8.9,1.8,16.36,7.01,21.59,14.55,3.33,4.8,5.33,10.3,1.39,15.95-4.07,5.84-9.72,8.01-16.6,6.42-2.43-.56-4.82-1.66-7.01-2.9-23.6-13.39-47.83-25.65-71.66-38.53-21.39-11.57-43.6-22.55-62.8-38.03-.76-.62-.68-2.28-1.26-4.45Z"/>
  <path class="cls-1" d="M1234.07,1261.02c2.63,6.28,5.41,12.57,7.89,18.97,2.89,7.49,1.17,13.85-5.89,17.98-6.18,3.62-10.78-.16-15.1-4.17-.46-.43-.92-.87-1.39-1.29-16.57-14.72-17-18.19-4.35-36.22-1.06-8.83-7.35-14.14-13.81-19.27-1.97-1.56-4.39-2.55-6.41-4.06-10.52-7.92-13.77-14.87-10.41-21.97,3.43-7.24,14.33-9.58,25.45-4.25,10.74,5.15,20.76,11.34,32.26,15.42,15.14,5.37,15.77,22.3,2.36,31.06-3.08,2.02-7.29,2.26-10.62,7.81Z"/>
  <path class="cls-1" d="M879.79,1234.12c6.57-4.39,14.4-3.57,21.37-1.56,32.97,9.47,67.2,13.1,100.24,22.11,5.51,1.5,11.09,3.08,16.23,5.49,4.72,2.21,8.49,6.15,8.07,11.91-.47,6.46-4.87,10.72-10.72,11.97-9.39,2.01-19.3,2.68-28.02-2.09-17.49-9.57-36.01-15.62-55.51-19.43-15.74-3.08-29.35-12.06-44.26-17.59-4.07-1.51-7.89-4.3-7.4-10.8Z"/>
  <path class="cls-1" d="M892.32,1160.18c10.74-2.62,21.09-2.71,30.92,2.57,9.1,4.9,18.42,7.92,28.95,8.05,5.54.07,11.68,1.37,16.44,4.08,12.91,7.35,26.85,11.14,41.15,14.11,4.42.92,8.58,2.12,11.81,5.56,5.41,5.73,6.55,12.47,3.24,19.28-3.51,7.21-10.12,6.7-16.5,4.42-10.74-3.84-22.06-6.74-31.93-12.22-23.81-13.22-50.86-19.42-73.64-34.68-4.05-2.71-9.44-4.08-10.44-11.17Z"/>
  <path class="cls-1" d="M852.43,1308.47c4.52-6.08,10.2-4.99,14.62-3.82,16.24,4.29,32.75,2.33,49.11,3.38,13.84.89,27.63,2.72,41.4,4.47,3.04.39,6.08,1.88,8.79,3.43,6.38,3.66,11.41,8.62,9.79,16.74-1.77,8.86-9.08,9.99-16.27,9.48-15.92-1.13-31.15-5.55-45.49-12.39-12.77-6.09-25.99-9.76-40.04-10.72-8.79-.6-17.33-1.67-21.92-10.58Z"/>
  <path class="cls-1" d="M839.92,1460.95c8.7-6.58,18.81-5.71,27.53-6.88,23.08-3.1,46.44-4.04,69.48-7.95,5.89-1,11.24,1.43,15.86,5.05,5.13,4.03,5.75,9.59,4.44,15.46-1.27,5.72-5.42,8.27-10.96,8.8-2.51.24-5.08.48-7.58.24-20.7-1.92-41.44-3.58-62.07-6.14-7.58-.94-15.11-1.02-22.67-1.55-4.75-.34-10.43,1.27-14.04-7.04Z"/>
  <path class="cls-1" d="M2158.36,813.05c3.06-13.37,10.75-22.61,18.88-31.46,6.01-6.54,11.26-14.01,17.59-19.88,12.75-11.83,19.17-28.23,31.47-40.11,4.33-4.18,8.06-9.98,16.64-8.18,1.14,9.17-6.46,13.92-10.39,19.18-13.74,18.34-21.34,39.92-33.29,59.1-4.01,6.44-7.97,13.13-13.12,18.61-8.39,8.93-14.94,9.34-27.79,2.75Z"/>
  <path class="cls-1" d="M2093.94,911.55c-7.53,29.02-12.16,55.15-28.55,76.76-7.55,9.96-18.93,7.32-23.89-4.29-4.12-9.63-2.96-19.24,3.7-26.83,13.61-15.51,25.23-33.2,48.75-45.64Z"/>
  <path class="cls-1" d="M867.74,1388.03c2.33-7.33,7.69-7.36,12.68-7.42,18.32-.22,36.65-.21,54.98-.27,1.26,0,2.55,0,3.78.22,9.16,1.61,15.01,8.09,13.61,15-1.43,7.05-9.17,12.55-17.61,10.34-18.98-4.96-38.35-7.54-57.54-11.24-3.71-.72-7.25-2.29-9.9-6.64Z"/>
  <path class="cls-1" d="M2567.74,1019.24c4.7,20.37-16.45,40.06-37.77,36.57,3.03-22.61,28.84-20.85,37.77-36.57Z"/>
  <path class="cls-1" d="M1542.14,1402.04c-.13,8.37-6.15,15.23-13.49,15.37-7.68.14-15.94-6.67-15.89-13.13.07-9.12,8.24-16.7,17.35-16.1,7.9.52,12.16,5.42,12.03,13.86Z"/>
  <path class="cls-1" d="M1061,2108.32c0-19.1-.27-38.2.07-57.29.38-20.92,19.28-36,39.98-32.38,12.81,2.24,20.63,11.22,19.13,26.43-3.65,36.88-.79,73.76-1.6,110.61-.45,20.3-24.17,38.3-44.01,33.79-9.16-2.08-13.4-7.69-13.61-20.06-.34-20.36-.09-40.74-.09-61.11.04,0,.09,0,.13,0Z"/>
  <path class="cls-1" d="M1358.39,2102.69c13.46,7.35,14.75,19.09,15.6,30.28,1.72,22.74,3.15,45.46,7.42,67.93,2.32,12.23-.72,22.76-12.1,29.55-6.71,4-13.84,7.34-21.46,2.86-7.57-4.45-12.28-11.14-11.52-20.4,1.34-16.39,2.27-32.86,4.7-49.09,1.42-9.46,2.49-18.83,2.62-28.35.17-12.59,4.37-23.35,14.74-32.79Z"/>
  <path class="cls-1" d="M1843.13,1260.06c-.49,6.68-4.95,9.15-11.31,9.42-9.01.38-17.6-5.99-17.78-13.17-.14-5.9,6.15-12,12.18-11.81,7.42.23,16.71,8.59,16.9,15.57Z"/>
</svg>