<?xml version="1.0" encoding="UTF-8"?>
<svg id="Layer_1" data-name="Layer 1" xmlns="http://www.w3.org/2000/svg" xmlns:xlink="http://www.w3.org/1999/xlink" version="1.1" viewBox="0 0 2760.13 1983.39">
  <defs>
    <style>
      .cls-1 {
        mask: url(#mask);
      }

      .cls-2 {
        fill: #146a45;
        stroke-width: 0px;
      }
    </style>
    <mask id="mask" x="1643.2" y="-9183.7" width="136.98" height="32766" maskUnits="userSpaceOnUse"/>
  </defs>
  <path class="cls-2" d="M2545.02,357.05c-.49-.2-.99-.39-1.48-.59.34.34.69.69,1.03,1.03l.45-.45Z"/>
  <g>
    <path class="cls-2" d="M2106.49,557.16c-26.94,16.82-7.27,35.26,2.67,51.98,61.47,103.44,119.25,209.33,186.05,309.26,48.41,72.42,45.52,134.29-1.06,204.94-57.73,87.57-108.73,179.53-162.38,269.75-36.31,61.06-17.05,157.16,39.81,198.99,41.35,30.42,83.89,59.3,124.26,90.92,23.22,18.19,40.15,18.42,56.67-6.94,5.47-8.4,12.74-16.34,20.85-22.2,12.68-9.16,24.27-1.64,34.74,6.02,15.86,11.6,15.16,27.26-5.88,43.91-39.04,30.9-67.93,72.36-87.46,118.16-10.62,24.91-25.17,26.69-40.17,15.64-12.56-9.25-26.15-18.49-13.68-36.87,5.74-8.47,11.52-17.01,18.19-24.74,15.37-17.82,11.01-31.68-6.91-44.54-39.63-28.41-78.58-57.76-118.45-85.83-24.08-16.95-29.98-2.78-32.25,19.52-8.42,82.65-8.82,82.16-87.78,95.95-187.15,32.69-374.21,65.89-561.32,98.79-15.18,2.67-30.47,4.81-45.76,6.79-19.34,2.51-28.39-6.85-28.71-25.61-.34-20.45-.71-40.9-.96-61.35-.25-20.68-7.88-33.75-31.34-34.32-21.99-.53-33.97,8.39-34.79,30.59-.47,12.77-.53,25.55-.82,38.33-1.61,71.16-1.67,70.87-68.24,82.42-159.57,27.69-319.32,54.42-478.43,84.51-37.2,7.03-44.31-2.81-43.62-37.04,1.95-97.12.98-194.3,1.07-291.46.02-17.89.93-35.91-.82-53.66-3.55-35.81-13.5-41.02-42.51-20.95-37.98,26.29-74.61,54.49-111.93,81.72-26.95,19.67-53.4,40.12-81.31,58.34-30.18,19.71-47.35,39.57-14.17,71.49,6.68,6.42,13.33,17.9,12.17,25.94-1.19,8.28-11,16.39-18.71,22.46-14.93,11.75-30.05,5.75-39.63-16.81-19.95-46.96-51.24-87.93-89.95-121.16-20.77-17.83-15.01-31.04-1.27-41.16,10.54-7.76,21.72-13.28,34.97-4.38,18.41,12.36,24.2,48.05,50.23,40.47,25.75-7.5,47.74-28.72,70.56-45.06,52.17-37.34,102.94-76.7,156.1-112.58,27.1-18.29,30.36-33.53,12.96-61.83-71.05-115.59-136.54-234.65-210.2-348.53-47.45-73.36-52.25-136.45-1.49-211.38,65.96-97.37,119.99-202.64,183.18-301.98,22.43-35.25,15.11-51.43-16.22-72.85-55.04-37.62-107.13-79.48-160.49-119.53-10.34-7.76-176.59-119.54-177.79-120.74-3.59,1.8-.16,2.27,3.4,5.55,4.4,4.04,133.36,96.02,151.69,112.96,10.63,9.82,87.8,50.91,80.43,67.73-3.5,8-38.59,14.16-53.17,16.27-50.34,7.29-96.89-2.81-138.57-32.4-95.91-68.09-192.55-135.21-287.31-204.85C-8.04,222.52-13.41,190.83,22.52,129.29c20.62-35.31,44.59-68.66,74.38-96.97,39.55-37.59,64.91-42.89,109.14-11.54,106.37,75.37,210.84,153.45,314.74,232.18,33.51,25.39,53.55,61.31,58.55,104.08,2.02,17.28,10.7,51.78,3.14,57.83-3.81,3.05-40.56-27.29-78.15-51.13-69.63-44.15-158.63-106.82-175.43-118.55-.79-.55-3.05-2.97-4.69-.55-2.9,4.3,2.17,6.83,2.17,6.83,0,0,306.46,216.66,354.82,257.8,16.43,13.98,27.72,1.4,36.27-12.86,23.65-39.46,48.87-78.1,70.54-118.61,31.17-58.28,77.73-81.68,144.25-81.28,297.92,1.8,595.86,1.76,893.78.04,66.11-.38,113.54,21.59,144.77,80.33,21.56,40.56,47.24,78.94,70.28,118.75,11.12,19.22,23.82,26.34,42.5,10.12,32.42-28.15,266.02-187.5,321.3-230,13.9-10.69,24.71-19.52,22.97-20.68-5.61-3.74-21.06,7.75-28.36,13.21-4.88,5.21-166.36,105.09-210.04,147.49-3.35,3.25-9.05,1.7-10.26-2.81-16.41-61.38,7.72-113.97,52.49-152.56,102.79-88.58,213.9-167.16,326.54-243.04,39.05-26.31,62.59-22.34,97.24,9.09,40.13,36.41,72.63,79.65,94.83,128.98,17.81,39.56,12.2,69.52-22.81,95.25-107.33,78.87-216.35,155.48-325.66,231.63-25.6,17.83-56.89,23.41-88.31,22.77-25.08-.52-59.93,4.83-71.42-13.28-11.49-18.11,181.96-158.88,228.39-194.16,4.09-3.11,1.82-4.77-2.43-3.7-.26.07-5.28-.1-11.05,4.1-52,37.97-303.52,229.75-350.5,259.09ZM1381.65,329.94c-146.64,0-293.33,2.25-439.9-1.1-59.16-1.35-96.85,20.2-125.41,69.88-57.41,99.86-117.51,198.18-176.48,297.16-52.41,87.98-103.72,176.63-157.64,263.68-25.91,41.82-26.9,79.37-.29,121.31,41.13,64.84,78.86,131.81,118.45,197.62,7.88,13.09,16.88,25.69,26.71,37.4,18.43,21.98,39.26,32.09,65.85,11.08,54.97-43.45,120.15-39.42,184.06-35.64,51.47,3.04,101.01,17.83,150.21,33.31,49.11,15.45,99.01,27.14,151.33,26.42,17.69-.24,37.54,4.57,66.83-.91,29.29-5.48,68.03-21.26,68.03-21.26,0,0-2.18,16.78,10.77,26.35,7.15,5.29,24.59-2.93,37.21-5.22,76.54-13.88,148.51-40.61,217.57-75.83,16.97-8.65,112.95-40.47,164.42-70.22,52.58-30.39,60.5-58.64,60.5-58.64,2.62,1.02,54.31,18.86,80.83,4.74,27.74-14.77,27.79-43.41,27.79-43.41,0,0,87.09,16.79,116.91,21.7,34.82,5.74,142.25,65.09,176.29,53.11,37.21-13.1,45.33-64.86,69.51-97.5,31.51-42.54,27.48-83,.33-127.67-113.01-185.97-224.67-372.77-335.05-560.29-27.69-47.05-63.09-67.98-118.92-66.96-146.59,2.66-293.27.9-439.91.9ZM1870.51,1564.79c-.13,0-.26,0-.39,0,0-53.45.37-106.9-.17-160.35-.24-23.12-12.99-30.73-35.48-25.75-24.34,5.38-44.28,13.72-42.74,43.76.78,15.24,1.06,30.52,1.03,45.78-.01,4.96-1.74,9.92-2.68,14.88-5.26-4.92-12.78-8.92-15.29-14.97-4.8-11.6-7-24.31-9.83-36.65-4.87-21.25-10.83-39.64-40.01-33.47-25.42,5.38-41.09,15.55-40.83,44.98.92,101.8.04,203.62.54,305.43.07,14.08-2.13,34.16,20.48,32.82,22.41-1.33,48.19-2.77,47.78-36.09-.25-20.35-.4-40.71-.14-61.06.06-4.96,1.56-14.05,2.99-14.17,8.82-.72,10.21,7.45,12.21,13.61,4.7,14.5,9.91,28.99,12.78,43.89,5.28,27.46,19.37,38.71,48.41,34.22,26.91-4.16,41.82-15.52,41.49-44.14-.57-50.9-.16-101.81-.16-152.72ZM782.74,1753.48c0,48.33.92,92.81,2.03,141.12.2,8.51-.09,30.88-.29,44.78-.1,6.9,1.45,11.39,4.2,10.87,3.3-.63,8.21-1.55,13.81-2.57,15.33-2.79,35.74-8.57,43.48-10.82,2-.58,6.04-30.9,7.03-44.17.94-12.65-.56-25.47.41-38.12.56-7.3,3.82-14.4,5.87-21.59,4.16,5.83,9.74,11.12,12.2,17.59,5.4,14.25,9.88,28.92,13.57,43.71,1.48,5.94,9.69,26.23,9.69,26.23.37,1.65,1.26,4.57,3.56,7.47,1.81,2.29,3.8,3.68,5.14,4.47,6.9,1.3,16.24,2.28,27.13,1.17,17.65-1.79,30.96-8.2,38.62-12.69-.86-11.83-4.23-28.93-8.54-49.6-5.08-24.36-30.43-49.78-16.44-71.6,7.59-11.83,21.14-15.48,24.94-27.57,18.45-58.66,3.05-128.62-3.45-187.51-1.66-15-6.75-25.71-13.54-33.8-4.06-4.84-19.67-11.08-35.65-9.2-23.24,2.73-42.15,6.85-65.26,10.64-9.67,1.58-23.47,3.67-33.2,4.67-13.49,1.38-24.84,6.62-32.15,8.24-2.76.61-2.26,2.78-2.37,6.59-.29,9.68-.49,26.83-.26,36.09,1.19,48.3-.47,97.26-.53,145.59ZM1894.17,1559.64h.19c0,40.86-1.72,81.82.46,122.57,2.4,44.78,17.64,59.72,53.25,59.07,86.25-1.58,134.72-23.54,138.95-62.98.27-2.53.22-5.1.22-7.66,0-43.42.43-86.84-.23-130.25-.3-20.12,1.78-43.62-30.55-40.57-25.13,2.38-45.47,10.2-45.68,40.43-.18,25.54-.04,51.08-.61,76.61-.38,17.05,4.54,41.24-20.9,40.81-19.21-.32-16.54-22.2-16.69-37.07-.36-35.75-.98-71.54.1-107.26.76-25.15-7.24-52.06,6.61-75.05,12.25-20.34,37.28-12.92,56.31-18.7,23.49-7.13,23.54-23.38,19.45-42.4-4.12-19.16-11.59-34.3-35.43-30.24-17.71,3.01-35.44,6.08-52.99,9.91-60.9,13.3-70.33,24.19-72.27,87.85-1.17,38.27-.21,76.61-.21,114.92ZM996.94,1885.41c-.24,8.23.8,15.31,5.46,18.69,6.34,4.6,15.07,1.74,24.24,1.45,15.28-.48,19.36-2.64,21.08-4.11,4.57-3.9,10.5-18.72,13.36-25.36,9.25-21.4,18.94-37.55,31.1-36.47,8.27.74,17.67,9.45,28.85,29.92,13,23.81,36.47,10.5,54.89,4.45,18.5-6.07,17.95-22.87,15.17-38.21-18.14-99.93-46.23-195.04-50.35-296.52-.51-12.6-4.02-22.34-9.23-25.1-6.7-3.55-82.98,10.49-82.98,10.49,0,0-4.83,19.89-6.28,27.97-18.81,104.97-45.08,324.56-45.32,332.8ZM1212,1680.63c.34,0,.67,0,1.01,0,0,48.3-.39,96.61.21,144.9.21,17.04-2.98,40.14,23.54,39,16.78-.72,46.88-1.67,51.17-8.73,4.05-6.65,3.1-19.13,3.57-30.89.81-20.31.5-40.67.76-61,.38-30.06-6.11-62.46,39.51-68.91,22.95-3.24,21.02-25.45,20.43-43.27-.86-26.12-16.63-26.32-36.95-21.63-17.29,3.99-21.37-8.91-22.9-22.38-2.53-22.29-.65-40.76,10.91-52.82,7.85-8.19,20.17-13.43,38.61-14.9,6.72-.54,19.46-6.36,21.33-10.4,5.36-11.61,3.43-20.93,1.16-36.8-1.32-9.22-4.32-15.88-9.33-19.61-2.24-1.67-17.52-7.07-29.65-5.01-25.2,4.27-50.19,10.16-75.52,13.23-28.91,3.5-38.4,19.82-38.04,46.67.68,50.84.2,101.69.2,152.54ZM1431.74,1668.81c.11,0,.22,0,.33,0,0,38.33-.43,76.66.22,114.97.25,14.6-4.14,33.4,13.96,40.05,17.22,6.33,35.98.85,51.76-7.16,19.4-9.85,16.08-30.47,16.24-47.8.61-68.98.07-137.97.56-206.96.16-22.07-5.86-46.4,24.59-57.44,24.45-8.86,14.09-29.03,9.96-45.78-5.57-22.64-22.42-25.44-41.97-21.93-27.81,5-56.43,7.69-83.09,16.31-20.73,6.7-37.97,25.84-36.8,43.32.53,7.94,6.97,23.24,14.99,22.63,11.3-.86,22.81-1.06,25.69,6.42,3.9,10.16,3.1,39.51,3.37,51.4.72,30.64.19,61.32.19,91.98ZM1655.79,1601.74h.2c0-48.54.59-97.08-.33-145.6-.31-16.19,6.51-41.77-20.62-40.41-23.02,1.15-55.77-1.42-55.93,37.1-.44,107.28-.59,214.56-.35,321.83.05,24.32,15.17,29.19,36.49,25.23,25.42-4.72,41.84-14.98,40.96-44.88-1.5-51.05-.41-102.17-.41-153.26Z"/>
    <path class="cls-2" d="M1266.3,1005.57c30.85-25.06,72.66-20.52,104.68-41.21,7.06-4.56,41.09-34.43,49.2-43.04,7.1-7.54-35.37-30.42-43.32-46.6-2.58-5.24,2.37-10.08,3.02-14.2.54-3.41,2.62-7.07,4.73-10.77,2.51-4.4,5.05-8.85,5.08-12.96.11-16.1-3.66-30.99-21.23-35.96-18.25-5.16-41.51-3.18-47.99,12.99-2.32,5.78-4.75,17.54-4.97,30.35-.2,11.46,1.75,24.34,1.06,25.22-1.47,1.88-7.82.69-12.12,1.76-10.31,2.55-38.1,24.24-53.28,47.4-13.77,21.01-16.14,48.02-11.44,73.57,2.58,14.02,13.06,24.46,26.59,13.47Z"/>
    <path class="cls-2" d="M2002.55,874.29c-17.48-3.53-154.92-119.87-188.25-142.92-16.36-11.31-50.16-4.22-60.03,7.65-3.29,3.96-22.29,21.62-22.19,17.99.06-1.97,7.13-20.15,14.68-33.2,6.37-11.01,13.28-17.12,14.61-19.42,1.93-3.33,2.66-7.33,2.78-11.09.2-6.25-1.3-11.81-1.8-12.4-7.22-8.61-24.01,10.41-38.33,28.22-7.1,8.83-25.35,66.18-31.8,85.14-5.69,16.74,5.81,23.18,20.75,20.53,9.76-1.73,18.89-7.29,28.13-11.49,10.75-4.88,24.95-17.9,31.31-.62,5.79,15.71,3.86,35.13,1.78,52.5-1.46,12.25-13.46,12.46-24.13,10.18-48.69-10.41-133.05-51.13-140.1-63.54-5.7-10.04,1.34-17.23-2.96-30.43-10.95-33.58-47.03-40.94-61.94-11.17-2.01,4.01-4.54,8.96-5.3,20.31-.25,3.72.98,10.96,2.43,15.45,1.99,6.2,4.28,9.35,2.51,10.58-5.03,3.5-50.81,12.44-59.51,26.7-3.89,6.36-10.36,22.04-9.9,33.23.38,9.21,7.36,15.2,8.47,14.71,7.39-3.31,20.21-15.55,28.41-22.59,1.22-13.65,8.58-20.56,22.48-19.49,1.55.12,4.05,3.47,4.07,5.34.16,15.94-10.87,17.89-23.33,17.76-1.18,4.97-136.83,108.7-135.71,107.13.04-.06.03-.12.06-.18-.16.52-.86.98-2.48,1.29-3.76,4.18-9.4,23.2-22.97,43.45-16.85,25.14-42.63,52.92-53.28,65.38-3.28,3.83-18.01,12.52-28.96,9.56-21.87-5.91-45.18-31.09-47.59-43.97-6.15-32.71-27.62.8-41.48-3.36-6.24-1.87-12.69-8.58-15.65-14.72-4.92-10.17-18.46-14.72-25.45-23.56-5.46-6.91-16.09-19.51-16.09-19.51,0,0,17.71-11.96,24.63-22.73,9.85-15.35,15.01-60.77-11.47-69.54-26.04-8.63-46.76-2.98-57.74,25.55-1.77,4.61-2.33,37.19-4.94,40.88-2.19,3.11-14.1,2.84-16.02,3.11-12.36,1.68-18.02,13.04-21.58,17.36-4.38,5.31-9.12,25.78-11.54,45.13-4.2,33.59-5.49,66.86-23.54,92.06-2.03,2.83-15.86,13.88-30.61,18.53-11.44,3.6-23.74.84-29.55,3.47,0,0-129.87,82.57-139.14,85.7,1.27,10.94-1.39,42.05,27.02,31.46,36.57-13.63,72.79-21.02,110.94-26.27,205.33-28.23,408.27-68.39,606.43-129.62,55.82-17.25,111.16-37.8,151.76-83.52l-3.26-3.92c-15.32-.13-30.07-38.88-35.08-38.88-9.26,0-54.35,18.24-74.91,16.84-.66-.05-2.14-4.16-1.49-4.95,14.29-17.39,59.02-17.82,61.73-21.95,14.71-22.4-8.69-70.35,11.24-75.97,24.92-7.03,56.74,10.87,85.75,17.28,48.56,10.73,27.63,36.24,13.46,60.48,1.94,2.19,3.9,4.37,5.88,6.53,19.3-12.29,38.22-25.21,57.98-36.72,40.03-23.33,81.3-43.83,129.14-45.14,9.37-.26,19.83-2.12,26.15,8.12-6.35,3.65-12.28,8.85-19.13,10.71-65.81,17.85-121.52,53.95-174.32,95.06-88.28,68.74-187.19,113.56-296.17,140.34-166.83,40.99-333.79,80.43-504.74,100.63-8.91,1.05-19.5-.98-25.22,9.25,6.59,3.24,12.88,8.3,19.83,9.45,56.78,9.43,172.81,9.53,223.98,3.89,17.27-1.9,42.03-14.69,42.03-14.69,0,0-5.77,9.88,15.82,13.34,27.96,4.48,65.22,3.74,85.14-.73,82.77-18.6,163.49-42.84,241.5-76.98,98.62-43.15,198.79-82.81,298.28-124,11.81-4.89,62.79-20.21,69.86-24.43,12.28-7.34,8.23-18.45,8.23-18.45,0,0,37.32,6.47,56.87,15.93,30.22,14.63,47.74,2.65,59.42-26.15,27.28-67.28-1.71-120.95-75.8-135.91ZM1024.78,1187.85c-1.44-.41-3.39-4.07-2.86-5.17.86-1.79,3.57-2.69,5.5-3.97,1.98.95,5.38,1.57,5.69,2.9,1.29,5.51-2.02,8.03-8.33,6.23ZM1484.3,1046.24c-2.24-1.16-4.17-3.34-6.5-3.85-30.02-6.46-52.12-20.05-49.19-55.13,1.59-18.98,14.74-25.2,31.73-23.92,29.62,2.23,53.38,28.94,55.69,64.03.39,20.28-7.39,31.47-31.73,18.86Z"/>
    <path class="cls-2" d="M797.17,1205.68c2.1-61.95-14.59-129.46,48.89-174.76,18.56-13.24,7.11-33.06,9.14-49.87,2.48-20.55,14.37-32.77,34.14-35.56,24.03-3.4,34.41,15.36,34.14,32.78-.18,11.74-8.97,40.94-6.95,42.91,3.05,2.97,12.64,1.25,14.04,2.13,9.95,6.22,18.34,9.79,27.46,19.75,3.88,4.23,11.9,14.19,14.35,25.39.48,2.19,34.48-.21,49.45,3.59,10.55,2.68.74,24.58,0,25.71-.64.97-14.63,12.38-12.29,8.05,4.31-8.01-17.69-21.88-28.32-17.53-15.71,6.42-25.51,16.1-32.4,26.34-3.17,4.7-7.63,14.86-8.37,15.36-10.34,7.06-111.93,63.02-111.93,63.02.88-7.18,9.45-70.35,10.55-82.84.68-7.71,1.93-9.8,2.22-12.24.24-1.99-1.02-4.5-1.86-4.66-4.74-.95-4.61,6.22-7.76,26.59-5.34,34.57-14.76,79.29-10.9,90.45.72,2.08.73,7.75-1.33,9.55-2.63,2.3-6.21,4.75-8.39,5.04-7.73,1.04-14.31-7.07-13.9-19.17Z"/>
    <path class="cls-2" d="M1799.04,716.83c-.66-.34-.91-1.2-.51-1.83,5.16-8.22,14.73-10.61,19.75-21.98,6.98-15.83-4.4-26.81-5.29-29.12-1.94-5-3.47-13.9-1.7-24.48,1.56-9.37,6.05-20.52,10.09-24.73,7.73-8.06,14.75-10.29,25.01-10.54,17.71-.44,30.98,2.64,34.34,19.88,3.01,15.41,3.91,44.22,7.6,51.54,5.7,11.29,25.21,6.19,35.93,15.73,36.55,32.54,53.37,79.92,72.51,124.27,3.85,8.92-8.45,34.58-10.21,33.95-7.81-2.75-128.92-101.63-161.48-119.01-13.45-7.18-22.84-12.04-26.04-13.69Z"/>
    <path class="cls-2" d="M1769.18,964.74c-16.07,21.93-36.06,38.34-63.32,44.54l-3.26-3.92c13.14-24.73,35.5-37.75,60.7-47.15,1.94,2.19,3.9,4.37,5.88,6.53Z"/>
    <path class="cls-2" d="M889.54,1682.12c0,7.6.3,15.21-.06,22.78-.72,14.84.62,34.87-19.36,34.45-21.48-.46-15.11-21.86-15.79-35.28-1.03-20.17-.23-40.49.99-60.67.62-10.21,4.3-20.23,17.64-20,13.67.24,14.99,11.05,15.64,20.78.84,12.6.21,25.29.21,37.94.25,0,.49,0,.74,0Z"/>
    <path class="cls-2" d="M1109,1740.58c-.85,18.63,3.73,49.22-14.61,49.37-7.71.06-15.53-7.7-15.53-7.7,0,0-3.42-6.9-4.09-16.5-.79-11.39,3.38-58.53,5.96-68.59,1.23-4.79,4.89-22.86,7.69-31,3.32-9.63,5.73-9.06,5.73-9.06,0,0,4.4-.14,7.95,19.06,3.75,20.27,6.68,60.05,6.88,64.43Z"/>
    <g class="cls-1">
      <path class="cls-2" d="M1763.3,958.21c-25.2,9.4-47.56,22.42-60.7,47.15-15.32-.13-29.36-1.55-34.52-20.01-3.41-12.21-10.81-21.85-24.89-23.79l1.55,1.81c1.89-4.65,3.08-9.76,5.79-13.89,14.71-22.4-6.37-63.43,13.56-69.05,24.92-7.03,56.74,10.87,85.75,17.28,48.56,10.73,27.63,36.24,13.46,60.48Z"/>
    </g>
    <path class="cls-2" d="M1027.42,1178.72c1.98.95,5.38,1.57,5.69,2.9,1.29,5.51-2.02,8.03-8.33,6.23-1.44-.41-3.38-4.07-2.86-5.17.86-1.79,3.57-2.69,5.5-3.97Z"/>
    <path class="cls-2" d="M1087.1,1067.54c-1.72-.76-3.45-1.51-5.17-2.27,1.18,1.28,2.37,2.55,3.55,3.83l1.62-1.57Z"/>
    <path class="cls-2" d="M1477.55,1007.38c4.17,2.67,6.13,6.37,6.87,7.78,4.62,8.76,1.59,17.64.96,19.37-7.26.61-10.96-1.32-13-3.14-3.3-2.97-2.53-5.94-6.15-8.39-4.23-2.86-7.53-.3-10.93-3.08-2.85-2.33-4.21-7.14-2.8-10.34,2.74-6.19,16.46-7.69,25.04-2.19Z"/>
    <polyline class="cls-2" points="1643.77 963.41 1775.94 920.24 1782.77 927.53 1659.49 974.38"/>
    <path class="cls-2" d="M756.18,1176.38h-.04s-169.22-4.68-169.2-9.49c.02-4.8,169.28-7.94,169.28-7.94,4.82.02,4.76,17.44-.04,17.44Z"/>
    <path class="cls-2" d="M755.45,1119.57c-.28,0-.55-.01-.83-.04,0,0-167.37-19.73-166.91-24.53.46-4.79,168.55,7.17,168.55,7.17,4.79.45,3.63,17.4-.81,17.4Z"/>
    <path class="cls-2" d="M775.24,1067.17c-.45,0-.9-.03-1.36-.11,0,0-191.25-33.79-190.51-38.54.74-4.76,193.2,21.31,193.2,21.31,4.76.74,2.89,17.33-1.33,17.33Z"/>
    <path class="cls-2" d="M808.22,1028.03c-.79,0-1.59-.11-2.38-.33,0,0-200.83-60.99-199.52-65.62,1.31-4.63,204.27,48.85,204.27,48.85,4.63,1.31,1.43,17.11-2.37,17.11Z"/>
    <path class="cls-2" d="M815.27,979.3c-1.1,0-2.21-.21-3.29-.65,0,0-182.97-78.83-181.15-83.29,1.81-4.46,187.73,67.14,187.73,67.14,4.46,1.82.14,16.79-3.3,16.79Z"/>
    <path class="cls-2" d="M845.77,927.57c-1.28,0-2.58-.28-3.81-.88,0,0-184.62-94.28-182.51-98.61,2.11-4.33,190.15,82.94,190.15,82.94,4.33,2.11-.59,16.56-3.82,16.56Z"/>
    <path class="cls-2" d="M1007.1,961.45c-1.53,0-3.08-.4-4.49-1.25,0,0-319.38-196.7-316.9-200.83,2.49-4.13,325.89,185.89,325.89,185.89,4.12,2.48-1.55,16.19-4.5,16.19Z"/>
    <path class="cls-2" d="M1032.31,933.08c-1.75,0-3.52-.53-5.06-1.63,0,0-305.48-223.14-302.68-227.06,2.8-3.92,312.82,212.87,312.82,212.87,3.92,2.8-2.36,15.81-5.08,15.81Z"/>
    <path class="cls-2" d="M1062.02,906.98c-1.96,0-3.93-.66-5.56-2.01,0,0-299.42-253.43-296.34-257.13,3.07-3.71,307.47,243.71,307.47,243.71,3.71,3.08-3.06,15.43-5.57,15.43Z"/>
    <path class="cls-2" d="M1075.76,874.71c-2.22,0-4.43-.84-6.13-2.52,0,0-262.96-265.84-259.58-269.26,3.39-3.42,271.84,256.87,271.84,256.87,3.42,3.39-3.89,14.91-6.13,14.91Z"/>
    <path class="cls-2" d="M1110.56,863.23s-241.75-294.26-238.06-297.36c3.68-3.09,251.42,286.15,251.42,286.15,3.1,3.69-11.63,13.26-13.36,11.21Z"/>
    <path class="cls-2" d="M1165.63,872.33s-252.35-359.25-248.27-362.17c4.08-2.92,263.04,351.59,263.04,351.59,1.62,2.26-.06,8.52-4.4,11.01-3.49,2-9.58.68-10.37-.42Z"/>
    <path class="cls-2" d="M1204.13,874.89s-231.7-395.97-227.26-398.62c4.43-2.65,243.34,389.02,243.34,389.02,1.2,2.01,1.66,7.97-1.95,10.12-4.37,2.6-13.17,1.1-14.13-.51Z"/>
    <path class="cls-2" d="M1225.13,856.13s-6.58-13.97-17.3-36.82c-47.91-102.08-178.53-381.33-174.76-383.15,3.78-1.83,141.38,275.61,191.08,376.13,10.99,22.22,17.68,35.79,17.68,35.79,2.22,4.61-15.1,11.36-16.7,8.05Z"/>
    <path class="cls-2" d="M1243.78,819.94s-144.68-401.88-140.16-403.55c4.51-1.67,156.51,397.5,156.51,397.5,1.67,4.51-15.05,9.57-16.35,6.05Z"/>
    <path class="cls-2" d="M1272.21,789.76s-110.88-385.91-106.26-387.28c4.61-1.38,122.97,382.3,122.97,382.3,1.38,4.61-15.58,8.76-16.71,4.98Z"/>
    <path class="cls-2" d="M1299.47,758.08s-71.1-376.59-66.38-377.54c4.72-.96,83.48,374.13,83.48,374.13.94,4.72-16.27,7.56-17.1,3.41Z"/>
    <path class="cls-2" d="M1332.24,747.77s-19.54-371.65-14.73-371.95c4.82-.28,32.13,370.86,32.13,370.86.3,4.81-17.11,5.72-17.4,1.1Z"/>
    <path class="cls-2" d="M1365.67,751.83s2.73-371.43,7.55-371.45h.03c4.8,0,9.86,371.4,9.86,371.4.01,4.82-17.42,4.86-17.44.05Z"/>
    <path class="cls-2" d="M1410.31,775.27s29.68-397.5,34.43-397.16c4.81.31-17.03,398.28-17.03,398.28-.3,4.61-17.71,3.68-17.4-1.13Z"/>
    <path class="cls-2" d="M1439.47,798.76s78.53-420.24,82.98-419.38c4.44.86-66.89,422.52-66.89,422.52-.74,4.12-16.92,1.51-16.09-3.14Z"/>
    <path class="cls-2" d="M1471.81,777.49s105.93-383.96,110.45-382.76c4.53,1.2-94.05,387.12-94.05,387.12-1.01,3.8-17.6.17-16.39-4.35Z"/>
    <path class="cls-2" d="M1520.05,729.92s122.95-306.53,127.83-304.65c4.86,1.88-110.24,311.44-110.24,311.44-1.44,3.74-19.47-1.94-17.59-6.79Z"/>
    <path class="cls-2" d="M1583.39,706.43s127.62-263.6,131.99-261.56c4.36,2.04-116.2,268.95-116.2,268.95-1.48,3.17-17.83-3.03-15.79-7.39Z"/>
    <path class="cls-2" d="M1626.85,724.15s142.38-247.45,146.58-245.11c4.21,2.34-131.35,253.59-131.35,253.59-1.59,2.86-17.57-4.28-15.23-8.49Z"/>
    <path class="cls-2" d="M1739.69,640.44s90.31-132.25,94.35-129.64c4.04,2.62-79.71,139.12-79.71,139.12-1.67,2.58-17.25-5.44-14.64-9.48Z"/>
    <path class="cls-2" d="M1868.69,566.12s29.85-29.06,33.52-25.94c3.67,3.12-20.24,37.24-20.24,37.24-1.73,2.03-16.4-7.63-13.28-11.3Z"/>
    <path class="cls-2" d="M1905.93,627.41s46.13-40.19,49.52-36.77c3.39,3.42-37.26,49.16-37.26,49.16-1.7,1.68-15.69-9-12.27-12.39Z"/>
    <path class="cls-2" d="M1943.87,671.92s50.97-35.09,53.94-31.3c2.97,3.79-43.17,45.02-43.17,45.02-1.6,1.25-14.56-10.73-10.77-13.71Z"/>
    <path class="cls-2" d="M1993.46,731.8s43.6-25.62,46.36-21.67c2.75,3.95-36.39,35.98-36.39,35.98-1.52,1.06-13.91-11.55-9.96-14.31Z"/>
    <path class="cls-2" d="M1255.48,1001.31c-10.14,6.61-28.64,16.09-34.84,26.29-5.21,8.58,3.57,18.75,7.14,28.37,3.58,9.65,9.13,19.01,17.06,25.7,7.33,6.19,16.05,10.92,25.03,14.24,11.55,4.27,25.05,2.11,35.16-4.69,5.56-3.74.33-12.8-5.28-9.03-8.96,6.03-19.54,6.93-29.42,2.7-10.37-4.43-20.25-10.62-26.54-20.2-2.34-3.56-13.09-19.58-8.67-32.36,4.05-11.7,30.54-25,32.2-27.57,3.25-5.03-6.17-7.14-11.83-3.45h0Z"/>
    <path class="cls-2" d="M849.17,1160.93c-2.72.85-5.08,2.74-7.36,4.37-2.81,2.02-5.58,4.1-8.33,6.2-8.53,6.53-16.8,13.43-25.16,20.18-2.85,2.3-2.57,7.5,0,9.86,3.03,2.78,6.82,2.45,9.86,0,4.81-3.88,9.61-7.76,14.42-11.63,2.33-1.88,4.65-3.78,6.99-5.64.25-.2.51-.39.76-.59.81-.64-1.49,1.15-.65.5.27-.21.54-.42.81-.63,2.59-1.98,5.2-3.94,7.84-5.85,1.22-.88,2.46-1.76,3.71-2.6.44-.29.89-.59,1.35-.86,1.13-.67.82-.28-.55.14,3.48-1.08,6.06-4.91,4.87-8.58s-4.85-6.03-8.58-4.87h0Z"/>
  </g>
</svg>