<?xml version="1.0" encoding="UTF-8"?>
<svg id="Layer_1" data-name="Layer 1" xmlns="http://www.w3.org/2000/svg" version="1.1" viewBox="0 0 144 144">
  <defs>
    <style>
      .cls-1 {
        fill: #a56427;
      }

      .cls-1, .cls-2 {
        stroke-width: 0px;
      }

      .cls-2 {
        fill: #fff;
      }
    </style>
  </defs>
  <path class="cls-1" d="M245.9-218.9"/>
  <path class="cls-2" d="M142.8-21.3"/>
  <path class="cls-2" d="M110.5-21.3"/>
  <path class="cls-1" d="M243.4-214.5"/>
  <path class="cls-1" d="M279.7-183.8"/>
  <g>
    <path class="cls-1" d="M102.8,82.7c-11.7-12.1-23.7-23.8-35.5-35.7-1.9-1.9-3.8-3.8-5.8-5.6-5-5-9-6.2-14.5-1.4-3.9,3.5-10.2,8.9-10.2,13.9.1,3,3,5.9,5,8,13.3,13.6,26.8,26.9,40.3,40.4,2.5,2.5,5.4,5.7,9.2,4.4,6.2-1.4,8.4-5.5,12-9.2,5.4-5.5,4.6-9.5-.4-14.6l-.2-.2h0Z"/>
    <path class="cls-1" d="M99.7,67.1c6.7,1.5,13.9-3,19.7-7.4,9-7.1,15.8-18.1,15.4-29.8-.4-10-9-18.4-18.6-20.3-6.7-1.4-13.6,1-19.7,4.7-12.9,8.1-28.3,26.3-13.9,40.2,4.9,5,10.3,10.7,17,12.6h.2s0,0,0,0ZM127.2,32.1c2.8,6.6-8.1,20.1-12.4,23.3-3.2,2.5-6.6,4.3-10.1,4.8-4.5.5-3.3-3-1.1-5.2,6.6-5.9,14-12.2,18.9-19.9.8-1,1.9-3.4,3.3-3.6.2,0,.6,0,.9.1s.5.4.5.6ZM120.5,23.3c4.1,3.2-17,22.6-18.2,23.7-1.9,1.7-5.2,4.2-7.5,5-4.6,1.2-2.2-4.8-.7-6.6,4.7-6.4,10.9-12.2,16.8-16.8,2.2-1.5,6.8-6.2,9.5-5.3h.1c0,0,0,0,0,0ZM111.6,18c1.3,2.2-4.4,4.5-5.8,5.8-4.7,3.4-9.8,8.4-13.6,13.1-2.2,2.3-3.2,5.4-5.8,7.2-2.1,1.3-3.8.2-3.8-2.2,1.9-10.6,12.3-21.6,22.9-24.4,1.8-.5,4.6-.9,5.9.4h0Z"/>
    <path class="cls-1" d="M53.2,84.3c-5.3-3.7-9.5,3.3-13.5,5.9-8.7,6.7-17.3,13.5-24.9,21.3-8.5,7.9-7,16.3,3,22.2,5.7,3,11.4-1.1,15.3-5.1,9.6-9.5,17.5-20.5,26-31,4-5.1-2-10.6-5.8-13.1h-.2c0,0,0,0,0,0Z"/>
    <path class="cls-1" d="M15.2,34.9c2.8,2.4,6.3,4.1,9.7,5.7,2.3,1.2,4.9,1.7,7.5,1,5.3-1.3,10.5-6.4,9.5-12.1-1.5-12.3-14.1-26-26.5-17.4-7.7,5.5-7.8,16.6-.3,22.7h.1c0,.1,0,.1,0,.1Z"/>
    <path class="cls-1" d="M112.2,101.8c-4.5.6-8.7,5.6-10,9.7-2,9.7,8.6,22,16.7,22.9,7.2.5,14.4-5,15.5-12.1,1.7-10.3-12.6-20.8-22-20.5h-.2,0Z"/>
  </g>
  <path class="cls-1" d="M127.2,31.9"/>
</svg>