<?xml version="1.0" encoding="UTF-8"?>
<svg id="Layer_1" data-name="Layer 1" xmlns="http://www.w3.org/2000/svg" version="1.1" viewBox="0 0 144 144">
  <defs>
    <style>
      .cls-1 {
        fill: #a56427;
      }

      .cls-1, .cls-2 {
        stroke-width: 0px;
      }

      .cls-2 {
        fill: #fff;
      }
    </style>
  </defs>
  <path class="cls-1" d="M245.89-218.85"/>
  <path class="cls-2" d="M142.77-21.26"/>
  <path class="cls-2" d="M110.52-21.26"/>
  <path class="cls-1" d="M243.41-214.53"/>
  <path class="cls-1" d="M279.68-183.81"/>
  <g>
    <path class="cls-1" d="M102.8,82.67c-11.66-12.06-23.73-23.78-35.53-35.72-1.92-1.89-3.82-3.76-5.78-5.62-4.96-4.98-9.04-6.15-14.45-1.38-3.87,3.53-10.18,8.89-10.17,13.89.12,2.95,2.95,5.88,5.04,8.04,13.31,13.58,26.79,26.89,40.26,40.37,2.46,2.46,5.41,5.7,9.21,4.4,6.15-1.37,8.37-5.5,12-9.17,5.39-5.51,4.57-9.48-.43-14.64l-.15-.16Z"/>
    <path class="cls-1" d="M99.66,67.15c6.72,1.53,13.94-3.04,19.66-7.39,8.96-7.08,15.77-18.13,15.36-29.83-.38-10.04-8.98-18.42-18.57-20.26-6.7-1.36-13.59.98-19.68,4.73-12.9,8.15-28.27,26.33-13.88,40.15,4.88,4.97,10.27,10.73,16.95,12.56l.16.04ZM127.19,32.16c2.78,6.63-8.08,20.1-12.45,23.33-3.23,2.45-6.56,4.31-10.1,4.78-4.5.48-3.33-3.04-1.05-5.22,6.56-5.86,13.96-12.25,18.92-19.94.75-1.04,1.89-3.38,3.31-3.61.19-.03.58-.05.87.1s.46.45.5.56ZM120.5,23.3c4.12,3.22-16.99,22.63-18.15,23.7-1.93,1.67-5.21,4.24-7.54,4.96-4.62,1.24-2.24-4.76-.66-6.63,4.71-6.36,10.88-12.18,16.76-16.83,2.24-1.52,6.77-6.22,9.47-5.27l.11.07ZM111.63,17.98c1.26,2.21-4.36,4.51-5.81,5.8-4.71,3.37-9.76,8.4-13.57,13.07-2.18,2.3-3.18,5.43-5.77,7.21-2.14,1.29-3.85.22-3.76-2.21,1.92-10.62,12.3-21.56,22.88-24.4,1.79-.47,4.57-.87,5.95.43l.08.1Z"/>
    <path class="cls-1" d="M53.22,84.36c-5.35-3.66-9.47,3.32-13.47,5.89-8.69,6.66-17.28,13.48-24.92,21.28-8.46,7.88-7.04,16.35,2.98,22.17,5.66,3.01,11.41-1.07,15.33-5.1,9.62-9.53,17.53-20.51,26-31.03,3.99-5.08-1.99-10.58-5.76-13.11l-.15-.1Z"/>
    <path class="cls-1" d="M15.22,34.96c2.76,2.36,6.3,4.08,9.7,5.7,2.31,1.22,4.87,1.65,7.49.95,5.28-1.31,10.45-6.44,9.55-12.1-1.5-12.28-14.09-26.04-26.55-17.37-7.7,5.52-7.75,16.59-.33,22.68l.15.13Z"/>
    <path class="cls-1" d="M112.17,101.84c-4.5.58-8.73,5.62-10.03,9.74-1.99,9.65,8.57,22.03,16.72,22.86,7.18.49,14.36-4.96,15.49-12.09,1.68-10.31-12.55-20.85-22.03-20.51h-.16Z"/>
  </g>
  <path class="cls-1" d="M127.22,31.87"/>
</svg>